<svg width="25" height="24" viewBox="0 0 25 24" fill="none" xmlns="http://www.w3.org/2000/svg">
<g id="call" clip-path="url(#clip0_3128_75404)">
<path id="Vector" d="M7.20699 5C7.26699 5.89 7.41699 6.76 7.65699 7.59L6.45699 8.79C6.04699 7.59 5.78699 6.32 5.69699 5H7.20699ZM17.067 17.02C17.917 17.26 18.787 17.41 19.667 17.47V18.96C18.347 18.87 17.077 18.61 15.867 18.21L17.067 17.02ZM8.16699 3H4.66699C4.11699 3 3.66699 3.45 3.66699 4C3.66699 13.39 11.277 21 20.667 21C21.217 21 21.667 20.55 21.667 20V16.51C21.667 15.96 21.217 15.51 20.667 15.51C19.427 15.51 18.217 15.31 17.097 14.94C16.997 14.9 16.887 14.89 16.787 14.89C16.527 14.89 16.277 14.99 16.077 15.18L13.877 17.38C11.047 15.93 8.72699 13.62 7.28699 10.79L9.48699 8.59C9.76699 8.31 9.84699 7.92 9.73699 7.57C9.36699 6.45 9.16699 5.25 9.16699 4C9.16699 3.45 8.71699 3 8.16699 3Z" fill="#323232"/>
</g>
<defs>
<clipPath id="clip0_3128_75404">
<rect width="24" height="24" fill="white" transform="translate(0.666992)"/>
</clipPath>
</defs>
</svg>
