<svg width="24" height="24" viewBox="0 0 24 24" fill="none" xmlns="http://www.w3.org/2000/svg">
<g id="fi_14379834">
<path id="Vector" d="M20.4521 6.70803C18.1945 4.45039 15.1928 3.20703 12 3.20703C8.8072 3.20703 5.80552 4.45039 3.54788 6.70803C1.29019 8.96567 0.046875 11.9674 0.046875 15.1602C0.046875 17.0713 0.484547 18.8975 1.34766 20.5881C1.44173 20.7724 1.66739 20.8457 1.85189 20.7517L6.91031 18.1744C6.999 18.1292 7.06603 18.0506 7.09678 17.956C7.12753 17.8613 7.11928 17.7583 7.07409 17.6697C6.67514 16.8884 6.47287 16.0441 6.47287 15.1602C6.47287 12.1124 8.95238 9.63294 12 9.63294C13.91 9.63294 15.6712 10.6148 16.68 12.2181L15.5301 12.882C14.7807 11.7248 13.4783 10.9574 12 10.9574C9.68264 10.9574 7.79737 12.8428 7.79737 15.1601C7.79737 17.4775 9.68269 19.3628 12 19.3628C14.3174 19.3628 16.2027 17.4775 16.2027 15.1601C16.2027 15.0404 16.1974 14.9219 16.1875 14.8047L17.4231 14.0913C17.4917 14.4418 17.5272 14.7995 17.5272 15.1601C17.5272 16.044 17.325 16.8884 16.926 17.6697C16.8808 17.7583 16.8726 17.8612 16.9033 17.9559C16.9341 18.0506 17.0011 18.1291 17.0898 18.1743L22.1482 20.7516C22.2027 20.7794 22.2608 20.7926 22.3181 20.7926C22.4546 20.7926 22.5862 20.7179 22.6524 20.588C23.5155 18.8975 23.9531 17.0713 23.9531 15.1602C23.9531 11.9674 22.7098 8.96567 20.4521 6.70803ZM1.85072 19.9106C1.20389 18.5338 0.852891 17.0652 0.803578 15.5352H5.73408C5.77711 16.2778 5.94811 16.9937 6.24525 17.6715L1.85072 19.9106ZM5.73436 14.7852H0.803813C0.896625 11.9788 2.02641 9.43067 3.82167 7.51213L7.30645 10.9969C6.39952 12.0182 5.82014 13.3363 5.73436 14.7852ZM11.625 8.89447C10.1761 8.9803 8.85806 9.55967 7.8368 10.4666L4.35202 6.98187C6.27052 5.18661 8.81859 4.05678 11.625 3.96402V8.89447ZM12 18.6128C10.0962 18.6128 8.54733 17.064 8.54733 15.1602C8.54733 13.2564 10.0962 11.7075 12 11.7075C13.9038 11.7075 15.4527 13.2563 15.4527 15.1602C15.4527 17.0639 13.9038 18.6128 12 18.6128ZM23.1962 14.7852H18.2653C18.2436 14.4177 18.1899 14.054 18.1049 13.6977L20.9483 12.056C21.1783 11.9232 21.343 11.7081 21.4121 11.4505C21.4811 11.1928 21.446 10.9242 21.3132 10.6943C21.1804 10.4643 20.9654 10.2995 20.7077 10.2305C20.4501 10.1614 20.1814 10.1965 19.9514 10.3293L17.3296 11.843C17.1409 11.5401 16.9288 11.2567 16.6961 10.9944L20.1783 7.51213C21.9736 9.43072 23.1034 11.9788 23.1962 14.7852ZM16.1656 10.4642C15.126 9.54205 13.7963 8.97941 12.375 8.8948V3.96402C15.1814 4.05683 17.7295 5.18661 19.648 6.98187L16.1656 10.4642ZM22.1493 19.9106L17.7548 17.6715C18.052 16.9937 18.2229 16.2778 18.266 15.5352H23.1965C23.1471 17.0652 22.7961 18.5338 22.1493 19.9106ZM9.60563 14.2261C9.60563 13.7325 10.0072 13.3309 10.5009 13.3309C10.9946 13.3309 11.3962 13.7325 11.3962 14.2261C11.3962 14.7198 10.9946 15.1213 10.5009 15.1213C10.0072 15.1213 9.60563 14.7198 9.60563 14.2261ZM14.2614 16.3295C14.326 16.4533 14.3164 16.6029 14.2365 16.7174C13.7264 17.4487 12.8903 17.8854 12 17.8854C11.1097 17.8854 10.2736 17.4488 9.76355 16.7174C9.68363 16.6029 9.67402 16.4533 9.73866 16.3295C9.8033 16.2056 9.93141 16.1279 10.0711 16.1279H13.929C14.0686 16.1279 14.1968 16.2056 14.2614 16.3295ZM14.3943 14.2261C14.3943 14.7198 13.9928 15.1213 13.4991 15.1213C13.0054 15.1213 12.6038 14.7198 12.6038 14.2261C12.6038 13.7325 13.0054 13.3309 13.4991 13.3309C13.9928 13.3309 14.3943 13.7325 14.3943 14.2261Z" fill="#4D5BA4"/>
</g>
</svg>
