<svg width="24" height="24" viewBox="0 0 24 24" fill="none" xmlns="http://www.w3.org/2000/svg">
<g id="fi_15202323">
<path id="Vector" d="M8.91216 9.52025C9.84698 8.58613 10.3618 7.3438 10.3618 6.02221C10.3618 4.70061 9.84698 3.45829 8.91225 2.52421C6.98414 0.596145 3.84581 0.596051 1.91629 2.52421C-0.0124708 4.45297 -0.0124706 7.59135 1.91634 9.52025C2.88108 10.4843 4.14797 10.9663 5.41472 10.9663C6.68147 10.9663 7.94817 10.4842 8.91216 9.52025ZM2.31361 2.92171C3.16889 2.06708 4.29169 1.63991 5.41467 1.63991C6.53765 1.63991 7.6604 2.06727 8.51484 2.92171C9.3434 3.74971 9.79973 4.85075 9.79973 6.02221C9.79973 7.17233 9.35958 8.25453 8.55933 9.07714C8.19623 8.17157 7.46395 7.47824 6.56531 7.15494C7.08937 6.79011 7.43325 6.18393 7.43325 5.49866C7.43325 4.38613 6.52753 3.48097 5.41425 3.48097C4.30097 3.48097 3.39656 4.38613 3.39656 5.49866C3.39656 6.18393 3.74025 6.79011 4.26394 7.15494C3.3659 7.47819 2.63362 8.17124 2.26978 9.07653C0.605201 7.36335 0.61917 4.61614 2.31361 2.92171ZM3.95859 5.49866C3.95859 4.69602 4.61161 4.043 5.41425 4.043C6.21689 4.043 6.87122 4.69602 6.87122 5.49866C6.87122 6.3013 6.21764 6.95432 5.41425 6.95432C4.61086 6.95432 3.95859 6.3013 3.95859 5.49866ZM2.72128 9.48102C3.09375 8.31585 4.17642 7.51635 5.41425 7.51635C6.65208 7.51635 7.73615 8.31589 8.1074 9.48111C6.53015 10.7107 4.29942 10.7106 2.72128 9.48102ZM22.0814 14.4789C21.1466 13.5441 19.9041 13.0293 18.5827 13.0293C17.2614 13.0293 16.0189 13.5441 15.0841 14.4789C14.1493 15.4137 13.6355 16.6553 13.6355 17.9769C13.6355 19.2985 14.15 20.5407 15.0842 21.4749C16.0489 22.4389 17.3156 22.9207 18.5827 22.9207C19.7166 22.9207 20.8505 22.5343 21.7676 21.7623C21.775 21.7567 21.782 21.7509 21.7888 21.7446C21.889 21.6593 21.9867 21.5695 22.0813 21.4749H22.0814C23.0155 20.5407 23.5299 19.2985 23.5299 17.9769C23.5299 16.6553 23.0155 15.413 22.0814 14.4789H22.0814ZM15.8901 21.4364C16.2611 20.2708 17.3441 19.471 18.5835 19.471C19.8228 19.471 20.9039 20.2705 21.2764 21.4356C19.6986 22.6646 17.4679 22.6649 15.8901 21.4364ZM17.1265 17.4533C17.1265 16.6507 17.7801 15.9977 18.5835 15.9977C19.3868 15.9977 20.0391 16.6507 20.0391 17.4533C20.0391 18.256 19.3861 18.909 18.5835 18.909C17.7808 18.909 17.1265 18.256 17.1265 17.4533ZM21.7282 21.0321C21.3645 20.1264 20.632 19.433 19.7337 19.1096C20.2575 18.7448 20.6011 18.1386 20.6011 17.4533C20.6011 16.3408 19.696 15.4356 18.5835 15.4356C17.4709 15.4356 16.5645 16.3408 16.5645 17.4533C16.5645 18.1386 16.9083 18.7447 17.4324 19.1096C16.5334 19.4331 15.801 20.1267 15.438 21.0328C14.6378 20.21 14.1976 19.1275 14.1976 17.9769C14.1976 16.8054 14.6536 15.7043 15.4816 14.8763C16.3096 14.0483 17.4116 13.5913 18.5828 13.5913C19.754 13.5913 20.8554 14.0477 21.684 14.8763C22.5126 15.705 22.968 16.8054 22.968 17.9769C22.968 19.1271 22.528 20.2094 21.7282 21.0321ZM14.2536 8.91425C14.5072 9.1678 14.8703 9.24013 15.2015 9.10292C15.5324 8.96586 15.7379 8.65808 15.7379 8.29963V6.93828H18.1722V10.0655C18.1722 10.8674 18.824 11.5198 19.6252 11.5198C20.4263 11.5198 21.0781 10.8674 21.0781 10.0655V5.48539C21.0781 4.68421 20.4263 4.03241 19.6252 4.03241H15.7379V2.6698C15.7379 2.31168 15.5322 2.00399 15.201 1.86683C14.87 1.72972 14.507 1.80182 14.2536 2.05522L11.4399 4.87021C11.2756 5.03357 11.185 5.25144 11.1847 5.48366C11.1843 5.71653 11.2748 5.93544 11.4394 6.10002L14.2537 8.9143L14.2536 8.91425ZM11.8368 5.26813L14.6511 2.45258C14.7857 2.31791 14.9415 2.3676 14.986 2.38607C15.0305 2.40454 15.1759 2.47949 15.1759 2.66975V4.31338C15.1759 4.46858 15.3017 4.59439 15.4569 4.59439H19.6252C20.1164 4.59439 20.5161 4.99405 20.5161 5.4853V10.0655C20.5161 10.5575 20.1164 10.9577 19.6252 10.9577C19.1339 10.9577 18.7342 10.5575 18.7342 10.0655V6.65722C18.7342 6.50202 18.6084 6.37621 18.4532 6.37621H15.4569C15.3017 6.37621 15.1759 6.50202 15.1759 6.65722V8.29958C15.1759 8.49027 15.0308 8.56522 14.9864 8.5836C14.9419 8.60202 14.7861 8.65175 14.6511 8.51675L11.8368 5.70247C11.7786 5.64425 11.7466 5.56682 11.7467 5.48436C11.7468 5.40257 11.7787 5.32597 11.8369 5.26808L11.8368 5.26813ZM9.744 15.0848C9.49045 14.8313 9.12726 14.7589 8.79619 14.8961C8.4653 15.0332 8.25975 15.341 8.25975 15.6994V17.0607H5.82548V13.9322C5.82548 13.131 5.17369 12.4792 4.3725 12.4792C3.57131 12.4792 2.91951 13.131 2.91951 13.9322V18.5136C2.91951 19.3148 3.57131 19.9666 4.3725 19.9666H8.25975V21.328C8.25975 21.6871 8.46572 21.9952 8.79731 22.1322C8.90789 22.1779 9.02198 22.2002 9.13434 22.2002C9.35845 22.2002 9.57567 22.1115 9.744 21.9425L12.5577 19.1289C12.722 18.9656 12.8127 18.7477 12.813 18.5155C12.8133 18.2826 12.7229 18.0637 12.5583 17.8991L9.744 15.0848ZM12.1609 18.7309L9.34622 21.5455C9.21169 21.6805 9.05634 21.6311 9.01195 21.6128C8.96733 21.5944 8.82183 21.5194 8.82183 21.328V19.6856C8.82183 19.5304 8.69601 19.4046 8.54081 19.4046H4.3725C3.88125 19.4046 3.48159 19.0049 3.48159 18.5137V13.9322C3.48159 13.441 3.88125 13.0413 4.3725 13.0413C4.86375 13.0413 5.2634 13.4409 5.2634 13.9322V17.3418C5.2634 17.497 5.38922 17.6228 5.54442 17.6228H8.54072C8.69592 17.6228 8.82173 17.497 8.82173 17.3418V15.6995C8.82173 15.5087 8.96676 15.4338 9.0112 15.4154C9.05573 15.397 9.2115 15.3473 9.3465 15.4822L12.1608 18.2965C12.219 18.3547 12.251 18.4322 12.2509 18.5147C12.2508 18.5965 12.219 18.6731 12.1608 18.7309L12.1609 18.7309Z" fill="#4D5BA4"/>
</g>
</svg>
