<svg width="61" height="60" viewBox="0 0 61 60" fill="none" xmlns="http://www.w3.org/2000/svg">
<g id="fi_3126647" clip-path="url(#clip0_3128_74447)">
<g id="Group">
<path id="Vector" d="M30.5 24.2148C36.1307 24.2148 40.6953 19.6502 40.6953 14.0195C40.6953 8.38882 36.1307 3.82422 30.5 3.82422C24.8693 3.82422 20.3047 8.38882 20.3047 14.0195C20.3047 19.6502 24.8693 24.2148 30.5 24.2148Z" fill="#0097DA"/>
<path id="Vector_2" d="M51.125 24.2148C54.6846 24.2148 57.5703 21.3292 57.5703 17.7695C57.5703 14.2099 54.6846 11.3242 51.125 11.3242C47.5654 11.3242 44.6797 14.2099 44.6797 17.7695C44.6797 21.3292 47.5654 24.2148 51.125 24.2148Z" fill="#0097DA"/>
<path id="Vector_3" d="M9.875 24.2148C13.4346 24.2148 16.3203 21.3292 16.3203 17.7695C16.3203 14.2099 13.4346 11.3242 9.875 11.3242C6.31535 11.3242 3.42969 14.2099 3.42969 17.7695C3.42969 21.3292 6.31535 24.2148 9.875 24.2148Z" fill="#0097DA"/>
<path id="Vector_4" d="M16.2254 30.0031C13.6883 27.9244 11.3906 28.1996 8.45703 28.1996C4.06953 28.1996 0.5 31.748 0.5 36.1085V48.9066C0.5 50.8003 2.0457 52.3402 3.94648 52.3402C12.1527 52.3402 11.1641 52.4887 11.1641 51.9863C11.1641 42.9176 10.0899 36.2671 16.2254 30.0031Z" fill="#0097DA"/>
<path id="Vector_5" d="M33.2902 28.2457C28.1663 27.8183 23.7126 28.2506 19.8711 31.4215C13.4425 36.5707 14.6797 43.5039 14.6797 51.9855C14.6797 54.2296 16.5054 56.0895 18.7836 56.0895C43.5197 56.0895 44.5042 56.8874 45.9711 53.6391C46.4521 52.5405 46.3203 52.8896 46.3203 42.3809C46.3203 34.0341 39.093 28.2457 33.2902 28.2457Z" fill="#0097DA"/>
<path id="Vector_6" d="M52.543 28.1993C49.5933 28.1993 47.3083 27.9269 44.7746 30.0028C50.8642 36.2203 49.8359 42.417 49.8359 51.986C49.8359 52.4915 49.0153 52.3399 56.9305 52.3399C58.8992 52.3399 60.5 50.745 60.5 48.7844V36.1082C60.5 31.7477 56.9305 28.1993 52.543 28.1993Z" fill="#0097DA"/>
</g>
</g>
<defs>
<clipPath id="clip0_3128_74447">
<rect width="60" height="60" fill="white" transform="translate(0.5)"/>
</clipPath>
</defs>
</svg>
