<svg width="32" height="32" viewBox="0 0 32 32" fill="none" xmlns="http://www.w3.org/2000/svg">
<g id="fi_337946">
<path id="Vector" d="M8 0C6.9 0 6 0.9 6 2V30C6 31.1 6.9 32 8 32H28C29.1 32 30 31.1 30 30V8L22 0H8Z" fill="#E2E5E7"/>
<path id="Vector_2" d="M24 8H30L22 0V6C22 7.1 22.9 8 24 8Z" fill="#B0B7BD"/>
<path id="Vector_3" d="M30 14L24 8H30V14Z" fill="#CAD1D8"/>
<path id="Vector_4" d="M26 26C26 26.55 25.55 27 25 27H3C2.45 27 2 26.55 2 26V16C2 15.45 2.45 15 3 15H25C25.55 15 26 15.45 26 16V26Z" fill="#F15642"/>
<g id="Group">
<path id="Vector_5" d="M6.35938 18.9465C6.35938 18.6825 6.56737 18.3945 6.90237 18.3945H8.74937C9.78937 18.3945 10.7254 19.0905 10.7254 20.4245C10.7254 21.6885 9.78937 22.3925 8.74937 22.3925H7.41437V23.4485C7.41437 23.8005 7.19037 23.9995 6.90237 23.9995C6.63837 23.9995 6.35938 23.8005 6.35938 23.4485V18.9465ZM7.41437 19.4015V21.3935H8.74937C9.28537 21.3935 9.70937 20.9205 9.70937 20.4245C9.70937 19.8655 9.28537 19.4015 8.74937 19.4015H7.41437Z" fill="white"/>
<path id="Vector_6" d="M12.2913 23.9998C12.0273 23.9998 11.7393 23.8558 11.7393 23.5048V18.9628C11.7393 18.6758 12.0273 18.4668 12.2913 18.4668H14.1223C17.7763 18.4668 17.6963 23.9998 14.1943 23.9998H12.2913ZM12.7953 19.4428V23.0248H14.1223C16.2813 23.0248 16.3773 19.4428 14.1223 19.4428H12.7953Z" fill="white"/>
<path id="Vector_7" d="M18.9923 19.5058V20.7768H21.0313C21.3193 20.7768 21.6073 21.0648 21.6073 21.3438C21.6073 21.6078 21.3193 21.8238 21.0313 21.8238H18.9923V23.5028C18.9923 23.7828 18.7933 23.9978 18.5133 23.9978C18.1613 23.9978 17.9463 23.7828 17.9463 23.5028V18.9608C17.9463 18.6738 18.1623 18.4648 18.5133 18.4648H21.3203C21.6723 18.4648 21.8803 18.6738 21.8803 18.9608C21.8803 19.2168 21.6723 19.5048 21.3203 19.5048H18.9923V19.5058Z" fill="white"/>
</g>
<path id="Vector_8" d="M25 27H6V28H25C25.55 28 26 27.55 26 27V26C26 26.55 25.55 27 25 27Z" fill="#CAD1D8"/>
</g>
</svg>
