<svg width="24" height="24" viewBox="0 0 24 24" fill="none" xmlns="http://www.w3.org/2000/svg">
<g id="fi_13271608">
<g id="Group">
<g id="Group_2">
<path id="Vector" d="M19.875 5.99805H17.1094C16.9152 5.99805 16.7578 6.15541 16.7578 6.34961C16.7578 6.54381 16.9152 6.70117 17.1094 6.70117H19.875C20.0692 6.70117 20.2266 6.54381 20.2266 6.34961C20.2266 6.15541 20.0692 5.99805 19.875 5.99805Z" fill="#4D5BA4"/>
<path id="Vector_2" d="M19.875 7.4043H17.1094C16.9152 7.4043 16.7578 7.56166 16.7578 7.75586C16.7578 7.95006 16.9152 8.10742 17.1094 8.10742H19.875C20.0692 8.10742 20.2266 7.95006 20.2266 7.75586C20.2266 7.56166 20.0692 7.4043 19.875 7.4043Z" fill="#4D5BA4"/>
<path id="Vector_3" d="M19.875 8.81055H17.1094C16.9152 8.81055 16.7578 8.96791 16.7578 9.16211C16.7578 9.35631 16.9152 9.51367 17.1094 9.51367H19.875C20.0692 9.51367 20.2266 9.35631 20.2266 9.16211C20.2266 8.96791 20.0692 8.81055 19.875 8.81055Z" fill="#4D5BA4"/>
<path id="Vector_4" d="M6.59516 7.25834C6.66379 7.32697 6.75379 7.36128 6.84374 7.36128C6.93369 7.36128 7.02369 7.32697 7.09232 7.25834C7.22961 7.121 7.22961 6.89844 7.09232 6.76114L6.15482 5.82364C6.01752 5.68639 5.79491 5.68639 5.65766 5.82364L4.72016 6.76114C4.58286 6.89848 4.58286 7.12105 4.72016 7.25834C4.85746 7.39559 5.08007 7.39559 5.21732 7.25834L5.55468 6.92098V12.9688L5.21732 12.6315C5.08002 12.4942 4.85741 12.4942 4.72016 12.6315C4.58286 12.7688 4.58286 12.9914 4.72016 13.1287L5.65766 14.0662C5.72629 14.1348 5.81629 14.1691 5.90624 14.1691C5.99619 14.1691 6.08619 14.1348 6.15482 14.0662L7.09232 13.1287C7.22961 12.9913 7.22961 12.7688 7.09232 12.6315C6.95502 12.4942 6.73241 12.4942 6.59516 12.6315L6.2578 12.9688V6.92098L6.59516 7.25834Z" fill="#4D5BA4"/>
<path id="Vector_5" d="M1.40625 3.33984V15.8292C1.40625 16.1523 1.66908 16.4151 1.99219 16.4151H22.0078C22.3309 16.4151 22.5938 16.1523 22.5938 15.8292V3.33984C22.5938 3.01673 22.3309 2.75391 22.0078 2.75391H1.99219C1.66908 2.75391 1.40625 3.01678 1.40625 3.33984ZM2.10938 15.712V4.84153H3.16406V15.712H2.10938ZM3.86719 15.712V4.84148H21.8906V15.712H3.86719ZM2.10938 3.45703H21.8906V4.13831H2.10938V3.45703Z" fill="#4D5BA4"/>
<path id="Vector_6" d="M19.6406 10.5684H17.3438C17.0206 10.5684 16.7578 10.8312 16.7578 11.1543V13.123C16.7578 13.4462 17.0206 13.709 17.3438 13.709H19.6406C19.9637 13.709 20.2266 13.4462 20.2266 13.123V11.1543C20.2266 10.8312 19.9637 10.5684 19.6406 10.5684ZM19.5234 13.0059H17.4609V11.2715H19.5234V13.0059Z" fill="#4D5BA4"/>
<path id="Vector_7" d="M22.0078 1.34766H20.0156C19.8215 1.34766 19.6641 1.50502 19.6641 1.69922C19.6641 1.89342 19.8215 2.05078 20.0156 2.05078H22.0078C22.7186 2.05078 23.2969 2.62908 23.2969 3.33984V15.8292C23.2969 16.5399 22.7186 17.1182 22.0078 17.1182H1.99219C1.28138 17.1182 0.703125 16.5399 0.703125 15.8292V3.33984C0.703125 2.62908 1.28138 2.05078 1.99219 2.05078H18.375C18.5692 2.05078 18.7266 1.89342 18.7266 1.69922C18.7266 1.50502 18.5692 1.34766 18.375 1.34766H1.99219C0.893672 1.34766 0 2.24133 0 3.33984V15.8292C0 16.9277 0.893672 17.8214 1.99219 17.8214H8.88281V20.2165H8.39062C8.19647 20.2165 8.03906 20.3738 8.03906 20.568C8.03906 20.7623 8.19647 20.9196 8.39062 20.9196H18.4688C18.5333 20.9196 18.5859 20.9722 18.5859 21.0368V21.8337C18.5859 21.8983 18.5333 21.9509 18.4688 21.9509H5.53125C5.46666 21.9509 5.41406 21.8983 5.41406 21.8337V21.0368C5.41406 20.9722 5.46666 20.9196 5.53125 20.9196H6.75C6.94416 20.9196 7.10156 20.7623 7.10156 20.568C7.10156 20.3738 6.94416 20.2165 6.75 20.2165H5.53125C5.07895 20.2165 4.71094 20.5845 4.71094 21.0368V21.8337C4.71094 22.286 5.07895 22.654 5.53125 22.654H18.4688C18.921 22.654 19.2891 22.286 19.2891 21.8337V21.0368C19.2891 20.5845 18.921 20.2165 18.4688 20.2165H15.1172V17.8214H22.0078C23.1063 17.8214 24 16.9277 24 15.8292V3.33984C24 2.24137 23.1063 1.34766 22.0078 1.34766ZM14.4141 20.2165H9.58594V17.8214H14.4141V20.2165Z" fill="#4D5BA4"/>
<path id="Vector_8" d="M14.4375 6.35938H8.90625C8.45395 6.35938 8.08594 6.72739 8.08594 7.17969V9.00083C8.08594 9.19503 8.24334 9.35239 8.4375 9.35239C8.63166 9.35239 8.78906 9.19503 8.78906 9.00083V7.17969C8.78906 7.11505 8.84166 7.0625 8.90625 7.0625H14.4375C14.5021 7.0625 14.5547 7.11505 14.5547 7.17969V12.7109C14.5547 12.7756 14.5021 12.8281 14.4375 12.8281H8.90625C8.84166 12.8281 8.78906 12.7756 8.78906 12.7109V10.6415C8.78906 10.4472 8.63166 10.2899 8.4375 10.2899C8.24334 10.2899 8.08594 10.4472 8.08594 10.6415V12.7109C8.08594 13.1632 8.45395 13.5312 8.90625 13.5312H14.4375C14.8898 13.5312 15.2578 13.1632 15.2578 12.7109V7.17969C15.2578 6.72739 14.8898 6.35938 14.4375 6.35938Z" fill="#4D5BA4"/>
</g>
</g>
</g>
</svg>
