<?xml version="1.0" encoding="UTF-8"?>
<svg version="1.1" xmlns="http://www.w3.org/2000/svg" width="1690" height="749">
<path d="M0 0 C557.7 0 1115.4 0 1690 0 C1690 247.17 1690 494.34 1690 749 C1132.3 749 574.6 749 0 749 C0 501.83 0 254.66 0 0 Z " fill="#070707" transform="translate(0,0)"/>
<path d="M0 0 C18.81 0 37.62 0 57 0 C57.33 35.97 57.66 71.94 58 109 C61.88652344 101.21535156 65.77304687 93.43070312 69.77734375 85.41015625 C72.54562354 79.86784105 75.31415465 74.32565195 78.08305073 68.78364468 C81.67426247 61.59567005 85.26487047 54.40739587 88.85327148 47.21801758 C91.69339855 41.52781438 94.53491837 35.8383093 97.37813193 30.14964765 C98.88434838 27.13590802 100.38985214 24.12181701 101.89369011 21.10688972 C103.57043149 17.74619787 105.24963159 14.38674584 106.92944336 11.02758789 C107.68146027 9.51816116 107.68146027 9.51816116 108.44866943 7.97824097 C108.90440842 7.06813766 109.3601474 6.15803436 109.82969666 5.22035217 C110.42563582 4.02709116 110.42563582 4.02709116 111.03361416 2.80972385 C112 1 112 1 113 0 C114.7492872 -0.09365006 116.50236254 -0.11744438 118.25415039 -0.11352539 C119.37523697 -0.11344986 120.49632355 -0.11337433 121.65138245 -0.11329651 C123.48103798 -0.10555458 123.48103798 -0.10555458 125.34765625 -0.09765625 C127.2100016 -0.09553383 127.2100016 -0.09553383 129.10997009 -0.09336853 C132.41605491 -0.08870591 135.72207146 -0.07971497 139.02813721 -0.06866455 C142.3996115 -0.05844827 145.77109283 -0.05387045 149.14257812 -0.04882812 C155.76173775 -0.03777395 162.38086493 -0.02101736 169 0 C167.60844624 4.44429326 165.88745059 8.58182856 163.90234375 12.79296875 C163.59638275 13.44371872 163.29042175 14.09446869 162.97518921 14.76493835 C161.96624825 16.90752209 160.95205611 19.04757009 159.9375 21.1875 C159.22217557 22.70260189 158.50692629 24.21773926 157.79174805 25.73291016 C152.35720087 37.22548195 146.80967752 48.66179461 141.23324585 60.08602905 C135.92497015 70.96493123 130.75267683 81.89489166 125.6887207 92.88989258 C121.36417465 102.26531201 116.90849693 111.57159967 112.39941406 120.859375 C111.40215059 122.91651041 110.41069537 124.97647427 109.42578125 127.03955078 C108.46778086 129.02871391 107.48550072 131.00634869 106.48046875 132.97216797 C106.01253906 133.91850098 105.54460937 134.86483398 105.0625 135.83984375 C104.64097656 136.66734131 104.21945312 137.49483887 103.78515625 138.34741211 C101.93393765 144.6016068 104.76261001 150.54011796 107.11328125 156.296875 C107.43469589 157.10240814 107.75611053 157.90794128 108.08726501 158.73788452 C108.78718629 160.48955083 109.49061344 162.23981946 110.19714355 163.98883057 C111.73183719 167.78810853 113.24963052 171.59407218 114.76882935 175.39956665 C115.58000584 177.43082893 116.39209761 179.46172591 117.20504761 181.49227905 C121.51381987 192.2594328 125.74514999 203.05659851 129.9710083 213.85650635 C132.07903642 219.24362224 134.18990842 224.62962327 136.30078125 230.015625 C136.70395569 231.04450836 137.10713013 232.07339172 137.52252197 233.13345337 C141.65166854 243.66810335 145.79875509 254.19566855 149.95605469 264.71923828 C152.18825253 270.37521784 154.40325516 276.03654861 156.578125 281.71484375 C159.10078816 288.29466104 161.73472523 294.82662566 164.40039062 301.34960938 C164.73876953 302.18685547 165.07714844 303.02410156 165.42578125 303.88671875 C165.72911377 304.63139404 166.03244629 305.37606934 166.3449707 306.14331055 C167 308 167 308 167 310 C145.55 310 124.1 310 102 310 C98.8786745 303.75734901 96.14662185 298.13974769 94 291.625 C92.44646 286.96438 90.77591763 282.40238547 88.85546875 277.87890625 C84.32660882 267.14295365 80.3098266 256.19753808 76.17016602 245.30737305 C70.27248188 229.80268186 64.16217948 214.40544869 58 199 C57.67 217.48 57.34 235.96 57 255 C50.4 256.98 43.8 258.96 37 261 C32.4630999 262.53184511 27.94520138 264.07699799 23.4375 265.6875 C21.31249131 266.44504423 19.18619723 267.19899303 17.05859375 267.94921875 C16.15423584 268.27237061 15.24987793 268.59552246 14.31811523 268.9284668 C9.59630182 270.45330228 4.78708042 271.69443261 0 273 C0 182.91 0 92.82 0 0 Z " fill="#D0A87F" transform="translate(507,236)"/>
<path d="M0 0 C4.47565172 3.61353592 5.94374461 8.12600478 7.93359375 13.33984375 C8.29340836 14.25778214 8.65322296 15.17572052 9.02394104 16.12147522 C10.17168495 19.05640547 11.30473965 21.99675868 12.4375 24.9375 C13.19500664 26.88123257 13.95346092 28.82459611 14.71289062 30.76757812 C17.75809787 38.57142788 20.76737886 46.38894905 23.765625 54.2109375 C26.22709048 60.62454157 28.80171729 66.99055776 31.40039062 73.34960938 C31.73876953 74.18685547 32.07714844 75.02410156 32.42578125 75.88671875 C32.72911377 76.63139404 33.03244629 77.37606934 33.3449707 78.14331055 C34 80 34 80 34 82 C12.55 82 -8.9 82 -31 82 C-34.1213255 75.75734901 -36.85337815 70.13974769 -39 63.625 C-40.94472727 57.79081818 -43.17053505 52.137717 -45.55957031 46.47070312 C-48.13542118 40.26421229 -50.56734681 34.00216796 -52.98632812 27.7331543 C-53.58560264 26.18508335 -54.1888847 24.63855858 -54.79589844 23.09350586 C-55.68282682 20.8352461 -56.55757063 18.57260788 -57.4296875 16.30859375 C-57.70352264 15.61801376 -57.97735779 14.92743378 -58.25949097 14.21592712 C-60.11408832 9.34226495 -60.11408832 9.34226495 -59 6 C-57.68 9.3 -56.36 12.6 -55 16 C-50.71250542 15.61022777 -46.85858217 15.05973247 -42.78930664 13.6394043 C-38.15015507 12.04884656 -33.48643928 10.55438784 -28.80859375 9.08203125 C-27.56252098 8.68886971 -27.56252098 8.68886971 -26.29127502 8.2877655 C-23.67356473 7.4619943 -21.05553873 6.63722927 -18.4375 5.8125 C-16.64776536 5.24811378 -14.85805162 4.68366126 -13.06835938 4.11914062 C-8.71248062 2.74532802 -4.35631871 1.37241683 0 0 Z " fill="#F86CBE" transform="translate(640,464)"/>
<path d="M0 0 C18.81 0 37.62 0 57 0 C57.08021762 15.85189276 57.08021762 15.85189276 57.09765625 22.60351562 C57.10961671 27.21236774 57.1237734 31.82114047 57.15087891 36.42993164 C57.17259291 40.14520323 57.18456556 43.86038969 57.18975449 47.57571983 C57.19345285 48.99391711 57.20067475 50.41210968 57.21146011 51.83027077 C57.22595502 53.81494233 57.22681675 55.79969935 57.22705078 57.78442383 C57.231492 58.91471512 57.23593323 60.04500641 57.24050903 61.20954895 C57 64 57 64 55 67 C52.61743164 67.9831543 52.61743164 67.9831543 49.66015625 68.82421875 C48.59732422 69.13037109 47.53449219 69.43652344 46.43945312 69.75195312 C44.76786133 70.21504883 44.76786133 70.21504883 43.0625 70.6875 C41.95197266 71.00783203 40.84144531 71.32816406 39.69726562 71.65820312 C31.45354144 74 31.45354144 74 28 74 C27.67 74.66 27.34 75.32 27 76 C24.7421875 76.81640625 24.7421875 76.81640625 21.875 77.5625 C20.885 77.8203125 19.895 78.078125 18.875 78.34375 C16.52788638 78.8795042 14.26198303 79.28401865 11.875 79.5625 C10.451875 79.7790625 10.451875 79.7790625 9 80 C8.505 80.99 8.505 80.99 8 82 C5.67843403 82.40729228 3.3431213 82.74438677 1 83 C-0.20593962 66.35205117 -0.12013529 49.70716862 -0.06866455 33.02740479 C-0.05826914 29.29236437 -0.0537773 25.55731657 -0.04882812 21.82226562 C-0.03877266 14.5481399 -0.01918171 7.27413 0 0 Z " fill="#6DC6C1" transform="translate(507,236)"/>
<path d="M0 0 C0.33 2.64 0.66 5.28 1 8 C1.66386719 7.51789063 2.32773437 7.03578125 3.01171875 6.5390625 C3.89472656 5.90742188 4.77773438 5.27578125 5.6875 4.625 C6.55761719 3.99851562 7.42773438 3.37203125 8.32421875 2.7265625 C13.27849843 -0.47021359 17.03455047 -1.29327215 22.9375 -1.3125 C24.71447266 -1.33763672 24.71447266 -1.33763672 26.52734375 -1.36328125 C30.35206034 -0.96317029 32.73577507 -0.00142258 36 2 C39 6.1 39 6.1 39 9 C39.64066406 8.52949219 40.28132812 8.05898438 40.94140625 7.57421875 C50.76591428 0.50232996 57.76204746 -2.03662657 70 -1 C74.31922699 -0.12742889 76.5596459 1.45535151 79.375 4.9375 C81.5314318 9.00154454 82.12138423 12.15131588 82.15771484 16.72094727 C82.16797699 17.65193741 82.17823914 18.58292755 82.18881226 19.54212952 C82.19611359 20.54014084 82.20341492 21.53815216 82.2109375 22.56640625 C82.23899065 24.68164857 82.26765499 26.79688285 82.296875 28.91210938 C82.33824001 32.24568589 82.37513072 35.57910983 82.40136719 38.9128418 C82.4288871 42.13101038 82.47473974 45.34849797 82.5234375 48.56640625 C82.52669037 49.5664418 82.52994324 50.56647736 82.53329468 51.59681702 C82.54986115 52.524655 82.56642761 53.45249298 82.58349609 54.40844727 C82.59158295 55.22467056 82.5996698 56.04089386 82.60800171 56.8818512 C83.09658479 59.52189247 83.89091021 60.38082818 86 62 C87.485 62.495 87.485 62.495 89 63 C89 63.99 89 64.98 89 66 C78.77 66 68.54 66 58 66 C58.495 64.02 58.495 64.02 59 62 C59.99 61.67 60.98 61.34 62 61 C63.19585473 58.60829054 63.14567565 57.08489372 63.17700195 54.41430664 C63.18983719 53.46314468 63.20267242 52.51198273 63.21589661 51.53199768 C63.22328354 50.50179001 63.23067047 49.47158234 63.23828125 48.41015625 C63.25038887 46.82695839 63.25038887 46.82695839 63.26274109 45.21177673 C63.27658576 42.97656907 63.2873062 40.74134023 63.29516602 38.50610352 C63.31241273 35.07983716 63.35630003 31.65452709 63.40039062 28.22851562 C63.41051427 26.05990295 63.4190314 23.89128205 63.42578125 21.72265625 C63.45204338 20.18038109 63.45204338 20.18038109 63.47883606 18.60694885 C63.47591049 17.65263474 63.47298492 16.69832062 63.4699707 15.71508789 C63.47877007 14.45505699 63.47877007 14.45505699 63.48774719 13.16957092 C63.17637889 10.83097805 63.17637889 10.83097805 61.10270691 9.23240662 C57.50063141 7.12121287 54.04478771 7.36778948 50 8 C46.68425928 9.31030199 43.65261909 10.69476182 42 14 C41.91362463 15.46520953 41.88996911 16.93437367 41.89892578 18.40209961 C41.90486252 19.76878029 41.90486252 19.76878029 41.91091919 21.16307068 C41.95877021 25.32201242 42.00860079 29.48074305 42.07714844 33.6394043 C42.10902163 35.83621508 42.13019947 38.03320735 42.140625 40.23022461 C42.15581829 43.39256579 42.20315934 46.5529678 42.2578125 49.71484375 C42.25701691 50.69927963 42.25622131 51.68371552 42.25540161 52.69798279 C42.31885787 55.23468235 42.40105686 57.53383992 43 60 C45.40658681 62.01639959 45.40658681 62.01639959 48 63 C48 63.99 48 64.98 48 66 C37.77 66 27.54 66 17 66 C17.495 64.02 17.495 64.02 18 62 C18.834104 61.63841797 19.66820801 61.27683594 20.52758789 60.90429688 C23.16536628 59.29352008 23.16536628 59.29352008 23.45675659 56.94360352 C23.61415867 54.12794883 23.61349358 51.35088514 23.55859375 48.53125 C23.55626236 47.49939575 23.55393097 46.4675415 23.55152893 45.40441895 C23.54178268 43.2221653 23.5199756 41.03993732 23.48706055 38.85791016 C23.43769138 35.51296648 23.42558349 32.16949366 23.41992188 28.82421875 C23.40583468 26.70571348 23.38962985 24.58722101 23.37109375 22.46875 C23.36573105 21.46557739 23.36036835 20.46240479 23.35484314 19.42883301 C23.33885574 18.49776733 23.32286835 17.56670166 23.30639648 16.60742188 C23.29575668 15.78818237 23.28511688 14.96894287 23.27415466 14.12487793 C23.12117853 11.70112487 23.12117853 11.70112487 21 9 C16.62374452 7.54124817 12.26980716 6.9887435 7.9921875 8.89453125 C6.30582304 9.89294368 4.65064834 10.94358506 3 12 C2.34 12 1.68 12 1 12 C0.99091708 18.62087483 1.02815968 25.24032649 1.09765625 31.86083984 C1.11582715 34.11305763 1.12338279 36.36538706 1.12011719 38.61767578 C1.11726333 41.85537265 1.15254593 45.09074915 1.1953125 48.328125 C1.18621857 49.33554749 1.17712463 50.34296997 1.16775513 51.38092041 C1.22343179 54.05746949 1.31404145 56.41151288 2 59 C4.89713823 61.52818029 4.89713823 61.52818029 8 63 C8 63.99 8 64.98 8 66 C-2.56 66 -13.12 66 -24 66 C-23.67 64.68 -23.34 63.36 -23 62 C-20.525 61.505 -20.525 61.505 -18 61 C-17.94941271 54.05829978 -17.91431421 47.11664685 -17.89013672 40.17480469 C-17.88006076 37.81183089 -17.86639971 35.44886961 -17.84912109 33.0859375 C-17.82494276 29.69528112 -17.81353301 26.30478916 -17.8046875 22.9140625 C-17.79436493 21.85256989 -17.78404236 20.79107727 -17.77340698 19.69741821 C-17.77325592 18.71655243 -17.77310486 17.73568665 -17.77294922 16.72509766 C-17.768508 15.85905914 -17.76406677 14.99302063 -17.75949097 14.10073853 C-17.80442816 11.78084656 -17.80442816 11.78084656 -20 10 C-22.06874034 9.3574765 -22.06874034 9.3574765 -24 9 C-24 8.01 -24 7.02 -24 6 C-20.94526337 4.79181336 -17.88023936 3.61223608 -14.8125 2.4375 C-13.94818359 2.09525391 -13.08386719 1.75300781 -12.19335938 1.40039062 C-10.93168945 0.92182617 -10.93168945 0.92182617 -9.64453125 0.43359375 C-8.87471924 0.13509521 -8.10490723 -0.16340332 -7.31176758 -0.47094727 C-4.57118987 -1.09813408 -2.69250355 -0.71841742 0 0 Z " fill="#F0868C" transform="translate(867,352)"/>
<path d="M0 0 C0.33 11.88 0.66 23.76 1 36 C4.63 33.69 8.26 31.38 12 29 C17.21922755 26.39038623 25.96733603 27.36515016 31.59375 28.54296875 C36.7561519 30.65756799 38.6384995 34.31910618 40.96105957 39.1862793 C42.65684715 43.7789128 42.70804925 48.11645312 42.671875 52.96875 C42.68462463 53.97087524 42.69737427 54.97300049 42.71051025 56.00549316 C42.74652398 59.17062433 42.74951734 62.33468296 42.75 65.5 C42.77162305 68.69348352 42.80003134 71.88680784 42.83233643 75.0802002 C42.85009003 77.05890584 42.86038033 79.03769532 42.86248779 81.01647949 C42.86629456 81.9050061 42.87010132 82.79353271 42.87402344 83.70898438 C42.87448669 84.49156616 42.87494995 85.27414795 42.87542725 86.08044434 C42.88075859 88.08514328 42.88075859 88.08514328 44 90 C46.01669827 91.13350534 46.01669827 91.13350534 48 92 C48 92.99 48 93.98 48 95 C37.77 95 27.54 95 17 95 C17.495 93.02 17.495 93.02 18 91 C19.98 90.505 19.98 90.505 22 90 C22.05058332 82.7734678 22.08568412 75.54698101 22.10986328 68.3203125 C22.11993983 65.86033421 22.13360131 63.40036794 22.15087891 60.94042969 C22.17505461 57.41077715 22.1864664 53.88128253 22.1953125 50.3515625 C22.20563507 49.24632233 22.21595764 48.14108215 22.22659302 47.00234985 C22.22674408 45.98144257 22.22689514 44.96053528 22.22705078 43.90869141 C22.23371262 42.55633896 22.23371262 42.55633896 22.24050903 41.17666626 C22.20631138 38.78953084 22.20631138 38.78953084 20 37 C17.83592836 36.64127493 17.83592836 36.64127493 15.375 36.6875 C14.55773438 36.67074219 13.74046875 36.65398437 12.8984375 36.63671875 C10.23504454 36.97054024 8.30012446 37.56284023 5.81884766 38.52270508 C5.10250153 38.79786453 4.3861554 39.07302399 3.64810181 39.35652161 C3.10422821 39.56886948 2.56035461 39.78121735 2 40 C1.87340714 46.92322302 1.78573635 53.84614862 1.7253418 60.77026367 C1.7001701 63.12649692 1.66603007 65.48265188 1.62280273 67.83862305 C1.56227015 71.22203866 1.53381655 74.60442372 1.51171875 77.98828125 C1.48591232 79.04461258 1.4601059 80.10094391 1.43351746 81.18928528 C1.43247838 83.88782634 1.45280399 86.3572058 2 89 C4.3804138 91.0744315 4.3804138 91.0744315 7 92 C7 92.99 7 93.98 7 95 C-3.56 95 -14.12 95 -25 95 C-25 94.01 -25 93.02 -25 92 C-24.02568527 91.43229385 -23.05137054 90.86458771 -22.04753113 90.27967834 C-18.67541192 88.27293025 -18.67541192 88.27293025 -18.24482727 84.61595154 C-18.21232746 83.25273605 -18.21282219 81.8884883 -18.23950195 80.52514648 C-18.22614052 79.40496124 -18.22614052 79.40496124 -18.21250916 78.262146 C-18.19122531 75.79756895 -18.21352741 73.33560641 -18.23828125 70.87109375 C-18.23677896 69.15763583 -18.23334925 67.44417861 -18.22807312 65.73072815 C-18.22374146 62.14183324 -18.24058193 58.55383683 -18.27270508 54.96508789 C-18.31251752 50.36211766 -18.30317635 45.76082937 -18.27847004 41.15780544 C-18.26429751 37.62069373 -18.27436451 34.08397595 -18.29198265 30.54689217 C-18.29783717 28.84960941 -18.29652313 27.15228643 -18.28795815 25.45501518 C-18.2799778 23.08424947 -18.30417048 20.71596119 -18.3371582 18.34545898 C-18.32860809 17.64252213 -18.32005798 16.93958527 -18.31124878 16.21534729 C-18.30855393 14.02426539 -18.30855393 14.02426539 -19 11 C-21.45531762 9.19723968 -21.45531762 9.19723968 -24 8 C-24 7.01 -24 6.02 -24 5 C-21.95990245 4.34922704 -19.91784331 3.70460176 -17.875 3.0625 C-16.16957031 2.52302734 -16.16957031 2.52302734 -14.4296875 1.97265625 C-9.44729739 0.55965495 -5.19591701 0 0 0 Z " fill="#EC848A" transform="translate(1151,323)"/>
<path d="M0 0 C0.86044922 -0.02900391 1.72089844 -0.05800781 2.60742188 -0.08789062 C9.83379541 -0.15868404 16.01811757 1.31055369 21.46875 6.27734375 C21.9121875 6.92832031 22.355625 7.57929688 22.8125 8.25 C23.2765625 8.89839844 23.740625 9.54679687 24.21875 10.21484375 C26.85058891 15.2623348 26.50427215 20.92497608 26.59375 26.48046875 C26.62136414 27.79450432 26.62136414 27.79450432 26.64953613 29.13508606 C26.72801023 32.87208193 26.7961503 36.60924722 26.86474609 40.34643555 C26.91639224 43.07870597 26.9736458 45.8108185 27.03125 48.54296875 C27.04482544 49.39191208 27.05840088 50.24085541 27.0723877 51.11552429 C27.04916141 55.34914594 27.04916141 55.34914594 28.3125 59.3125 C30.63406597 59.71979228 32.9693787 60.05688677 35.3125 60.3125 C35.3125 61.6325 35.3125 62.9525 35.3125 64.3125 C31.57112471 68.05387529 28.56603242 68.62954116 23.3125 68.8125 C18.21287389 68.6355613 15.162756 67.86658246 11.3125 64.3125 C10.29410617 62.99316237 9.29059345 61.66198545 8.3125 60.3125 C7.37277344 61.05306641 7.37277344 61.05306641 6.4140625 61.80859375 C5.59679687 62.44925781 4.77953125 63.08992188 3.9375 63.75 C3.12539063 64.38808594 2.31328125 65.02617187 1.4765625 65.68359375 C-2.3979165 68.59994347 -5.09488453 68.53479442 -9.9375 68.625 C-11.24203125 68.66238281 -12.5465625 68.69976562 -13.890625 68.73828125 C-19.38521752 68.1221181 -22.36134019 65.78202844 -26 61.75 C-29.12689337 57.23337625 -29.5615648 52.64342988 -28.6875 47.3125 C-25.51485616 40.39036799 -19.44413871 36.36296558 -12.6875 33.3125 C-5.58375291 30.85814149 0.85485849 30.14491255 8.3125 30.3125 C8.20235294 27.06181846 8.07178788 23.81226672 7.9375 20.5625 C7.9065625 19.64210938 7.875625 18.72171875 7.84375 17.7734375 C7.78574219 16.43925781 7.78574219 16.43925781 7.7265625 15.078125 C7.6951416 14.26118164 7.6637207 13.44423828 7.63134766 12.60253906 C7.28381546 10.10648083 6.64154468 8.44629275 5.3125 6.3125 C2.90704362 5.10977181 1.36253047 5.21178528 -1.3125 5.25 C-2.12976563 5.25902344 -2.94703125 5.26804687 -3.7890625 5.27734375 C-4.41554688 5.28894531 -5.04203125 5.30054688 -5.6875 5.3125 C-7.29941164 9.4155478 -8.7355808 13.30610858 -9.625 17.625 C-10.6875 21.3125 -10.6875 21.3125 -12.375 23.3125 C-15.69676383 24.74893841 -18.1098191 24.75971011 -21.6875 24.3125 C-24.125 22.75 -24.125 22.75 -25.6875 20.3125 C-26.36092148 15.11753427 -25.69683078 11.59851656 -22.6875 7.3125 C-15.17776409 1.22506256 -9.42241672 0.10354304 0 0 Z " fill="#F37D9D" transform="translate(803.6875,350.6875)"/>
<path d="M0 0 C5.38554872 4.14353264 9.13250323 8.95985504 11.015625 15.55078125 C11.015625 20.17078125 11.015625 24.79078125 11.015625 29.55078125 C-2.514375 29.55078125 -16.044375 29.55078125 -29.984375 29.55078125 C-28.97994936 41.73883337 -28.97994936 41.73883337 -22.984375 51.55078125 C-16.53753779 55.49969863 -10.33842384 55.32312428 -2.984375 54.55078125 C0.02065887 53.61055593 2.4448129 52.35293345 5.015625 50.55078125 C5.840625 49.97328125 6.665625 49.39578125 7.515625 48.80078125 C8.010625 48.38828125 8.505625 47.97578125 9.015625 47.55078125 C9.66796875 49.3359375 9.66796875 49.3359375 10.015625 51.55078125 C6.61808022 57.90518508 -0.31019675 62.32605517 -6.984375 64.55078125 C-17.34894086 65.54146571 -28.42018526 66.22881016 -36.984375 59.55078125 C-37.6340625 59.05449219 -38.28375 58.55820312 -38.953125 58.046875 C-45.52975596 52.26445583 -48.78935913 45.26976228 -49.5 36.59375 C-50.05727457 24.76180731 -49.02742271 15.3746722 -40.8984375 6.1953125 C-30.10089296 -4.20442777 -13.47228988 -8.13378046 0 0 Z " fill="#F28989" transform="translate(1048.984375,354.44921875)"/>
<path d="M0 0 C0.00364563 1.08106018 0.00729126 2.16212036 0.01104736 3.27593994 C0.04797094 13.45844646 0.10571464 23.64064982 0.18390274 33.82292557 C0.22343056 39.05790724 0.255593 44.29271937 0.27099609 49.52783203 C0.28612774 54.57899787 0.32051105 59.62969775 0.36830902 64.68065643 C0.38315891 66.60874128 0.39104308 68.53689264 0.39188385 70.46503448 C0.39424443 73.16371987 0.42124988 75.86110798 0.45410156 78.55957031 C0.4490712 79.35870346 0.44404083 80.15783661 0.43885803 80.98118591 C0.50647021 84.56536524 0.68159719 86.58888282 2.90911865 89.46502686 C4.91375103 91.02721102 4.91375103 91.02721102 7 92 C7 92.99 7 93.98 7 95 C-3.56 95 -14.12 95 -25 95 C-24.67 93.68 -24.34 92.36 -24 91 C-22 89.875 -22 89.875 -20 89 C-18.52011208 86.04022416 -18.86989601 83.04021991 -18.88647461 79.79638672 C-18.88632858 79.0548233 -18.88618256 78.31325989 -18.8860321 77.54922485 C-18.88673 75.09268287 -18.89451666 72.63621627 -18.90234375 70.1796875 C-18.90420837 68.4786076 -18.90563206 66.77752716 -18.90663147 65.07644653 C-18.91045322 60.59493533 -18.9202806 56.11345643 -18.93133545 51.63195801 C-18.94155692 47.0606327 -18.94613067 42.48930219 -18.95117188 37.91796875 C-18.96190315 28.94529829 -18.97897549 19.97265183 -19 11 C-20.98 10.01 -22.96 9.02 -25 8 C-25 7.01 -25 6.02 -25 5 C-19.66666667 3.66666667 -14.33333333 2.33333333 -9 1 C-8.36288086 0.81493896 -7.72576172 0.62987793 -7.06933594 0.43920898 C-4.67164517 -0.06969211 -2.44516917 -0.02831325 0 0 Z " fill="#F3878F" transform="translate(986,323)"/>
<path d="M0 0 C0.00364563 1.08106018 0.00729126 2.16212036 0.01104736 3.27593994 C0.04797094 13.45844646 0.10571464 23.64064982 0.18390274 33.82292557 C0.22343056 39.05790724 0.255593 44.29271937 0.27099609 49.52783203 C0.28612774 54.57899787 0.32051105 59.62969775 0.36830902 64.68065643 C0.38315891 66.60874128 0.39104308 68.53689264 0.39188385 70.46503448 C0.39424443 73.16371987 0.42124988 75.86110798 0.45410156 78.55957031 C0.4490712 79.35870346 0.44404083 80.15783661 0.43885803 80.98118591 C0.50647021 84.56536524 0.68159719 86.58888282 2.90911865 89.46502686 C4.91375103 91.02721102 4.91375103 91.02721102 7 92 C7 92.99 7 93.98 7 95 C-3.56 95 -14.12 95 -25 95 C-24.67 93.68 -24.34 92.36 -24 91 C-23.16608231 90.5753093 -22.33216461 90.15061859 -21.47297668 89.71305847 C-18.63289517 88.17634407 -18.63289517 88.17634407 -18.39872742 84.71601868 C-18.38423309 83.34106459 -18.39753182 81.96565345 -18.43237305 80.59106445 C-18.43164291 79.83960144 -18.43091278 79.08813843 -18.43016052 78.31390381 C-18.43364453 75.82962899 -18.47254047 73.34722849 -18.51171875 70.86328125 C-18.52104407 69.14122034 -18.52816151 67.41914617 -18.53315735 65.69706726 C-18.55224949 61.16424951 -18.60136881 56.6322327 -18.65667725 52.09973145 C-18.7078223 47.47480098 -18.73066121 42.84974111 -18.75585938 38.22460938 C-18.80948586 29.14938765 -18.89482507 20.07476042 -19 11 C-20.98 10.01 -22.96 9.02 -25 8 C-25 7.01 -25 6.02 -25 5 C-21.77330584 4.15688881 -18.54329082 3.32726132 -15.3125 2.5 C-13.94448242 2.14228516 -13.94448242 2.14228516 -12.54882812 1.77734375 C-11.21948242 1.43896484 -11.21948242 1.43896484 -9.86328125 1.09375 C-9.05157471 0.88427734 -8.23986816 0.67480469 -7.40356445 0.45898438 C-4.87873069 -0.02315757 -2.56414999 -0.03130363 0 0 Z " fill="#F3878F" transform="translate(721,323)"/>
<path d="M0 0 C0.89106445 -0.00128906 1.78212891 -0.00257813 2.70019531 -0.00390625 C9.37770944 0.10351994 14.35894104 1.19976855 20.3125 4.375 C19.9825 9.325 19.6525 14.275 19.3125 19.375 C17.9925 19.375 16.6725 19.375 15.3125 19.375 C13.49609375 16.8203125 13.49609375 16.8203125 11.75 13.5 C9.31335779 8.75215183 9.31335779 8.75215183 5.3125 5.375 C0.31134388 4.70921141 -4.22076472 4.74229066 -8.875 6.75 C-11.6430023 10.75883092 -11.09318667 14.65100414 -10.6875 19.375 C-7.61587277 21.03682909 -4.43346374 22.24167907 -1.15356445 23.42944336 C19.44553999 30.89706966 19.44553999 30.89706966 24.3125 39.375 C26.11461131 44.78133392 26.04534031 50.33076124 24.125 55.6875 C19.53986045 62.4861552 13.94106025 65.83214658 6.3125 68.375 C-3.96167433 69.23702713 -15.65584885 70.05399277 -24.6875 64.375 C-25.6875 63.375 -25.6875 63.375 -25.78515625 59.77734375 C-25.7784822 58.28903133 -25.76652183 56.80073568 -25.75 55.3125 C-25.74548828 54.55388672 -25.74097656 53.79527344 -25.73632812 53.01367188 C-25.7245068 51.13408129 -25.70657078 49.25453101 -25.6875 47.375 C-23.375 47.54296875 -23.375 47.54296875 -20.6875 48.375 C-19.0625 50.73828125 -19.0625 50.73828125 -17.6875 53.6875 C-14.93493508 59.14309783 -12.64120554 62.39043149 -6.6875 64.375 C-0.90198997 64.94220687 3.62424291 63.79399725 8.3125 60.375 C9.53664155 56.70257535 9.77809007 54.2327463 9.3125 50.375 C4.95772868 45.95229153 0.79302139 44.21429428 -5.0625 42.4375 C-13.00031221 39.82408882 -18.45547122 36.84943094 -24.1875 30.6875 C-26.89714349 24.70370395 -26.35348152 18.87243069 -24.6875 12.625 C-18.65256802 2.81823552 -11.02838539 -0.01630815 0 0 Z " fill="#F5858E" transform="translate(1094.6875,350.625)"/>
<path d="M0 0 C5.99822048 3.4681069 10.63203045 8.90632121 12.75 15.5 C13.65688267 22.5547036 13.11456704 28.7373126 8.75 34.5 C4.22231265 39.28290146 -0.15169281 42.9731623 -6.86328125 43.8359375 C-14.4297451 43.9454377 -19.64193787 42.91553707 -25.2265625 37.62890625 C-30.8467694 31.51143824 -32.75571857 26.59779648 -32.5546875 18.27734375 C-31.74547171 10.90103061 -27.82992154 6.63194088 -22.34765625 1.9453125 C-15.79678148 -2.56832561 -7.3027131 -3.21717965 0 0 Z " fill="#381738" transform="translate(1158.25,255.5)"/>
<path d="M0 0 C0.33 2.64 0.66 5.28 1 8 C1.66386719 7.51789063 2.32773437 7.03578125 3.01171875 6.5390625 C3.89472656 5.90742188 4.77773438 5.27578125 5.6875 4.625 C6.55761719 3.99851562 7.42773438 3.37203125 8.32421875 2.7265625 C13.27849843 -0.47021359 17.03455047 -1.29327215 22.9375 -1.3125 C24.71447266 -1.33763672 24.71447266 -1.33763672 26.52734375 -1.36328125 C30.41286971 -0.95680891 32.75427343 -0.16854221 36 2 C36.66 3.65 37.32 5.3 38 7 C32.72 7 27.44 7 22 7 C21.67 7.66 21.34 8.32 21 9 C20.01 8.67 19.02 8.34 18 8 C11.46263221 7.45521935 8.4857557 8.48911635 3 12 C2.34 12 1.68 12 1 12 C0.99091708 18.62087483 1.02815968 25.24032649 1.09765625 31.86083984 C1.11582715 34.11305763 1.12338279 36.36538706 1.12011719 38.61767578 C1.11726333 41.85537265 1.15254593 45.09074915 1.1953125 48.328125 C1.18621857 49.33554749 1.17712463 50.34296997 1.16775513 51.38092041 C1.22343179 54.05746949 1.31404145 56.41151288 2 59 C4.89713823 61.52818029 4.89713823 61.52818029 8 63 C8 63.99 8 64.98 8 66 C-2.56 66 -13.12 66 -24 66 C-23.67 64.68 -23.34 63.36 -23 62 C-20.525 61.505 -20.525 61.505 -18 61 C-17.94941271 54.05829978 -17.91431421 47.11664685 -17.89013672 40.17480469 C-17.88006076 37.81183089 -17.86639971 35.44886961 -17.84912109 33.0859375 C-17.82494276 29.69528112 -17.81353301 26.30478916 -17.8046875 22.9140625 C-17.79436493 21.85256989 -17.78404236 20.79107727 -17.77340698 19.69741821 C-17.77325592 18.71655243 -17.77310486 17.73568665 -17.77294922 16.72509766 C-17.768508 15.85905914 -17.76406677 14.99302063 -17.75949097 14.10073853 C-17.80442816 11.78084656 -17.80442816 11.78084656 -20 10 C-22.06874034 9.3574765 -22.06874034 9.3574765 -24 9 C-24 8.01 -24 7.02 -24 6 C-20.94526337 4.79181336 -17.88023936 3.61223608 -14.8125 2.4375 C-13.94818359 2.09525391 -13.08386719 1.75300781 -12.19335938 1.40039062 C-10.93168945 0.92182617 -10.93168945 0.92182617 -9.64453125 0.43359375 C-8.87471924 0.13509521 -8.10490723 -0.16340332 -7.31176758 -0.47094727 C-4.57118987 -1.09813408 -2.69250355 -0.71841742 0 0 Z " fill="#F1888D" transform="translate(867,352)"/>
<path d="M0 0 C5.61 0 11.22 0 17 0 C20.37471655 6.74943311 20.37471655 6.74943311 20.41650391 10.87207031 C20.44135361 12.24313934 20.44135361 12.24313934 20.46670532 13.64190674 C20.46995819 14.61085876 20.47321106 15.57981079 20.4765625 16.578125 C20.49214203 17.58591003 20.50772156 18.59369507 20.52377319 19.63201904 C20.57115123 22.83800534 20.59901919 26.04377503 20.625 29.25 C20.66148584 32.47035554 20.70206274 35.69058815 20.74765015 38.91082764 C20.77488739 40.9117716 20.79623404 42.91280593 20.81118774 44.91387939 C20.82144989 45.81531677 20.83171204 46.71675415 20.84228516 47.64550781 C20.85202866 48.83747772 20.85202866 48.83747772 20.86196899 50.05352783 C20.88091587 52.08085287 20.88091587 52.08085287 22 54 C24.01669827 55.13350534 24.01669827 55.13350534 26 56 C26 56.99 26 57.98 26 59 C15.77 59 5.54 59 -5 59 C-4.67 57.68 -4.34 56.36 -4 55 C-2.02 54.505 -2.02 54.505 0 54 C0 36.18 0 18.36 0 0 Z " fill="#ED848B" transform="translate(1173,359)"/>
<path d="M0 0 C5.94 0 11.88 0 18 0 C19.64964108 4.12410271 20.2496795 5.72513412 20.27124023 9.83447266 C20.28142685 10.76538727 20.29161346 11.69630188 20.30210876 12.65542603 C20.30424881 13.64827606 20.30638885 14.6411261 20.30859375 15.6640625 C20.33373812 17.77604461 20.35913635 19.88802372 20.38476562 22 C20.41358697 25.32258424 20.43761313 28.64511652 20.45629883 31.96777344 C20.47788294 35.1792999 20.51729859 38.39023806 20.55859375 41.6015625 C20.55870956 42.598461 20.55882538 43.5953595 20.5589447 44.62246704 C20.57228348 45.54707733 20.58562225 46.47168762 20.59936523 47.42431641 C20.60443588 48.2375235 20.60950653 49.05073059 20.61473083 49.88858032 C21.09621578 52.52729858 21.89331615 53.3823833 24 55 C25.485 55.495 25.485 55.495 27 56 C27 56.99 27 57.98 27 59 C16.77 59 6.54 59 -4 59 C-3.67 57.68 -3.34 56.36 -3 55 C-1.515 54.505 -1.515 54.505 0 54 C1.19950696 51.60098608 1.12684649 50.10829732 1.12939453 47.43017578 C1.13412277 46.00827438 1.13412277 46.00827438 1.13894653 44.55764771 C1.1369223 43.53057709 1.13489807 42.50350647 1.1328125 41.4453125 C1.13424759 39.86567215 1.13424759 39.86567215 1.13571167 38.25411987 C1.13639313 36.02309103 1.13454123 33.79206021 1.13037109 31.56103516 C1.125033 28.14611341 1.13031178 24.73132383 1.13671875 21.31640625 C1.13605775 19.15104138 1.13477615 16.98567658 1.1328125 14.8203125 C1.13483673 13.79729034 1.13686096 12.77426819 1.13894653 11.72024536 C1.13579437 10.76600677 1.13264221 9.81176819 1.12939453 8.82861328 C1.12859894 7.99081329 1.12780334 7.15301331 1.12698364 6.28982544 C1.05465317 3.68468166 1.05465317 3.68468166 0 0 Z " fill="#F3878E" transform="translate(929,359)"/>
<path d="M0 0 C6.93 0 13.86 0 21 0 C20.67 1.32 20.34 2.64 20 4 C19.175 4.268125 18.35 4.53625 17.5 4.8125 C9.50203415 7.52609556 3.58374352 14.21091945 -2.15234375 20.1796875 C-4 22 -4 22 -6 23 C-4.54990614 27.26452334 -2.41610759 30.29425921 0.375 33.8125 C1.27475367 34.95339033 2.17312722 36.09537006 3.0703125 37.23828125 C3.54500977 37.84236816 4.01970703 38.44645508 4.50878906 39.06884766 C6.07740521 41.10024152 7.60142853 43.15937112 9.1171875 45.23046875 C9.89956787 46.29527466 9.89956787 46.29527466 10.69775391 47.3815918 C11.70816294 48.76053473 12.71333672 50.14333413 13.71240234 51.53051758 C17.14069622 56.18303468 20.73271389 60.36635695 26 63 C26 63.99 26 64.98 26 66 C7.0143268 68.50954501 7.0143268 68.50954501 0.92626953 64.70361328 C-2.71620963 61.13630136 -5.16658018 56.80649143 -7.62451172 52.37548828 C-10.03516164 48.21226078 -12.92772863 44.39009071 -15.75 40.5 C-16.76879172 39.05430977 -17.78471834 37.60659331 -18.796875 36.15625 C-19.52390625 35.1146875 -20.2509375 34.073125 -21 33 C-17.90637972 26.50339741 -12.24688262 22.03407512 -6.875 17.375 C-3.4085126 14.3675139 -0.05317007 11.43481632 3 8 C3 6.68 3 5.36 3 4 C2.01 3.67 1.02 3.34 0 3 C0 2.01 0 1.02 0 0 Z " fill="#F27C9C" transform="translate(743,352)"/>
<path d="M0 0 C3.90993968 2.0421341 6.3778444 4.14832161 7.90234375 8.2734375 C8.57311642 13.20361659 8.56207765 17.70838659 6.27734375 22.2109375 C3.10853849 26.29702849 0.66844207 27.91303381 -4.49609375 28.5859375 C-8.81915253 28.79365204 -11.57788604 28.51914705 -15.53515625 26.6484375 C-19.87357923 22.6274601 -21.26376723 19.10392426 -21.53515625 13.2734375 C-21.37932363 8.56304244 -20.3179912 5.84191677 -17.09765625 2.2734375 C-12.40183622 -1.86993312 -5.77409076 -1.9999644 0 0 Z " fill="#AC39AB" transform="translate(1155.09765625,262.7265625)"/>
<path d="M0 0 C46.53 0 93.06 0 141 0 C141 1.32 141 2.64 141 4 C94.47 4 47.94 4 0 4 C0 2.68 0 1.36 0 0 Z " fill="#8D7479" transform="translate(710,446)"/>
<path d="M0 0 C3.0625 2.4375 3.0625 2.4375 5 5 C5.33 5.33 5.66 5.66 6 6 C6.08651611 7.41570123 6.10704904 8.835595 6.09765625 10.25390625 C6.09515869 11.0229126 6.09266113 11.79191895 6.09008789 12.58422852 C6.08098389 13.56705811 6.07187988 14.5498877 6.0625 15.5625 C6.041875 18.676875 6.02125 21.79125 6 25 C-1.92 25 -9.84 25 -18 25 C-18 15.73871295 -17.98399992 9.521212 -12.9375 1.875 C-8.68910369 -0.83674232 -4.90413003 -1.03880587 0 0 Z " fill="#0F0E0D" transform="translate(1037,355)"/>
<path d="M0 0 C0.86044922 -0.02900391 1.72089844 -0.05800781 2.60742188 -0.08789062 C8.80594006 -0.14861462 14.06633715 0.84675493 19.3125 4.3125 C20.3025 5.6325 21.2925 6.9525 22.3125 8.3125 C17.6925 8.3125 13.0725 8.3125 8.3125 8.3125 C7.9825 8.9725 7.6525 9.6325 7.3125 10.3125 C7.02375 9.673125 6.735 9.03375 6.4375 8.375 C5.48426549 6.16043921 5.48426549 6.16043921 3.3125 5.3125 C1.77226004 5.24299459 0.22915012 5.22797643 -1.3125 5.25 C-2.12976563 5.25902344 -2.94703125 5.26804687 -3.7890625 5.27734375 C-4.41554688 5.28894531 -5.04203125 5.30054688 -5.6875 5.3125 C-7.29941164 9.4155478 -8.7355808 13.30610858 -9.625 17.625 C-10.6875 21.3125 -10.6875 21.3125 -12.375 23.3125 C-15.69676383 24.74893841 -18.1098191 24.75971011 -21.6875 24.3125 C-24.125 22.75 -24.125 22.75 -25.6875 20.3125 C-26.36092148 15.11753427 -25.69683078 11.59851656 -22.6875 7.3125 C-15.17776409 1.22506256 -9.42241672 0.10354304 0 0 Z " fill="#B2B37A" transform="translate(803.6875,350.6875)"/>
<path d="M0 0 C0.23303424 3.56139065 0.37461781 7.12082446 0.5 10.6875 C0.60054687 12.19860352 0.60054687 12.19860352 0.703125 13.74023438 C0.89620362 21.05308725 0.89620362 21.05308725 -1.7043457 23.80078125 C-4.85952074 25.82820296 -7.49871932 26.90170967 -11.1875 27.625 C-15.03260024 26.77053328 -16.54704454 25.01363099 -19 22 C-20.20643566 18.38069302 -20.32268559 15.80768995 -20 12 C-17.13254789 6.58370157 -13.66632856 3.11097024 -8 0.75 C-5.16740905 0.04185226 -2.89552653 -0.05869311 0 0 Z " fill="#131112" transform="translate(812,384)"/>
<path d="M0 0 C0 7.59 0 15.18 0 23 C-5.61 23 -11.22 23 -17 23 C-17 24.98 -17 26.96 -17 29 C-17.33 29 -17.66 29 -18 29 C-18.01417969 27.73542969 -18.02835938 26.47085937 -18.04296875 25.16796875 C-18.08986685 23.50777588 -18.13811426 21.84762073 -18.1875 20.1875 C-18.19620117 18.93743164 -18.19620117 18.93743164 -18.20507812 17.66210938 C-18.28916012 15.33584096 -18.4070003 13.25248393 -19 11 C-21.42988681 9.06544945 -21.42988681 9.06544945 -24 8 C-24 7.01 -24 6.02 -24 5 C-21.95990245 4.34922704 -19.91784331 3.70460176 -17.875 3.0625 C-16.16957031 2.52302734 -16.16957031 2.52302734 -14.4296875 1.97265625 C-9.44729739 0.55965495 -5.19591701 0 0 0 Z " fill="#73C5BB" transform="translate(1151,323)"/>
<path d="M0 0 C0 7.59 0 15.18 0 23 C-5.94 23 -11.88 23 -18 23 C-18.04125 21.081875 -18.0825 19.16375 -18.125 17.1875 C-18.29906992 13.92475722 -18.29906992 13.92475722 -19 11 C-21.85602535 8.60751405 -21.85602535 8.60751405 -25 8 C-25 7.01 -25 6.02 -25 5 C-19.66666667 3.66666667 -14.33333333 2.33333333 -9 1 C-8.36288086 0.81493896 -7.72576172 0.62987793 -7.06933594 0.43920898 C-5 0 -5 0 0 0 Z " fill="#73C7BE" transform="translate(986,323)"/>
<path d="M0 0 C0 7.59 0 15.18 0 23 C-5.94 23 -11.88 23 -18 23 C-18.04125 21.081875 -18.0825 19.16375 -18.125 17.1875 C-18.29906992 13.92475722 -18.29906992 13.92475722 -19 11 C-21.85602535 8.60751405 -21.85602535 8.60751405 -25 8 C-25 7.01 -25 6.02 -25 5 C-21.77330584 4.15688881 -18.54329082 3.32726132 -15.3125 2.5 C-13.94448242 2.14228516 -13.94448242 2.14228516 -12.54882812 1.77734375 C-11.21948242 1.43896484 -11.21948242 1.43896484 -9.86328125 1.09375 C-9.05157471 0.88427734 -8.23986816 0.67480469 -7.40356445 0.45898438 C-5 0 -5 0 0 0 Z " fill="#73C7BE" transform="translate(721,323)"/>
<path d="M0 0 C3.49017419 0.07236406 4.70130419 0.34618003 7.8125 2.1875 C10.66956066 6.8878256 10.70577249 11.01640669 9.75 16.375 C8.45807485 19.48036136 7.55326372 20.21415088 4.75 22.375 C1.89255377 23.15849332 -0.39264818 23.1600502 -3.25 22.375 C-6.46954645 19.84046343 -7.95432435 18.26202695 -9.25 14.375 C-9.78973359 8.65382393 -8.78865525 5.87874305 -5.25 1.375 C-3.69049449 -0.18450551 -2.16122869 0.09303302 0 0 Z " fill="#131213" transform="translate(975.25,436.625)"/>
<path d="M0 0 C0.89106445 -0.00128906 1.78212891 -0.00257813 2.70019531 -0.00390625 C9.37770944 0.10351994 14.35894104 1.19976855 20.3125 4.375 C19.9825 9.325 19.6525 14.275 19.3125 19.375 C17.9925 19.375 16.6725 19.375 15.3125 19.375 C13.49609375 16.8203125 13.49609375 16.8203125 11.75 13.5 C9.31335779 8.75215183 9.31335779 8.75215183 5.3125 5.375 C-1.75763347 4.42047649 -5.87112169 5.23890876 -11.6875 9.375 C-14.38119177 9.63400882 -16.97395532 9.46396868 -19.6875 9.375 C-20.6775 10.035 -21.6675 10.695 -22.6875 11.375 C-20.90190385 6.5538904 -17.02817769 3.63267756 -12.59375 1.25 C-8.39241003 -0.01491956 -4.36647924 -0.0064569 0 0 Z " fill="#AEB078" transform="translate(1094.6875,350.625)"/>
<path d="M0 0 C5.94 0 11.88 0 18 0 C18 4.29 18 8.58 18 13 C12.06 13.33 6.12 13.66 0 14 C0 9.38 0 4.76 0 0 Z " fill="#ADBD89" transform="translate(968,346)"/>
<path d="M0 0 C5.94 0 11.88 0 18 0 C18 4.29 18 8.58 18 13 C12.06 13.33 6.12 13.66 0 14 C0 9.38 0 4.76 0 0 Z " fill="#ADBD89" transform="translate(703,346)"/>
<path d="M0 0 C11 0 11 0 13.75 1.625 C15 4 15 4 15 7.125 C14 10 14 10 11.9375 11.1796875 C11.298125 11.45039063 10.65875 11.72109375 10 12 C10.3609375 12.55429687 10.721875 13.10859375 11.09375 13.6796875 C11.5578125 14.40414063 12.021875 15.12859375 12.5 15.875 C12.9640625 16.59429687 13.428125 17.31359375 13.90625 18.0546875 C15 20 15 20 15 22 C13.25 21.9375 13.25 21.9375 11 21 C9.88267879 19.25096256 8.99059094 17.47950168 8.125 15.59375 C6.91913984 13.5174494 6.91913984 13.5174494 3 13 C3 15.97 3 18.94 3 22 C2.01 22 1.02 22 0 22 C0 14.74 0 7.48 0 0 Z " fill="#EB8C78" transform="translate(948,437)"/>
<path d="M0 0 C2.8125 1.8125 2.8125 1.8125 5.8125 6.8125 C-0.1275 6.8125 -6.0675 6.8125 -12.1875 6.8125 C-12.5175 7.4725 -12.8475 8.1325 -13.1875 8.8125 C-13.8475 8.4825 -14.5075 8.1525 -15.1875 7.8125 C-16.64329587 7.71694583 -18.1035796 7.68265309 -19.5625 7.6875 C-20.33335937 7.68492187 -21.10421875 7.68234375 -21.8984375 7.6796875 C-24.1203189 7.80860212 -26.05368508 8.19866283 -28.1875 8.8125 C-28.1875 8.1525 -28.1875 7.4925 -28.1875 6.8125 C-29.1775 6.4825 -30.1675 6.1525 -31.1875 5.8125 C-29.58555929 4.82969585 -27.98086258 3.85138283 -26.375 2.875 C-25.48167969 2.32972656 -24.58835937 1.78445313 -23.66796875 1.22265625 C-17.07527291 -2.52531729 -7.09045576 -2.69894768 0 0 Z " fill="#B5B479" transform="translate(941.1875,352.1875)"/>
<path d="M0 0 C1.17949219 0.01804687 2.35898437 0.03609375 3.57421875 0.0546875 C4.92966797 0.08949219 4.92966797 0.08949219 6.3125 0.125 C6.12404193 9.90768711 6.12404193 9.90768711 3.1875 14.3125 C-0.46228859 16.61345367 -2.445947 16.81907231 -6.6875 16.125 C-9.125 14.5625 -9.125 14.5625 -10.6875 12.125 C-11.01844958 8.35217474 -10.88504817 5.71764452 -9.6875 2.125 C-6.05554504 -0.29630331 -4.30400652 -0.08522785 0 0 Z " fill="#E4AF54" transform="translate(788.6875,358.875)"/>
<path d="M0 0 C4.06769687 1.8382151 5.3131551 3.16927895 7.33984375 7.22265625 C1.72984375 7.22265625 -3.88015625 7.22265625 -9.66015625 7.22265625 C-9.99015625 7.88265625 -10.32015625 8.54265625 -10.66015625 9.22265625 C-10.99015625 8.89265625 -11.32015625 8.56265625 -11.66015625 8.22265625 C-16.69776641 7.90547339 -21.75976738 7.91588588 -26.66015625 9.22265625 C-26.66015625 8.56265625 -26.66015625 7.90265625 -26.66015625 7.22265625 C-27.65015625 6.89265625 -28.64015625 6.56265625 -29.66015625 6.22265625 C-20.33530409 -0.58431218 -11.40708028 -3.33334651 0 0 Z " fill="#B5B479" transform="translate(1182.66015625,351.77734375)"/>
<path d="M0 0 C5.61 0 11.22 0 17 0 C17 4.29 17 8.58 17 13 C8.585 13.495 8.585 13.495 0 14 C0 9.38 0 4.76 0 0 Z " fill="#ADBD89" transform="translate(1134,346)"/>
<path d="M0 0 C1.77697266 -0.02513672 1.77697266 -0.02513672 3.58984375 -0.05078125 C7.47536971 0.35569109 9.81677343 1.14395779 13.0625 3.3125 C13.7225 4.9625 14.3825 6.6125 15.0625 8.3125 C9.7825 8.3125 4.5025 8.3125 -0.9375 8.3125 C-1.2675 8.9725 -1.5975 9.6325 -1.9375 10.3125 C-2.9275 9.9825 -3.9175 9.6525 -4.9375 9.3125 C-6.89427555 9.15495296 -6.89427555 9.15495296 -8.9375 9.1875 C-9.618125 9.18492187 -10.29875 9.18234375 -11 9.1796875 C-13.15624781 9.24618874 -13.15624781 9.24618874 -15.9375 10.3125 C-15.9375 9.6525 -15.9375 8.9925 -15.9375 8.3125 C-16.9275 7.9825 -17.9175 7.6525 -18.9375 7.3125 C-12.54829734 2.55191762 -8.19636191 0.02669825 0 0 Z " fill="#B6B57A" transform="translate(889.9375,350.6875)"/>
<path d="M0 0 C1.78515625 1.38671875 1.78515625 1.38671875 3.78515625 4.38671875 C0.48515625 4.38671875 -2.81484375 4.38671875 -6.21484375 4.38671875 C-6.54484375 5.04671875 -6.87484375 5.70671875 -7.21484375 6.38671875 C-7.83359375 5.56171875 -8.45234375 4.73671875 -9.08984375 3.88671875 C-11.648273 1.3209797 -13.62813602 0.94734454 -17.21484375 0.82421875 C-20.76992892 0.98628881 -21.87114046 1.11175612 -24.71484375 3.38671875 C-27.6952786 5.77106663 -28.47227442 5.53747685 -32.15234375 5.32421875 C-35.98799818 5.13501606 -37.88814631 5.3697131 -40.83984375 7.88671875 C-42.01546875 9.12421875 -42.01546875 9.12421875 -43.21484375 10.38671875 C-40.36043237 3.98842464 -34.47179065 -0.30857042 -28.0625 -2.9140625 C-18.57251405 -5.2442511 -8.56106857 -4.88994139 0 0 Z " fill="#B2B278" transform="translate(1049.21484375,354.61328125)"/>
<path d="M0 0 C1.32 0 2.64 0 4 0 C6.64 4.62 9.28 9.24 12 14 C12.33 9.38 12.66 4.76 13 0 C13.99 0 14.98 0 16 0 C16 7.26 16 14.52 16 22 C12 21 12 21 9.859375 17.83984375 C9.14296756 16.54633032 8.44025765 15.24515477 7.75 13.9375 C7.38648438 13.27427734 7.02296875 12.61105469 6.6484375 11.92773438 C5.75383252 10.29154895 4.87533933 8.64657276 4 7 C3.67 11.95 3.34 16.9 3 22 C2.01 22 1.02 22 0 22 C0 14.74 0 7.48 0 0 Z " fill="#F08095" transform="translate(990,437)"/>
<path d="M0 0 C2.875 1.625 2.875 1.625 5 4 C5.625 6.9375 5.625 6.9375 5 10 C2.51877621 13.35694984 1.05634831 14.78441871 -3.0625 15.625 C-6 15 -6 15 -8.375 12.875 C-10.28071139 9.50335677 -10.64850195 7.80994895 -10 4 C-7.20900702 -0.07914358 -4.82277608 -0.78739201 0 0 Z " fill="#F850F6" transform="translate(1151,269)"/>
<path d="M0 0 C0 2.97 0 5.94 0 9 C-3.6041498 9.02900455 -7.20826962 9.04680018 -10.8125 9.0625 C-12.34874023 9.07506836 -12.34874023 9.07506836 -13.91601562 9.08789062 C-15.39038086 9.09272461 -15.39038086 9.09272461 -16.89453125 9.09765625 C-18.25348511 9.10551147 -18.25348511 9.10551147 -19.63989258 9.11352539 C-22 9 -22 9 -25 8 C-25 7.01 -25 6.02 -25 5 C-19.66666667 3.66666667 -14.33333333 2.33333333 -9 1 C-7.97471191 0.72434204 -7.97471191 0.72434204 -6.92871094 0.44311523 C-4.58307057 -0.09578822 -2.39831483 -0.06661986 0 0 Z " fill="#44CBE2" transform="translate(986,323)"/>
<path d="M0 0 C0 2.97 0 5.94 0 9 C-3.79165074 9.0289337 -7.58327327 9.04677601 -11.375 9.0625 C-12.45523438 9.07087891 -13.53546875 9.07925781 -14.6484375 9.08789062 C-16.1953125 9.09272461 -16.1953125 9.09272461 -17.7734375 9.09765625 C-18.72653809 9.10289307 -19.67963867 9.10812988 -20.66162109 9.11352539 C-23 9 -23 9 -25 8 C-25 7.01 -25 6.02 -25 5 C-21.77330584 4.15688881 -18.54329082 3.32726132 -15.3125 2.5 C-13.94448242 2.14228516 -13.94448242 2.14228516 -12.54882812 1.77734375 C-11.21948242 1.43896484 -11.21948242 1.43896484 -9.86328125 1.09375 C-9.05157471 0.88427734 -8.23986816 0.67480469 -7.40356445 0.45898438 C-4.881007 -0.02272289 -2.56191817 -0.07974843 0 0 Z " fill="#44CBE2" transform="translate(721,323)"/>
<path d="M0 0 C3.49017419 0.07236406 4.70130419 0.34618003 7.8125 2.1875 C10.66956066 6.8878256 10.70577249 11.01640669 9.75 16.375 C8.45807485 19.48036136 7.55326372 20.21415088 4.75 22.375 C1.89255377 23.15849332 -0.39264818 23.1600502 -3.25 22.375 C-6.46954645 19.84046343 -7.95432435 18.26202695 -9.25 14.375 C-9.78973359 8.65382393 -8.78865525 5.87874305 -5.25 1.375 C-3.69049449 -0.18450551 -2.16122869 0.09303302 0 0 Z M-3.9140625 3.5625 C-5.74262143 6.04335188 -5.64988086 7.75630159 -5.625 10.8125 C-5.63273438 11.75996094 -5.64046875 12.70742188 -5.6484375 13.68359375 C-5.19790217 16.72691571 -4.27617742 18.10761099 -2.25 20.375 C1.18230448 20.11106499 1.18230448 20.11106499 4.75 19.375 C6.88749925 16.16875113 7.04574999 15.15041897 7.0625 11.4375 C7.07925781 10.58285156 7.09601562 9.72820312 7.11328125 8.84765625 C6.67646938 5.87451742 5.83644864 4.5151979 3.75 2.375 C0.63820561 1.92119665 -1.2969676 1.69490176 -3.9140625 3.5625 Z " fill="#EF9572" transform="translate(975.25,436.625)"/>
<path d="M0 0 C0 2.97 0 5.94 0 9 C-3.24959277 9.22183567 -6.49889 9.42796303 -9.75 9.625 C-10.67039062 9.68945312 -11.59078125 9.75390625 -12.5390625 9.8203125 C-13.87324219 9.89765625 -13.87324219 9.89765625 -15.234375 9.9765625 C-16.45979004 10.05511475 -16.45979004 10.05511475 -17.70996094 10.13525391 C-20.26840268 9.98414765 -21.80868168 9.28926961 -24 8 C-24 7.01 -24 6.02 -24 5 C-21.95990245 4.34922704 -19.91784331 3.70460176 -17.875 3.0625 C-16.16957031 2.52302734 -16.16957031 2.52302734 -14.4296875 1.97265625 C-9.57335012 0.59540339 -5.04669438 -0.14843219 0 0 Z " fill="#44CCE3" transform="translate(1151,323)"/>
<path d="M0 0 C4.29 0 8.58 0 13 0 C13 0.66 13 1.32 13 2 C9.7 2 6.4 2 3 2 C3 4.31 3 6.62 3 9 C5.97 9 8.94 9 12 9 C12 9.99 12 10.98 12 12 C9.03 12 6.06 12 3 12 C3 14.64 3 17.28 3 20 C6.3 20 9.6 20 13 20 C13 20.66 13 21.32 13 22 C8.71 22 4.42 22 0 22 C0 14.74 0 7.48 0 0 Z " fill="#C58855" transform="translate(893,437)"/>
<path d="M0 0 C4.29 0 8.58 0 13 0 C13 0.66 13 1.32 13 2 C9.7 2 6.4 2 3 2 C3 4.31 3 6.62 3 9 C5.64 9 8.28 9 11 9 C11 9.99 11 10.98 11 12 C8.36 12 5.72 12 3 12 C3 14.64 3 17.28 3 20 C6.3 20 9.6 20 13 20 C13 20.66 13 21.32 13 22 C8.71 22 4.42 22 0 22 C0 14.74 0 7.48 0 0 Z " fill="#BE9562" transform="translate(859,437)"/>
<path d="M0 0 C0.66 2.97 1.32 5.94 2 9 C1.34 9 0.68 9 0 9 C0 8.34 0 7.68 0 7 C-3.62532066 7.13847638 -7.25015904 7.28702643 -10.875 7.4375 C-11.90753906 7.47681641 -12.94007813 7.51613281 -14.00390625 7.55664062 C-14.99003906 7.59853516 -15.97617187 7.64042969 -16.9921875 7.68359375 C-17.90339355 7.72025146 -18.81459961 7.75690918 -19.75341797 7.79467773 C-22.03483481 7.86577065 -22.03483481 7.86577065 -24 9 C-24 8.01 -24 7.02 -24 6 C-20.94526337 4.79181336 -17.88023936 3.61223608 -14.8125 2.4375 C-13.94818359 2.09525391 -13.08386719 1.75300781 -12.19335938 1.40039062 C-10.93168945 0.92182617 -10.93168945 0.92182617 -9.64453125 0.43359375 C-8.87471924 0.13509521 -8.10490723 -0.16340332 -7.31176758 -0.47094727 C-4.57118987 -1.09813408 -2.69250355 -0.71841742 0 0 Z " fill="#B2AF74" transform="translate(867,352)"/>
<path d="M0 0 C6.93 0 13.86 0 21 0 C20.67 1.32 20.34 2.64 20 4 C17.25 5.0625 17.25 5.0625 14 6 C12.30792999 6.9563874 10.63183107 7.94410931 9 9 C9 8.34 9 7.68 9 7 C7.35 7.33 5.7 7.66 4 8 C3.896875 7.360625 3.79375 6.72125 3.6875 6.0625 C3.460625 5.381875 3.23375 4.70125 3 4 C2.01 3.67 1.02 3.34 0 3 C0 2.01 0 1.02 0 0 Z " fill="#A4A571" transform="translate(743,352)"/>
<path d="M0 0 C1.98828125 0.50390625 1.98828125 0.50390625 3.98828125 3.50390625 C2.66828125 3.50390625 1.34828125 3.50390625 -0.01171875 3.50390625 C-3.65111807 3.82121149 -3.65111807 3.82121149 -7.01171875 4.50390625 C-8.74058495 7.96163866 -8.35414822 11.71703918 -8.01171875 15.50390625 C-7.3218072 18.26027971 -7.3218072 18.26027971 -5.01171875 19.50390625 C-1.94088424 19.51479573 0.97783935 19.08453655 3.98828125 18.50390625 C3.32828125 19.82390625 2.66828125 21.14390625 1.98828125 22.50390625 C-6.1484094 23.12980553 -6.1484094 23.12980553 -9.51171875 20.69140625 C-12.52469814 16.29747798 -12.75694094 11.65909031 -12.01171875 6.50390625 C-9.6346446 0.79892829 -5.71759639 -0.14414109 0 0 Z " fill="#EA5ACB" transform="translate(922.01171875,436.49609375)"/>
<path d="M0 0 C0.33 1.32 0.66 2.64 1 4 C-1.97 3.67 -4.94 3.34 -8 3 C-10.14553377 6.21830065 -10.29583868 7.26786507 -10.3125 11 C-10.32925781 11.86625 -10.34601562 12.7325 -10.36328125 13.625 C-9.93177783 16.44601164 -9.27337621 17.32488068 -7 19 C-3.79193623 19.32903218 -1.07877257 18.91222891 2 18 C1.34 19.32 0.68 20.64 0 22 C-8.1627907 22.62790698 -8.1627907 22.62790698 -11.5 20.125 C-14.68354552 15.61497717 -14.7018159 11.39985411 -14 6 C-11.33904229 -0.61994358 -6.28579823 -0.73950567 0 0 Z " fill="#C0A168" transform="translate(1034,437)"/>
<path d="M0 0 C0.66 0.33 1.32 0.66 2 1 C1.23042969 2.43085938 1.23042969 2.43085938 0.4453125 3.890625 C-8.72566439 21.07849218 -17.32526861 38.55837352 -26 56 C-25.34 56.33 -24.68 56.66 -24 57 C-24 57.66 -24 58.32 -24 59 C-26.2727675 60.49524178 -28.5679943 61.78399715 -31 63 C-29.70522938 58.86703134 -28.15684158 55.06512571 -26.21850586 51.1940918 C-25.66130356 50.07661057 -25.10410126 48.95912933 -24.53001404 47.80778503 C-23.92510228 46.60485668 -23.32004204 45.40200298 -22.71484375 44.19921875 C-22.09203877 42.95480214 -21.46953055 41.71023698 -20.8473053 40.4655304 C-19.5477322 37.86794257 -18.24549587 35.27171418 -16.94116211 32.67651367 C-15.26686796 29.34499227 -13.59791473 26.01083068 -11.93074703 22.67573833 C-10.64815398 20.11082352 -9.36348272 17.54695446 -8.07809639 14.98343849 C-7.461604 13.75364058 -6.84559916 12.52359815 -6.23008537 11.29331017 C-5.3727717 9.58084175 -4.51251056 7.86984987 -3.65209961 6.15893555 C-3.16293564 5.1844194 -2.67377167 4.20990326 -2.16978455 3.20585632 C-1 1 -1 1 0 0 Z " fill="#56A2A1" transform="translate(620,236)"/>
<path d="M0 0 C0.99 0 1.98 0 3 0 C3 6.27 3 12.54 3 19 C5.97 19 8.94 19 12 19 C12 19.99 12 20.98 12 22 C8.04 22 4.08 22 0 22 C0 14.74 0 7.48 0 0 Z " fill="#948772" transform="translate(877,437)"/>
<path d="M0 0 C5.28 0 10.56 0 16 0 C16 0.66 16 1.32 16 2 C13.69 2 11.38 2 9 2 C9 8.6 9 15.2 9 22 C8.01 22 7.02 22 6 22 C6 15.4 6 8.8 6 2 C4.02 2 2.04 2 0 2 C0 1.34 0 0.68 0 0 Z " fill="#C57C77" transform="translate(928,437)"/>
<path d="M0 0 C0 0.99 0 1.98 0 3 C-5.35511177 4.71448693 -10.71197772 6.42333355 -16.07055664 8.12695312 C-17.89364285 8.70743183 -19.71623799 9.28945518 -21.53833008 9.87304688 C-24.15579029 10.71109022 -26.77495995 11.54358267 -29.39453125 12.375 C-30.21025101 12.63748535 -31.02597076 12.8999707 -31.8664093 13.17041016 C-35.00829239 14.16287936 -37.68389224 15 -41 15 C-41 14.34 -41 13.68 -41 13 C-27.47 8.71 -13.94 4.42 0 0 Z " fill="#E8788C" transform="translate(640,464)"/>
<path d="M0 0 C0.33 0 0.66 0 1 0 C1 6.27 1 12.54 1 19 C3.31 18.34 5.62 17.68 8 17 C8.33 17.66 8.66 18.32 9 19 C6.69 19.99 4.38 20.98 2 22 C1.67 37.51 1.34 53.02 1 69 C0.67 69 0.34 69 0 69 C0 46.23 0 23.46 0 0 Z " fill="#9CA272" transform="translate(507,300)"/>
<path d="M0 0 C1.32 0 2.64 0 4 0 C7 5.75 7 5.75 7 8 C6.01 7.67 5.02 7.34 4 7 C3.67 11.95 3.34 16.9 3 22 C2.01 22 1.02 22 0 22 C0 14.74 0 7.48 0 0 Z " fill="#CF807B" transform="translate(990,437)"/>
<path d="M0 0 C2.31 0 4.62 0 7 0 C7 3.63 7 7.26 7 11 C5.68 11 4.36 11 3 11 C-1.06153846 4.6 -1.06153846 4.6 -0.75 1.5625 C-0.5025 1.046875 -0.255 0.53125 0 0 Z " fill="#DAB15C" transform="translate(1107,359)"/>
<path d="M0 0 C0.99 0 1.98 0 3 0 C3 7.26 3 14.52 3 22 C2.01 22 1.02 22 0 22 C0 14.74 0 7.48 0 0 Z " fill="#E88385" transform="translate(1012,437)"/>
<path d="M0 0 C5.625 -0.25 5.625 -0.25 9 2 C8.125 6.875 8.125 6.875 7 8 C4.66702567 8.04092937 2.33294775 8.04241723 0 8 C0 5.36 0 2.72 0 0 Z " fill="#141716" transform="translate(951,439)"/>
<path d="M0 0 C3 4 3 4 3 6 C2.34 6 1.68 6 1 6 C1 22.83 1 39.66 1 57 C0.67 57 0.34 57 0 57 C0 38.19 0 19.38 0 0 Z " fill="#322020" transform="translate(564,433)"/>
<path d="M0 0 C10.04272543 -0.62334158 10.04272543 -0.62334158 13.6875 1.75 C15 4 15 4 15 8 C14.01 8 13.02 8 12 8 C11.67 6.68 11.34 5.36 11 4 C8.36 3.34 5.72 2.68 3 2 C2.67 3.65 2.34 5.3 2 7 C1.34 7 0.68 7 0 7 C0 4.69 0 2.38 0 0 Z " fill="#5CC3C9" transform="translate(948,437)"/>
<path d="M0 0 C2.09782787 2.09782787 2.6509396 3.3799207 3.625 6.125 C4.01558594 7.21167969 4.01558594 7.21167969 4.4140625 8.3203125 C4.70410156 9.15175781 4.70410156 9.15175781 5 10 C9.37934119 9.48041715 13.68803391 8.94324258 18 8 C18.33 8.66 18.66 9.32 19 10 C15.04 11.32 11.08 12.64 7 14 C7.33 16.31 7.66 18.62 8 21 C5.17678135 18.17678135 4.22705463 14.74021797 2.875 11.0625 C2.59785156 10.33353516 2.32070313 9.60457031 2.03515625 8.85351562 C0.89178807 5.78106567 0 3.30460627 0 0 Z " fill="#DD708F" transform="translate(580,470)"/>
<path d="M0 0 C0.99 0 1.98 0 3 0 C3.33 4.29 3.66 8.58 4 13 C3.01 13.33 2.02 13.66 1 14 C-0.99851462 9.8780636 -1.25785684 6.55547083 -1 2 C-0.67 1.34 -0.34 0.68 0 0 Z " fill="#E98B71" transform="translate(967,442)"/>
<path d="M0 0 C0.66 0 1.32 0 2 0 C2.598125 0.825 3.19625 1.65 3.8125 2.5 C5.72991849 5.2349525 5.72991849 5.2349525 8.5 5.375 C10.725228 5.0412158 12.84318345 4.63905675 15 4 C14.34 5.32 13.68 6.64 13 8 C4.91111111 8.62222222 4.91111111 8.62222222 1.4375 6.25 C0 4 0 4 0 0 Z " fill="#E462B3" transform="translate(1021,451)"/>
<path d="M0 0 C1.17755859 -0.01160156 1.17755859 -0.01160156 2.37890625 -0.0234375 C3.05824219 0.10804688 3.73757813 0.23953125 4.4375 0.375 C5.0975 1.365 5.7575 2.355 6.4375 3.375 C5.1175 3.375 3.7975 3.375 2.4375 3.375 C-1.17117549 3.53327178 -1.17117549 3.53327178 -4.5625 4.375 C-6.07544288 6.31097032 -6.07544288 6.31097032 -6.5625 8.375 C-7.2225 8.375 -7.8825 8.375 -8.5625 8.375 C-7.7854821 2.62506752 -6.04103357 -0.05971368 0 0 Z " fill="#5FB9B8" transform="translate(919.5625,436.625)"/>
<path d="M0 0 C5.28 0 10.56 0 16 0 C16 0.66 16 1.32 16 2 C13.69 2 11.38 2 9 2 C9 3.65 9 5.3 9 7 C8.34 7 7.68 7 7 7 C7 5.35 7 3.7 7 2 C4.69 2 2.38 2 0 2 C0 1.34 0 0.68 0 0 Z " fill="#57CCD7" transform="translate(928,437)"/>
<path d="M0 0 C4.29 0 8.58 0 13 0 C13 0.66 13 1.32 13 2 C9.7 2 6.4 2 3 2 C3 3.65 3 5.3 3 7 C2.01 7.33 1.02 7.66 0 8 C0 5.36 0 2.72 0 0 Z " fill="#5CC1C6" transform="translate(893,437)"/>
<path d="M0 0 C0.79148437 -0.02578125 1.58296875 -0.0515625 2.3984375 -0.078125 C5.09524878 0.31929982 5.93229015 1.17506535 7.625 3.25 C5.24963453 3.25 2.87346745 3.2199387 0.5 3.125 C-2.50681749 2.93133441 -2.50681749 2.93133441 -4.375 5.25 C-5.365 5.25 -6.355 5.25 -7.375 5.25 C-5.28715148 0.93511306 -4.86629856 0.09449123 0 0 Z " fill="#55BDC5" transform="translate(975.375,436.75)"/>
<path d="M0 0 C3.1875 -0.5 3.1875 -0.5 7 0 C9.55351065 2.76841006 12 6.13887863 12 10 C10.25 9.9375 10.25 9.9375 8 9 C6.97399085 7.23654678 5.95173192 5.46902849 5.015625 3.65625 C3.71297681 1.53193141 2.35134456 0.75578932 0 0 Z " fill="#E2748D" transform="translate(951,449)"/>
<path d="M0 0 C0.99 0 1.98 0 3 0 C3 2.64 3 5.28 3 8 C2.34 8 1.68 8 1 8 C1 11.3 1 14.6 1 18 C0.34 17.34 -0.32 16.68 -1 16 C-0.98252073 13.24410223 -0.86136729 10.61213324 -0.625 7.875 C-0.56828125 7.12089844 -0.5115625 6.36679687 -0.453125 5.58984375 C-0.3115535 3.72581904 -0.15700041 1.86278863 0 0 Z " fill="#7D9785" transform="translate(1003,437)"/>
<path d="M0 0 C0.66 0 1.32 0 2 0 C2 1.32 2 2.64 2 4 C5.63 4 9.26 4 13 4 C13 4.66 13 5.32 13 6 C8.71 6 4.42 6 0 6 C0 4.02 0 2.04 0 0 Z " fill="#FC62D6" transform="translate(859,453)"/>
<path d="M0 0 C0.59167969 0.08378906 1.18335938 0.16757812 1.79296875 0.25390625 C6.09939457 0.80889424 9.75552644 1.23226652 14 0 C13 2 13 2 11 4 C6.59381924 4.78944072 3.74305712 4.49537141 0 2 C0 1.34 0 0.68 0 0 Z " fill="#EF5FC9" transform="translate(969,455)"/>
<path d="M0 0 C1.32 0 2.64 0 4 0 C7 5.75 7 5.75 7 8 C6.01 7.67 5.02 7.34 4 7 C3.67 6.34 3.34 5.68 3 5 C2.34 5.66 1.68 6.32 1 7 C0 6 0 6 -0.0625 2.9375 C-0.041875 1.968125 -0.02125 0.99875 0 0 Z " fill="#72B7A9" transform="translate(990,437)"/>
<path d="M0 0 C0.66 0 1.32 0 2 0 C2 1.32 2 2.64 2 4 C5.3 4 8.6 4 12 4 C12 4.66 12 5.32 12 6 C8.04 6 4.08 6 0 6 C0 4.02 0 2.04 0 0 Z " fill="#FC63D6" transform="translate(894,453)"/>
<path d="M0 0 C0.66 0 1.32 0 2 0 C2 1.32 2 2.64 2 4 C5.3 4 8.6 4 12 4 C12 4.66 12 5.32 12 6 C8.04 6 4.08 6 0 6 C0 4.02 0 2.04 0 0 Z " fill="#FC63D6" transform="translate(877,453)"/>
<path d="M0 0 C1.4384798 0.06423833 2.87666999 0.14163547 4.3125 0.25 C4.6425 1.57 4.9725 2.89 5.3125 4.25 C4.70921875 4.16621094 4.1059375 4.08242188 3.484375 3.99609375 C2.28554687 3.84333984 2.28554687 3.84333984 1.0625 3.6875 C0.27359375 3.58308594 -0.5153125 3.47867187 -1.328125 3.37109375 C-3.69282874 3.24972651 -5.4386037 3.55366743 -7.6875 4.25 C-5.84004374 0.30875998 -4.09551026 -0.02575793 0 0 Z " fill="#4FBDC9" transform="translate(1029.6875,436.75)"/>
<path d="M0 0 C4.29 0 8.58 0 13 0 C13 0.66 13 1.32 13 2 C6.565 2.495 6.565 2.495 0 3 C0 2.01 0 1.02 0 0 Z " fill="#48CBDF" transform="translate(859,437)"/>
<path d="M0 0 C0.33 0.66 0.66 1.32 1 2 C1.66 2 2.32 2 3 2 C3 4.64 3 7.28 3 10 C2.01 9.67 1.02 9.34 0 9 C0 6.03 0 3.06 0 0 Z " fill="#DD9A5E" transform="translate(910,443)"/>
<path d="M0 0 C0.99 0 1.98 0 3 0 C3 2.97 3 5.94 3 9 C2.01 8.67 1.02 8.34 0 8 C0 5.36 0 2.72 0 0 Z " fill="#79B8A6" transform="translate(1012,437)"/>
<path d="M0 0 C0.99 0 1.98 0 3 0 C3 2.97 3 5.94 3 9 C2.67 9 2.34 9 2 9 C2 7.35 2 5.7 2 4 C1.34 4 0.68 4 0 4 C0 5.65 0 7.3 0 9 C-0.33 9 -0.66 9 -1 9 C-1.125 2.25 -1.125 2.25 0 0 Z " fill="#8B7F54" transform="translate(967,442)"/>
<path d="M0 0 C2.15377564 2.62198774 3.40072174 4.64404172 4 8 C3.01 8.495 3.01 8.495 2 9 C0.68 6.36 -0.64 3.72 -2 1 C-1.34 0.67 -0.68 0.34 0 0 Z " fill="#D59557" transform="translate(997,444)"/>
<path d="M0 0 C1.485 0.99 1.485 0.99 3 2 C3 2.99 3 3.98 3 5 C2.34 5 1.68 5 1 5 C1 6.98 1 8.96 1 11 C0.67 11 0.34 11 0 11 C-0.19406478 9.35492782 -0.38007935 7.70890406 -0.5625 6.0625 C-0.66691406 5.14597656 -0.77132812 4.22945313 -0.87890625 3.28515625 C-0.91886719 2.53105469 -0.95882812 1.77695312 -1 1 C-0.67 0.67 -0.34 0.34 0 0 Z " fill="#969E74" transform="translate(982,440)"/>
<path d="M0 0 C0.33 1.32 0.66 2.64 1 4 C2.65 4 4.3 4 6 4 C6 4.33 6 4.66 6 5 C3.36 5 0.72 5 -2 5 C-2 3.68 -2 2.36 -2 1 C-1.34 0.67 -0.68 0.34 0 0 Z " fill="#B89852" transform="translate(950,443)"/>
<path d="M0 0 C1.5 1.25 1.5 1.25 3 3 C3 4.32 3 5.64 3 7 C2.01 7 1.02 7 0 7 C-1.125 2.25 -1.125 2.25 0 0 Z " fill="#80AC92" transform="translate(960,438)"/>
<path d="M0 0 C1.32 1.65 2.64 3.3 4 5 C3.01 5.33 2.02 5.66 1 6 C-0.5 4.625 -0.5 4.625 -2 3 C-2 2.34 -2 1.68 -2 1 C-1.34 0.67 -0.68 0.34 0 0 Z " fill="#DF68A0" transform="translate(913,452)"/>
</svg>
