<?xml version="1.0" encoding="UTF-8"?>
<svg version="1.1" xmlns="http://www.w3.org/2000/svg" width="1419" height="649">
<path d="M0 0 C468.27 0 936.54 0 1419 0 C1419 214.17 1419 428.34 1419 649 C950.73 649 482.46 649 0 649 C0 434.83 0 220.66 0 0 Z " fill="#070707" transform="translate(0,0)"/>
<path d="M0 0 C37.29 0 74.58 0 113 0 C113.58356165 37.90698755 113.58356165 37.90698755 113.74169922 49.57519531 C113.75832159 50.80164064 113.75832159 50.80164064 113.77527976 52.05286264 C114.16670121 81.24133387 114.33764837 110.43187606 114.51740873 139.62226987 C114.56839163 147.88236388 114.62266668 156.14243554 114.67708123 164.40250754 C114.78812065 181.26831748 114.89546156 198.13414848 115 215 C115.81198097 213.27067986 115.81198097 213.27067986 116.6403656 211.50642395 C126.18823882 191.30478108 136.24164336 171.35203318 146.23273396 151.367275 C147.7966234 148.2387792 149.3599409 145.10999827 150.92306328 141.98111916 C156.38282172 131.05240973 161.8445968 120.12471104 167.30834961 109.19799805 C172.39558068 99.02414068 177.47830761 88.84804171 182.55901438 78.67092484 C186.93685302 69.90220037 191.31775136 61.13500919 195.70106596 52.36902076 C198.31295295 47.14550184 200.92359077 41.92136774 203.5311451 36.69568443 C205.97286675 31.80260351 208.418375 26.9114344 210.86687469 22.02174187 C211.76563988 20.22526154 212.66302882 18.42809196 213.55896568 16.63019943 C214.77795206 14.18456556 216.00179542 11.74142518 217.22694397 9.2988739 C217.58325506 8.58110816 217.93956615 7.86334242 218.30667454 7.12382621 C219.67602416 4.40431914 220.83191696 2.16808304 223 0 C224.97962379 -0.24609566 224.97962379 -0.24609566 227.45449829 -0.24050903 C228.39121872 -0.24325836 229.32793915 -0.24600769 230.29304504 -0.24884033 C231.32378647 -0.24164978 232.35452789 -0.23445923 233.41650391 -0.22705078 C234.49944229 -0.22734283 235.58238068 -0.22763489 236.69813538 -0.22793579 C240.29102488 -0.22653828 243.88370906 -0.21095718 247.4765625 -0.1953125 C249.96235033 -0.19158387 252.44813962 -0.18873619 254.93392944 -0.18673706 C260.81649086 -0.17987126 266.69897602 -0.16409547 272.58150613 -0.14403808 C279.93453258 -0.11950986 287.28756813 -0.10875255 294.640625 -0.09765625 C307.76045437 -0.07618531 320.8802225 -0.04241768 334 0 C333.43971455 3.51839589 332.89794696 6.7029257 331.49609375 9.984375 C331.17648682 10.73589844 330.85687988 11.48742188 330.52758789 12.26171875 C330.16785889 13.08285156 329.80812988 13.90398438 329.4375 14.75 C328.85246704 16.09771484 328.85246704 16.09771484 328.25561523 17.47265625 C317.91018625 41.03908698 306.51823707 64.14923565 295.22914124 87.2729187 C291.15014457 95.6281434 287.11108111 104.00099453 283.11547852 112.39648438 C280.51246592 117.85821989 277.88359217 123.306665 275.234375 128.74609375 C267.1916703 145.26291867 259.29839947 161.83257807 251.60644531 178.51660156 C241.96314568 199.42702696 232.06462425 220.19678301 221.97027588 240.89306641 C218.37635605 248.26807819 214.83542664 255.66801899 211.30981445 263.07592773 C210.91109131 263.91325439 210.51236816 264.75058105 210.1015625 265.61328125 C209.73885254 266.37930664 209.37614258 267.14533203 209.00244141 267.93457031 C208.1307371 269.73062936 207.19562159 271.49564111 206.25 273.25390625 C202.15719403 282.24528937 205.4820099 291.80723582 208.68310547 300.54785156 C211.95331953 309.13588141 215.50621227 317.6144312 219.05419922 326.09057617 C223.11022952 335.7866821 227.02718978 345.53199014 230.875 355.3125 C231.17702332 356.07990509 231.47904663 356.84731018 231.79022217 357.63796997 C233.8079949 362.76719546 235.82141563 367.89812344 237.83422852 373.02929688 C240.01765054 378.59325063 242.20440766 384.15589415 244.390625 389.71875 C248.19730004 399.40598079 252.00335834 409.09345361 255.80859375 418.78125 C256.26183517 419.93512207 256.7150766 421.08899414 257.18205261 422.27783203 C259.4614968 428.08131547 261.73979747 433.88524432 264.01626587 439.68989563 C265.40538575 443.2312716 266.79584405 446.77211989 268.1875 450.3125 C268.4450708 450.96779694 268.7026416 451.62309387 268.96801758 452.29824829 C272.2842975 460.72791677 275.67797431 469.12297141 279.125 477.5 C286.49214783 495.43050017 293.38785508 513.54880751 300.37481689 531.62974548 C304.06438335 541.17466288 307.77546052 550.71109526 311.4972229 560.24349976 C312.48817346 562.78220175 313.47793888 565.32136327 314.4675293 567.8605957 C317.43099996 575.45948799 320.41151857 583.05076667 323.4375 590.625 C324.21516666 592.57814086 324.99248336 594.53142072 325.76977539 596.48471069 C326.47611133 598.25270544 327.19007313 600.01764767 327.90429688 601.7824707 C328.52401367 603.33840942 328.52401367 603.33840942 329.15625 604.92578125 C329.51525391 605.81692627 329.87425781 606.70807129 330.24414062 607.6262207 C331 610 331 610 331 614 C288.1 614 245.2 614 201 614 C195.07463766 601.55673909 189.54265428 589.87329625 185.00601196 577.00579834 C183.5589143 572.90713605 182.07233849 568.82282285 180.5859375 564.73828125 C180.28712173 563.91598022 179.98830597 563.0936792 179.68043518 562.24645996 C176.74389571 554.21232928 173.56724832 546.28465343 170.3125 538.375 C169.9110376 537.39826324 169.9110376 537.39826324 169.50146484 536.40179443 C168.44005032 533.82002092 167.37832877 531.23837492 166.31524658 528.6572876 C161.72739396 517.49800549 157.36593187 506.24753001 153 495 C152.61440918 494.00838867 152.22881836 493.01677734 151.83154297 491.99511719 C150.75775814 489.2277854 149.6899237 486.45825232 148.625 483.6875 C148.32746826 482.91897705 148.02993652 482.1504541 147.72338867 481.35864258 C145.99356529 476.8260306 144.44748656 472.26771992 142.9765625 467.64453125 C138.50682271 453.88897865 132.66335608 440.58660653 127.20019531 427.20263672 C125.70341822 423.53421933 124.21907626 419.86082152 122.734375 416.1875 C122.27399841 415.06762695 121.81362183 413.94775391 121.33929443 412.79394531 C117.84043838 404.11615772 117.84043838 404.11615772 117.39160156 399.98828125 C117.19310408 396.57557534 117.19310408 396.57557534 114 393 C113.67 430.29 113.34 467.58 113 506 C106.73 507.65 100.46 509.3 94 511 C89.12737695 512.41870973 84.27911301 513.85988891 79.4375 515.375 C78.46574829 515.67715424 78.46574829 515.67715424 77.47436523 515.9854126 C63.0645702 520.48167932 48.87702452 525.59935605 34.71655273 530.82177734 C9.66601105 540 9.66601105 540 0 540 C0 361.8 0 183.6 0 0 Z " fill="#CFA77E" transform="translate(24,25)"/>
<path d="M0 0 C2.3125 1.9375 2.3125 1.9375 4 4 C4 4.66 4 5.32 4 6 C4.99 6.33 5.98 6.66 7 7 C8.04882812 8.81445312 8.04882812 8.81445312 9.03125 11.28125 C9.61338257 12.72238159 9.61338257 12.72238159 10.20727539 14.19262695 C10.84717407 15.82977661 10.84717407 15.82977661 11.5 17.5 C11.96720459 18.67071045 12.43440918 19.8414209 12.91577148 21.04760742 C14.63111737 25.35705777 16.31652264 29.67801951 18 34 C18.33574036 34.86111389 18.67148071 35.72222778 19.01739502 36.60943604 C23.3647603 47.76371262 27.68805469 58.92724899 32.00390625 70.09375 C36.42672201 81.53526956 40.8816637 92.96400242 45.35427856 104.38613892 C46.48758286 107.28078459 47.61972961 110.17588091 48.75170898 113.07104492 C52.0007142 121.37602276 55.26172983 129.67559169 58.5703125 137.95703125 C59.09973852 139.28665106 59.62904063 140.61632021 60.15820312 141.94604492 C61.10145812 144.3118754 62.05022935 146.67551798 63.00585938 149.03637695 C63.61010742 150.5536438 63.61010742 150.5536438 64.2265625 152.1015625 C64.57283691 152.96088379 64.91911133 153.82020508 65.27587891 154.70556641 C66 157 66 157 66 161 C23.1 161 -19.8 161 -64 161 C-69.92536234 148.55673909 -75.45734572 136.87329625 -79.99398804 124.00579834 C-81.4410857 119.90713605 -82.92766151 115.82282285 -84.4140625 111.73828125 C-84.71287827 110.91598022 -85.01169403 110.0936792 -85.31956482 109.24645996 C-88.25610429 101.21232928 -91.43275168 93.28465343 -94.6875 85.375 C-94.9551416 84.72384216 -95.2227832 84.07268433 -95.49853516 83.40179443 C-96.55994968 80.82002092 -97.62167123 78.23837492 -98.68475342 75.6572876 C-102.83952543 65.5514109 -106.79875853 55.36785959 -110.75537109 45.18310547 C-111.96254804 42.09578239 -113.19142601 39.017947 -114.42578125 35.94140625 C-115.15920954 34.08607794 -115.8923034 32.23061738 -116.625 30.375 C-116.95604736 29.56458252 -117.28709473 28.75416504 -117.62817383 27.91918945 C-119.82287349 22.29744069 -120.6757167 17.01901436 -121 11 C-120.01 11 -119.02 11 -118 11 C-117.014733 13.22664317 -116.03668556 15.45601317 -115.0625 17.6875 C-114.64581055 18.62625977 -114.64581055 18.62625977 -114.22070312 19.58398438 C-112.7133576 23.05269515 -111.6710241 26.28848493 -111 30 C-96.61504045 27.75871735 -82.98982109 24.27243411 -69.25 19.5625 C-68.14910538 19.18558517 -68.14910538 19.18558517 -67.02597046 18.80105591 C-65.50424668 18.27971757 -63.98255443 17.75828719 -62.46089172 17.23677063 C-61.68360214 16.9704332 -60.90631256 16.70409576 -60.10546875 16.4296875 C-59.31452316 16.15839523 -58.52357758 15.88710297 -57.70866394 15.60758972 C-48.0525645 12.31079114 -38.33614525 9.20569914 -28.60266113 6.14596558 C-26.58432893 5.50964998 -24.56745969 4.86867433 -22.55212402 4.22293091 C-19.72700101 3.31822406 -16.89753152 2.42868481 -14.06640625 1.54296875 C-13.22217606 1.26965729 -12.37794586 0.99634583 -11.50813293 0.7147522 C-4.14172739 -1.55479016 -4.14172739 -1.55479016 0 0 Z " fill="#F76BBD" transform="translate(289,478)"/>
<path d="M0 0 C0.87406494 0.00088623 1.74812988 0.00177246 2.64868164 0.00268555 C11.52674537 0.16512435 18.73236976 2.41034146 26.125 7.375 C27.70703125 9.2421875 27.70703125 9.2421875 28.9375 11.25 C29.35644531 11.90742188 29.77539062 12.56484375 30.20703125 13.2421875 C31.28944804 15.75707928 31.29027639 17.66446728 31.125 20.375 C31.90101563 19.818125 32.67703125 19.26125 33.4765625 18.6875 C53.09982321 4.75516927 69.02710663 -1.84708843 93.57421875 0.73828125 C101.03285 2.30235941 106.24514779 6.65003372 111.125 12.375 C116.18459662 20.35517678 117.4273625 29.90537191 117.39624023 39.18017578 C117.40146698 40.00905304 117.40669373 40.8379303 117.41207886 41.69192505 C117.42224513 43.47441869 117.42808625 45.2569414 117.42996025 47.03946304 C117.43365222 49.86505997 117.45045326 52.69031474 117.47071838 55.51583862 C117.52587691 63.5432092 117.55684529 71.57062772 117.58129883 79.59814453 C117.59720028 84.52343963 117.62743677 89.44848693 117.66606331 94.37365341 C117.67768001 96.24345134 117.68364337 98.11329358 117.68374443 99.98312759 C117.68393717 102.59855228 117.70225101 105.21329494 117.72436523 107.82861328 C117.71978806 108.59347046 117.71521088 109.35832764 117.710495 110.1463623 C117.77886027 115.24999431 118.73278699 118.84125195 121.125 123.375 C123.31039195 125.02165363 123.31039195 125.02165363 125.8125 125.8125 C126.62074219 126.12058594 127.42898438 126.42867188 128.26171875 126.74609375 C129.18404297 127.05740234 129.18404297 127.05740234 130.125 127.375 C130.125 129.685 130.125 131.995 130.125 134.375 C109.665 134.375 89.205 134.375 68.125 134.375 C69.115 130.415 69.115 130.415 70.125 126.375 C73.125 124.6875 73.125 124.6875 76.125 123.375 C78.69640567 118.93591739 78.42748257 114.31161416 78.43139648 109.33374023 C78.44388176 107.9816597 78.44388176 107.9816597 78.45661926 106.6022644 C78.48067216 103.62933003 78.4894838 100.65661503 78.49609375 97.68359375 C78.50506066 95.61523879 78.51418252 93.5468845 78.52345276 91.47853088 C78.53993036 87.14688541 78.54764117 82.81531715 78.55053711 78.48364258 C78.55593264 72.92930159 78.59366643 67.37568381 78.63928127 61.82154751 C78.66899216 57.55191886 78.6762593 53.28246606 78.67726326 49.012743 C78.68147415 46.96456639 78.69394309 44.91638967 78.71478081 42.86831474 C78.74158321 40.00728526 78.73690418 37.14795538 78.72436523 34.28686523 C78.73919952 33.43948288 78.75403381 32.59210052 78.76931763 31.71903992 C78.71956436 26.76397501 78.71956436 26.76397501 75.71253967 22.88050842 C70.79951315 20.0219618 67.11972194 20.12279745 61.5 20.0625 C60.18322266 20.01899414 60.18322266 20.01899414 58.83984375 19.97460938 C51.25176206 19.90132181 46.43617446 21.72751371 40.54536438 26.43757629 C37.45615902 30.18672462 37.436709 33.07911412 37.52563477 37.72607422 C37.52169205 38.55436737 37.51774933 39.38266052 37.51368713 40.23605347 C37.50698713 42.96788478 37.53612264 45.69803558 37.56640625 48.4296875 C37.57065866 50.33390988 37.57298518 52.23813744 37.57347107 54.1423645 C37.57963433 58.13209557 37.6023197 62.12126477 37.63793945 66.11083984 C37.68314998 71.21404196 37.69796258 76.31673444 37.70167637 81.42011833 C37.70611573 85.35276272 37.72143957 89.28530111 37.7405529 93.21789932 C37.74940706 95.09887956 37.75615059 96.979871 37.76071358 98.86086655 C37.76980393 101.49581414 37.79223773 104.13031223 37.81860352 106.76513672 C37.81926819 107.53627808 37.81993286 108.30741943 37.82061768 109.10192871 C37.8861727 113.87318301 38.49051726 117.87406649 40.125 122.375 C42.38062317 124.23568554 44.63848542 125.37963203 47.2265625 126.72265625 C47.85304688 127.26792969 48.47953125 127.81320312 49.125 128.375 C49.125 130.355 49.125 132.335 49.125 134.375 C28.665 134.375 8.205 134.375 -12.875 134.375 C-10.875 126.375 -10.875 126.375 -9 124.5 C-8.29875 124.12875 -7.5975 123.7575 -6.875 123.375 C-5.823125 122.7871875 -5.823125 122.7871875 -4.75 122.1875 C-2.875 121.375 -2.875 121.375 -0.875 121.375 C-0.80550155 109.20531248 -0.75218941 97.03567214 -0.71956348 84.86582661 C-0.70390499 79.21492314 -0.68266313 73.56415542 -0.64868164 67.91333008 C-0.6160951 62.46037142 -0.59814837 57.00754337 -0.59036827 51.55449486 C-0.58482352 49.47366467 -0.57399607 47.39284165 -0.55780983 45.31206703 C-0.53604517 42.39839839 -0.5330327 39.48527 -0.53442383 36.5715332 C-0.523638 35.71054016 -0.51285217 34.84954712 -0.5017395 33.96246338 C-0.52587112 29.2941006 -0.78435867 26.13379998 -3.875 22.375 C-10.77866935 19.13146569 -20.59711194 18.57571998 -27.91601562 21.07080078 C-31.07925672 22.46547409 -33.99906327 24.09421847 -36.984375 25.84375 C-39.875 27.375 -39.875 27.375 -43.875 27.375 C-43.79042483 38.17192095 -43.6954753 48.96869692 -43.58747292 59.76541042 C-43.53763884 64.77937011 -43.49130808 69.79331003 -43.453125 74.80737305 C-43.41610887 79.65095998 -43.36970554 84.49437622 -43.31693649 89.33781624 C-43.29847899 91.18083753 -43.28333953 93.02389529 -43.27165604 94.86697197 C-43.25464471 97.45893513 -43.22557565 100.05051469 -43.19384766 102.64233398 C-43.19168747 103.39543854 -43.18952728 104.14854309 -43.18730164 104.92446899 C-43.0602412 114.35400327 -43.0602412 114.35400327 -39.03515625 122.49609375 C-37.99681641 123.14771484 -37.99681641 123.14771484 -36.9375 123.8125 C-36.24785156 124.26496094 -35.55820312 124.71742188 -34.84765625 125.18359375 C-34.19667969 125.57675781 -33.54570313 125.96992188 -32.875 126.375 C-31.885 127.035 -30.895 127.695 -29.875 128.375 C-29.875 130.355 -29.875 132.335 -29.875 134.375 C-50.995 134.375 -72.115 134.375 -93.875 134.375 C-93.215 131.405 -92.555 128.435 -91.875 125.375 C-86.925 124.88 -86.925 124.88 -81.875 124.375 C-81.88985131 111.64899785 -81.93133875 98.92339056 -82.00709057 86.19759655 C-82.04142073 80.2888243 -82.06647994 74.38031226 -82.07055664 68.47143555 C-82.07482663 62.77185626 -82.10318151 57.07286456 -82.14843178 51.3734684 C-82.1614484 49.19614391 -82.16569983 47.01874926 -82.16115379 44.84139061 C-82.15627746 41.79750028 -82.1822086 38.75534708 -82.21557617 35.71166992 C-82.20695053 34.80608337 -82.19832489 33.90049683 -82.18943787 32.96746826 C-82.23197369 30.66166531 -82.31021554 28.61072707 -82.875 26.375 C-86.10779875 23.59212565 -89.81319896 22.60298636 -93.875 21.375 C-93.875 19.065 -93.875 16.755 -93.875 14.375 C-89.18606375 12.50615457 -84.49049285 10.65548833 -79.78808594 8.82080078 C-78.19177017 8.19513027 -76.59732398 7.56466657 -75.00488281 6.92919922 C-72.70601144 6.01281557 -70.40080724 5.11429278 -68.09375 4.21875 C-67.39133179 3.93439087 -66.68891357 3.65003174 -65.96520996 3.35705566 C-59.94174424 1.05191961 -54.98938689 1.13995193 -48.5625 1.625 C-45.06025399 3.90553229 -45.00833164 5.51357259 -44 9.5 C-43.60012628 11.45340612 -43.21740012 13.41070455 -42.875 15.375 C-38.86360866 15.375 -36.79475785 13.40303395 -33.6875 11.125 C-22.73754076 3.35137637 -13.50911685 -0.02477302 0 0 Z " fill="#EC848A" transform="translate(782.875,251.625)"/>
<path d="M0 0 C37.29 0 74.58 0 113 0 C113.16065467 30.91709941 113.16065467 30.91709941 113.20101547 46.20284081 C113.22316991 54.46556175 113.25128406 62.72812095 113.30175781 70.99072266 C113.34170473 77.53320717 113.3674515 84.07556956 113.37635398 90.61817265 C113.38155555 94.08049202 113.39372654 97.54246209 113.42292023 101.00466919 C113.45529346 104.87557377 113.45595437 108.74614081 113.45410156 112.6171875 C113.46848267 113.75726761 113.48286377 114.89734772 113.49768066 116.07197571 C113.46274777 122.82371635 112.73350835 127.30174472 109 133 C106.21770084 134.47536716 104.21736492 135.2848818 101.25 136.0625 C100.47575684 136.29163086 99.70151367 136.52076172 98.90380859 136.75683594 C97.20174514 137.25687341 95.49557227 137.74307611 93.78613281 138.21728516 C90.80928733 139.05357736 87.85471094 139.949244 84.8984375 140.85546875 C82.80776102 141.48853128 80.71661923 142.12005928 78.625 142.75 C77.65208008 143.04398682 76.67916016 143.33797363 75.67675781 143.64086914 C69.66943821 145.39562812 63.82962565 146.57562285 57.60693359 147.28613281 C54.41682179 148.15969405 53.19780461 149.58801873 51 152 C42.51554904 155.53419626 33.19118583 156.76858082 24.13452148 157.96118164 C22.08009078 158.24506892 20.03787676 158.61485611 18 159 C17.67 159.66 17.34 160.32 17 161 C14.3828125 161.8515625 14.3828125 161.8515625 11.125 162.625 C10.05507813 162.88539063 8.98515625 163.14578125 7.8828125 163.4140625 C5 164 5 164 2 164 C2 151.79 2 139.58 2 127 C1.34 127 0.68 127 0 127 C0 85.09 0 43.18 0 0 Z " fill="#6DC5C0" transform="translate(24,25)"/>
<path d="M0 0 C0.7536621 12.76414954 1.20219363 25.53223064 1.5625 38.3125 C1.58464569 39.07405396 1.60679138 39.83560791 1.62960815 40.62023926 C1.92155054 50.75016373 2.05861233 60.86564986 2 71 C2.66 71 3.32 71 4 71 C4 70.34 4 69.68 4 69 C6.30652112 67.44429955 8.59762786 66.01817196 11 64.625 C11.68610352 64.22087891 12.37220703 63.81675781 13.07910156 63.40039062 C23.06744299 57.5616349 30.35123319 54.80374287 42 54.75 C43.63001953 54.7190625 43.63001953 54.7190625 45.29296875 54.6875 C55.67392819 54.63788968 65.17254783 55.79157557 72.859375 63.3125 C75.47578232 66.59733255 77.49967648 69.96952598 79.4375 73.6875 C79.7677417 74.30971436 80.0979834 74.93192871 80.43823242 75.57299805 C86.06758823 87.27221671 85.31545187 100.94839066 85.37890625 113.62890625 C85.39511982 115.39437241 85.4123037 117.15982989 85.43040466 118.92527771 C85.47569374 123.53162627 85.51071422 128.13798708 85.54260254 132.7444458 C85.59487055 140.14710293 85.65971717 147.54963345 85.73081779 154.95213127 C85.75357655 157.52907525 85.76988411 160.106003 85.78553772 162.68299866 C85.79894196 164.2581501 85.81255655 165.83329977 85.82641602 167.40844727 C85.83033607 168.47832886 85.83033607 168.47832886 85.83433533 169.56982422 C85.80053874 174.39444425 85.80053874 174.39444425 87 179 C89.91666667 180.25 89.91666667 180.25 93 181 C93.66 181.33 94.32 181.66 95 182 C95 184.31 95 186.62 95 189 C74.87 189 54.74 189 34 189 C35 181 35 181 36.8125 179.5 C39 179 39 179 43 179 C43 145.01 43 111.02 43 76 C33.01513417 72.67171139 18.33441177 73.6901627 8.92578125 78.125 C7 79 7 79 4 79 C3.93050332 91.30007173 3.87719031 103.60009678 3.84456348 115.90032482 C3.82890461 121.61176168 3.80766204 127.32306425 3.77368164 133.03442383 C3.74109648 138.54573703 3.72314866 144.05692104 3.71536827 149.56832314 C3.70982328 151.6714818 3.69899534 153.77463335 3.68280983 155.87773705 C3.66104702 158.82253705 3.65803263 161.76680249 3.65942383 164.71166992 C3.648638 165.5820137 3.63785217 166.45235748 3.6267395 167.34907532 C3.65087948 172.0683089 3.94735298 175.15779009 7 179 C8.7651936 180.39962481 8.7651936 180.39962481 10.6875 181.3125 C11.780625 181.869375 12.87375 182.42625 14 183 C14 184.98 14 186.96 14 189 C-7.12 189 -28.24 189 -50 189 C-50 187.02 -50 185.04 -50 183 C-48.13671875 181.20703125 -48.13671875 181.20703125 -45.6875 179.8125 C-40.02004735 176.56182304 -40.02004735 176.56182304 -37 171 C-36.90481659 169.10035123 -36.86936605 167.1975006 -36.86628723 165.29547119 C-36.86202225 164.10665344 -36.85775726 162.91783569 -36.85336304 161.69299316 C-36.85381622 160.38697144 -36.85426941 159.08094971 -36.85473633 157.73535156 C-36.8517444 156.34726877 -36.8483418 154.95918682 -36.84455872 153.57110596 C-36.83571596 149.79820221 -36.83338043 146.02532114 -36.83274293 142.25240803 C-36.83203236 139.8943006 -36.82989786 137.53619895 -36.82724571 135.17809296 C-36.81799003 126.94847752 -36.81391094 118.71887828 -36.81469727 110.48925781 C-36.8152975 102.82364261 -36.80475685 95.15809791 -36.7889536 87.49250054 C-36.77586414 80.90809303 -36.77051399 74.32370851 -36.77115268 67.73928809 C-36.77140733 63.80824542 -36.76857421 59.87726534 -36.75797462 55.94623566 C-36.74827045 52.2460774 -36.74823031 48.54604124 -36.75549126 44.8458786 C-36.75703024 42.8469534 -36.74870576 40.84802815 -36.74005127 38.84912109 C-36.74900885 30.22737543 -36.74900885 30.22737543 -39 22 C-41.09230765 20.13388378 -41.09230765 20.13388378 -43.625 19.0625 C-44.44226562 18.66160156 -45.25953125 18.26070312 -46.1015625 17.84765625 C-46.72804688 17.56792969 -47.35453125 17.28820312 -48 17 C-48 14.69 -48 12.38 -48 10 C-32.07582996 4.63395985 -16.96467957 -0.32789237 0 0 Z " fill="#E98288" transform="translate(1299,197)"/>
<path d="M0 0 C9.4173139 9.37137579 13.80315791 19.13413327 13.99633789 32.56689453 C14.01453079 33.31920349 14.03272369 34.07151245 14.0514679 34.84661865 C14.10902682 37.30649378 14.15404193 39.76643172 14.19921875 42.2265625 C14.23789288 43.94955482 14.27749448 45.67252654 14.31797791 47.39547729 C14.42223464 51.91390014 14.51643712 56.43247048 14.60772705 60.95117188 C14.75506903 68.18960617 14.91515436 75.42774839 15.08019829 82.66579819 C15.13582517 85.18607735 15.1855549 87.70642309 15.2346344 90.22683716 C15.26829212 91.77769378 15.30213156 93.32854647 15.33618164 94.87939453 C15.34814575 95.57461212 15.36010986 96.26982971 15.37243652 96.9861145 C15.46518094 100.94109509 15.85570383 104.70895662 16.6015625 108.59375 C17.36082031 108.65433594 18.12007812 108.71492188 18.90234375 108.77734375 C20.39314453 108.90302734 20.39314453 108.90302734 21.9140625 109.03125 C23.39326172 109.15306641 23.39326172 109.15306641 24.90234375 109.27734375 C27.6015625 109.59375 27.6015625 109.59375 30.6015625 110.59375 C30.89911867 113.519719 31.10548589 115.73995226 30.6015625 118.59375 C25.74253268 123.92683151 19.86664592 126.64250016 12.67578125 127.0625 C-6.54367213 127.43442086 -6.54367213 127.43442086 -13.3984375 121.59375 C-16.6100387 118.41610833 -19.56845862 115.11413435 -22.3984375 111.59375 C-27.34584895 114.4105244 -31.63804869 117.88220818 -36.0703125 121.4375 C-43.80419246 126.44818279 -51.2682687 127.1165761 -60.3359375 127.09375 C-61.35623047 127.12210938 -62.37652344 127.15046875 -63.42773438 127.1796875 C-72.37951548 127.20253825 -78.38678462 124.37104815 -85.6484375 119.34375 C-93.93561828 111.05656922 -96.88143189 102.6648262 -96.90258789 91.06884766 C-96.71492086 84.29676983 -94.81576032 79.78655838 -90.3984375 74.59375 C-89.88023437 73.96339844 -89.36203125 73.33304687 -88.828125 72.68359375 C-84.15340181 67.54591489 -78.36293504 64.05781055 -72.3984375 60.59375 C-71.61726562 60.12839844 -70.83609375 59.66304688 -70.03125 59.18359375 C-58.34674857 52.7512167 -44.15880722 50.37427625 -30.9609375 50.53125 C-30.22939453 50.53576172 -29.49785156 50.54027344 -28.74414062 50.54492188 C-26.96220331 50.55656852 -25.18030887 50.57449809 -23.3984375 50.59375 C-23.44294782 45.64926758 -23.51314693 40.70601916 -23.60595703 35.76220703 C-23.63397664 34.08457321 -23.65528459 32.40681204 -23.66943359 30.72900391 C-23.50379058 17.07976209 -23.50379058 17.07976209 -28.3984375 4.59375 C-31.47535516 2.54247156 -32.33488749 2.32114128 -35.84765625 2.1796875 C-36.69521484 2.14101563 -37.54277344 2.10234375 -38.41601562 2.0625 C-39.29708984 2.0315625 -40.17816406 2.000625 -41.0859375 1.96875 C-41.97861328 1.93007813 -42.87128906 1.89140625 -43.79101562 1.8515625 C-45.9932837 1.75734782 -48.19554472 1.67173412 -50.3984375 1.59375 C-51.86324654 6.37038731 -53.29394419 11.14395904 -54.53515625 15.984375 C-58.71277148 32.10809223 -58.71277148 32.10809223 -63.3984375 37.59375 C-69.57303684 40.18253386 -75.80618007 40.56006848 -82.3984375 39.59375 C-86.00109529 37.65248316 -88.56524852 35.26012796 -90.3984375 31.59375 C-91.41196404 21.56112022 -91.00775853 12.73009229 -84.3984375 4.59375 C-65.12293085 -12.98613574 -20.50395228 -17.70385307 0 0 Z " fill="#F07B9B" transform="translate(650.3984375,261.40625)"/>
<path d="M0 0 C3.99253949 3.70268299 7.25099427 7.75530587 10.3125 12.25 C10.97121094 13.13171875 11.62992188 14.0134375 12.30859375 14.921875 C20.70584198 28.2358219 17.3125 37.79028761 17.3125 55.25 C-9.4175 55.25 -36.1475 55.25 -63.6875 55.25 C-61.8378796 71.89658359 -59.72647771 85.89410171 -49.6875 99.25 C-46.80070963 101.35939526 -44.15167891 102.44907142 -40.6875 103.25 C-40.10129883 103.41927002 -39.51509766 103.58854004 -38.91113281 103.76293945 C-34.10083343 104.81657881 -29.09138041 104.56466143 -24.1875 104.625 C-23.06601563 104.66238281 -21.94453125 104.69976562 -20.7890625 104.73828125 C-9.9056216 104.8513886 -1.01244654 101.59436639 7.5625 94.9375 C8.47515625 94.24011719 9.3878125 93.54273438 10.328125 92.82421875 C10.98296875 92.30472656 11.6378125 91.78523438 12.3125 91.25 C14.3125 93.25 14.3125 93.25 14.875 96.8125 C14.68441173 102.66779517 11.31386537 106.26262542 7.3125 110.25 C-6.03307732 121.83051709 -19.28494154 126.42360827 -36.75 126.5 C-37.90177734 126.520625 -39.05355469 126.54125 -40.24023438 126.5625 C-59.05052754 126.6468984 -74.28038893 120.40487888 -87.6875 107.25 C-99.50054803 93.15948145 -102.87340743 78.34269085 -102.8125 60.375 C-102.81636719 59.24191406 -102.82023438 58.10882813 -102.82421875 56.94140625 C-102.80163452 37.45121226 -97.91079195 21.32914907 -84.0625 7.0625 C-76.14198338 -0.76148611 -66.66872832 -7.25341305 -55.6875 -9.75 C-54.79933594 -9.95238281 -53.91117188 -10.15476563 -52.99609375 -10.36328125 C-34.72597268 -13.93945675 -14.97394259 -11.96593205 0 0 Z " fill="#EE8787" transform="translate(1101.6875,262.75)"/>
<path d="M0 0 C1.1866626 0.00563965 2.3733252 0.0112793 3.59594727 0.01708984 C17.67147991 0.21227469 26.49387365 2.74693682 39.625 9.3125 C38.965 19.2125 38.305 29.1125 37.625 39.3125 C34.655 39.3125 31.685 39.3125 28.625 39.3125 C28.11710937 38.40628906 27.60921875 37.50007813 27.0859375 36.56640625 C20.19288381 22.84777119 20.19288381 22.84777119 9.625 12.3125 C0.18218514 9.98738478 -8.67859178 10.92022625 -17.375 15.3125 C-19.7958446 17.40372067 -21.24011899 19.01757812 -21.58032227 22.28369141 C-21.61697998 23.06921387 -21.6536377 23.85473633 -21.69140625 24.6640625 C-21.73330078 25.51484375 -21.77519531 26.365625 -21.81835938 27.2421875 C-21.85767578 28.13164062 -21.89699219 29.02109375 -21.9375 29.9375 C-21.98068359 30.8346875 -22.02386719 31.731875 -22.06835938 32.65625 C-22.17456861 34.87484283 -22.27661194 37.0935488 -22.375 39.3125 C-21.08372192 39.73571533 -21.08372192 39.73571533 -19.76635742 40.16748047 C-5.20405579 45.08413115 9.21570466 50.80215525 23.4375 56.625 C24.16348389 56.9132666 24.88946777 57.2015332 25.63745117 57.49853516 C36.35965063 61.97866144 44.02984096 69.53154928 48.5625 80.3125 C51.20411952 89.57467845 51.36038274 102.36688855 47.0703125 111.08203125 C41.50158363 119.67593445 34.5547552 125.45034909 25.625 130.3125 C24.60277344 130.88226563 23.58054687 131.45203125 22.52734375 132.0390625 C14.44335674 136.18419314 7.63297103 137.25068059 -1.375 137.3125 C-3.01570616 137.37148184 -4.6563285 137.43282632 -6.296875 137.49609375 C-21.90389533 137.95912421 -38.31264379 136.85701915 -51.375 127.3125 C-52.86179725 124.33890551 -52.48612605 121.64950821 -52.47265625 118.3359375 C-52.47053383 117.30806625 -52.47053383 117.30806625 -52.46836853 116.25942993 C-52.46276675 114.06874239 -52.45021406 111.8781567 -52.4375 109.6875 C-52.43248522 108.20312648 -52.42792228 106.71875135 -52.42382812 105.234375 C-52.41279677 101.59371685 -52.39553099 97.95311836 -52.375 94.3125 C-44.65599998 94.23418169 -44.65599998 94.23418169 -41.375 96.3125 C-39.45557832 99.03798614 -37.99749277 101.96469734 -36.5 104.9375 C-31.41966386 114.49401912 -26.30010222 123.78409661 -15.375 127.3125 C-4.52990745 128.91238064 5.52235387 126.38093076 14.625 120.3125 C17.3734594 113.87138257 17.75542087 107.1832141 16.625 100.3125 C11.00829777 90.80857863 -4.14472862 87.3550235 -14 83.8125 C-25.59595035 79.62861733 -35.00107137 74.39814911 -44.375 66.3125 C-45.344375 65.52875 -46.31375 64.745 -47.3125 63.9375 C-53.97036306 55.46385611 -53.21689636 43.55807802 -52.375 33.3125 C-50.56492523 22.19562414 -41.72386363 13.15994318 -33.0625 6.546875 C-23.07077988 -0.05022226 -11.64285699 -0.05801125 0 0 Z " fill="#F1838C" transform="translate(1188.375,251.6875)"/>
<path d="M0 0 C1.06915272 0.00828323 2.13830544 0.01656647 3.23985672 0.02510071 C4.45322268 0.04107552 4.45322268 0.04107552 5.69110107 0.05737305 C5.69256763 0.91490394 5.69403419 1.77243483 5.6955452 2.6559515 C5.73262585 23.53890001 5.79165736 44.42168639 5.87500381 65.30450344 C5.91478268 75.40336301 5.94718105 85.50214479 5.96209717 95.60107422 C5.97511963 104.40515209 6.00209955 113.20905871 6.04571414 122.01304013 C6.06831552 126.67303973 6.08401255 131.33282822 6.08298492 135.9928875 C6.08223753 140.3834412 6.10022001 144.77352844 6.13226891 149.16396141 C6.1407538 150.77110414 6.14252743 152.37829927 6.13690376 153.98545456 C6.00291694 166.1004986 6.00291694 166.1004986 10.69110107 177.05737305 C12.70745886 178.84422267 12.70745886 178.84422267 14.94110107 179.68237305 C17.08172607 180.59643555 17.08172607 180.59643555 18.69110107 182.05737305 C18.69110107 184.36737305 18.69110107 186.67737305 18.69110107 189.05737305 C-2.09889893 189.05737305 -22.88889893 189.05737305 -44.30889893 189.05737305 C-43.30889893 181.05737305 -43.30889893 181.05737305 -41.75030518 179.40112305 C-36.53112115 177.05737305 -36.53112115 177.05737305 -34.30889893 177.05737305 C-33.52225707 172.88211083 -33.17574324 168.92556659 -33.15068054 164.67922974 C-33.14089172 163.4172728 -33.13110291 162.15531586 -33.12101746 160.8551178 C-33.11511446 159.46957435 -33.10930393 158.08403051 -33.10357666 156.69848633 C-33.09398952 155.22963694 -33.08397896 153.76079026 -33.07357788 152.29194641 C-33.04661327 148.31517321 -33.02555816 144.33838824 -33.0055759 140.36157465 C-32.98366407 136.20154855 -32.95630087 132.04155837 -32.92951965 127.88156128 C-32.87966289 120.00881125 -32.83469811 112.1360412 -32.79149729 104.26325214 C-32.74206485 95.29832637 -32.68716904 86.33343665 -32.6318177 77.36854577 C-32.5181054 58.93152169 -32.41124306 40.49446356 -32.30889893 22.05737305 C-33.25523193 21.74944824 -34.20156494 21.44152344 -35.17657471 21.12426758 C-38.93450744 19.84428581 -41.91373857 18.09446926 -45.30889893 16.05737305 C-45.30889893 14.07737305 -45.30889893 12.09737305 -45.30889893 10.05737305 C-39.97937002 8.61405493 -34.64500469 7.19080498 -29.30548096 5.78491211 C-27.4944942 5.30520184 -25.68487603 4.82029056 -23.87677002 4.32983398 C-21.25872927 3.62069083 -18.63613097 2.93118276 -16.01202393 2.24487305 C-15.22088196 2.02613525 -14.42973999 1.80739746 -13.61462402 1.58203125 C-8.9964679 0.39651249 -4.7772571 -0.04816042 0 0 Z " fill="#F1868D" transform="translate(967.3088989257813,196.942626953125)"/>
<path d="M0 0 C1.6041124 0.01242485 1.6041124 0.01242485 3.2406311 0.02510071 C4.4544899 0.04107552 4.4544899 0.04107552 5.69287109 0.05737305 C5.69433765 0.90882841 5.69580421 1.76028378 5.69731522 2.63754082 C5.73440673 23.37897227 5.79345261 44.12024063 5.87677383 64.86153984 C5.91654133 74.89198949 5.94894546 84.92236094 5.96386719 94.95288086 C5.97689556 103.69800518 6.00389052 112.44295727 6.04748416 121.18798459 C6.07007228 125.81615824 6.08578336 130.44411969 6.08475494 135.07235336 C6.08400676 139.43418395 6.10202063 143.7955459 6.13403893 148.15725517 C6.14251397 149.75268985 6.14430421 151.34817724 6.13867378 152.9436245 C6.11255523 161.48667315 6.16810861 169.51100931 10.69287109 177.05737305 C12.91470877 179.19814145 12.91470877 179.19814145 15.44287109 180.30737305 C17.86474609 181.51049805 17.86474609 181.51049805 19.69287109 183.05737305 C19.69287109 185.03737305 19.69287109 187.01737305 19.69287109 189.05737305 C-1.42712891 189.05737305 -22.54712891 189.05737305 -44.30712891 189.05737305 C-42.30712891 180.05737305 -42.30712891 180.05737305 -40.17822266 178.11987305 C-39.37513672 177.76924805 -38.57205078 177.41862305 -37.74462891 177.05737305 C-36.93896484 176.68612305 -36.13330078 176.31487305 -35.30322266 175.93237305 C-34.31515625 175.49924805 -34.31515625 175.49924805 -33.30712891 175.05737305 C-32.02411216 173.99817143 -32.02411216 173.99817143 -32.18408108 171.56048489 C-32.18500287 170.44050641 -32.18592466 169.32052794 -32.18687439 168.16661072 C-32.18549973 166.88628464 -32.18412506 165.60595856 -32.18270874 164.28683472 C-32.18624836 162.85479713 -32.18988317 161.42275978 -32.19360352 159.99072266 C-32.19388538 158.49305727 -32.19372767 156.99539175 -32.19316101 155.49772644 C-32.192873 151.41939133 -32.19877027 147.34108537 -32.20573497 143.26275706 C-32.21196795 139.00529676 -32.21257226 134.74783586 -32.21376038 130.4903717 C-32.21687386 122.42264118 -32.22508747 114.35492413 -32.23510987 106.28719956 C-32.24627049 97.10476526 -32.25178132 87.92233032 -32.2568053 78.73989093 C-32.26727007 59.84571065 -32.28486983 40.95154293 -32.30712891 22.05737305 C-33.22751953 21.76088867 -34.14791016 21.4644043 -35.09619141 21.15893555 C-38.34093146 20.04577655 -41.27190378 18.64725287 -44.30712891 17.05737305 C-44.30712891 14.74737305 -44.30712891 12.43737305 -44.30712891 10.05737305 C-39.20088479 8.6081371 -34.08863107 7.18345223 -28.96826172 5.78491211 C-27.20628535 5.30319747 -25.44519871 4.81821551 -23.68505859 4.32983398 C-21.1047979 3.61873852 -18.51952558 2.92949443 -15.93212891 2.24487305 C-15.14999023 2.02613525 -14.36785156 1.80739746 -13.56201172 1.58203125 C-8.96160117 0.3897054 -4.76159266 -0.04798758 0 0 Z " fill="#F0868D" transform="translate(442.30712890625,196.942626953125)"/>
<path d="M0 0 C5.30681456 4.18065914 9.42544579 8.77699776 13.1875 14.375 C13.78949219 15.24511719 14.39148437 16.11523438 15.01171875 17.01171875 C20.828988 26.73428763 20.86761551 38.78184083 18.27734375 49.65234375 C14.66876646 61.97841601 6.91822127 70.99730064 -3.875 77.875 C-15.03206056 83.94472162 -26.26684274 85.1790106 -38.5625 81.75 C-46.62274384 78.9951099 -53.15973915 74.77154517 -58.8125 68.375 C-59.37839844 67.73949219 -59.94429687 67.10398437 -60.52734375 66.44921875 C-65.2139937 60.87081722 -67.77152222 55.34285426 -69.8125 48.375 C-70.00585938 47.7665625 -70.19921875 47.158125 -70.3984375 46.53125 C-72.51530958 35.50753877 -71.12835727 24.56422771 -65.3125 15 C-57.78516588 4.37975137 -48.24038808 -4.62095579 -35.12109375 -7.33984375 C-22.3328177 -8.91944468 -10.7830571 -7.33723169 0 0 Z " fill="#381738" transform="translate(1319.8125,67.625)"/>
<path d="M0 0 C0.87406494 0.00088623 1.74812988 0.00177246 2.64868164 0.00268555 C11.53904312 0.16534935 18.71216734 2.42030874 26.125 7.375 C26.875 9.75 26.875 9.75 27.125 12.375 C27.44797514 14.04370487 27.7799005 15.71072982 28.125 17.375 C27.1963916 17.38958252 26.2677832 17.40416504 25.31103516 17.41918945 C21.87033504 17.48019172 18.43044348 17.5543305 14.99023438 17.63745117 C13.50043428 17.67073463 12.01050705 17.69875597 10.52050781 17.72143555 C8.38030748 17.75492071 6.24127581 17.80722789 4.1015625 17.86328125 C2.81330566 17.88946533 1.52504883 17.91564941 0.19775391 17.94262695 C-0.81625488 18.08531006 -1.83026367 18.22799316 -2.875 18.375 C-3.865 19.86 -3.865 19.86 -4.875 21.375 C-5.54660156 21.2203125 -6.21820312 21.065625 -6.91015625 20.90625 C-18.58759632 18.81384967 -26.88907315 19.92743357 -36.984375 25.84375 C-39.875 27.375 -39.875 27.375 -43.875 27.375 C-43.79042483 38.17192095 -43.6954753 48.96869692 -43.58747292 59.76541042 C-43.53763884 64.77937011 -43.49130808 69.79331003 -43.453125 74.80737305 C-43.41610887 79.65095998 -43.36970554 84.49437622 -43.31693649 89.33781624 C-43.29847899 91.18083753 -43.28333953 93.02389529 -43.27165604 94.86697197 C-43.25464471 97.45893513 -43.22557565 100.05051469 -43.19384766 102.64233398 C-43.19168747 103.39543854 -43.18952728 104.14854309 -43.18730164 104.92446899 C-43.0602412 114.35400327 -43.0602412 114.35400327 -39.03515625 122.49609375 C-37.99681641 123.14771484 -37.99681641 123.14771484 -36.9375 123.8125 C-36.24785156 124.26496094 -35.55820312 124.71742188 -34.84765625 125.18359375 C-34.19667969 125.57675781 -33.54570313 125.96992188 -32.875 126.375 C-31.885 127.035 -30.895 127.695 -29.875 128.375 C-29.875 130.355 -29.875 132.335 -29.875 134.375 C-50.995 134.375 -72.115 134.375 -93.875 134.375 C-93.215 131.405 -92.555 128.435 -91.875 125.375 C-86.925 124.88 -86.925 124.88 -81.875 124.375 C-81.88985131 111.64899785 -81.93133875 98.92339056 -82.00709057 86.19759655 C-82.04142073 80.2888243 -82.06647994 74.38031226 -82.07055664 68.47143555 C-82.07482663 62.77185626 -82.10318151 57.07286456 -82.14843178 51.3734684 C-82.1614484 49.19614391 -82.16569983 47.01874926 -82.16115379 44.84139061 C-82.15627746 41.79750028 -82.1822086 38.75534708 -82.21557617 35.71166992 C-82.20695053 34.80608337 -82.19832489 33.90049683 -82.18943787 32.96746826 C-82.23197369 30.66166531 -82.31021554 28.61072707 -82.875 26.375 C-86.10779875 23.59212565 -89.81319896 22.60298636 -93.875 21.375 C-93.875 19.065 -93.875 16.755 -93.875 14.375 C-89.18606375 12.50615457 -84.49049285 10.65548833 -79.78808594 8.82080078 C-78.19177017 8.19513027 -76.59732398 7.56466657 -75.00488281 6.92919922 C-72.70601144 6.01281557 -70.40080724 5.11429278 -68.09375 4.21875 C-67.39133179 3.93439087 -66.68891357 3.65003174 -65.96520996 3.35705566 C-59.94174424 1.05191961 -54.98938689 1.13995193 -48.5625 1.625 C-45.06025399 3.90553229 -45.00833164 5.51357259 -44 9.5 C-43.60012628 11.45340612 -43.21740012 13.41070455 -42.875 15.375 C-38.86360866 15.375 -36.79475785 13.40303395 -33.6875 11.125 C-22.73754076 3.35137637 -13.50911685 -0.02477302 0 0 Z " fill="#EF878B" transform="translate(782.875,251.625)"/>
<path d="M0 0 C11.55 0 23.1 0 35 0 C42.05230429 14.10460858 42.30205269 26.27074206 42.37890625 41.62890625 C42.39511982 43.39437241 42.4123037 45.15982989 42.43040466 46.92527771 C42.47569374 51.53162627 42.51071422 56.13798708 42.54260254 60.7444458 C42.59487055 68.14710293 42.65971717 75.54963345 42.73081779 82.95213127 C42.75357655 85.52907525 42.76988411 88.106003 42.78553772 90.68299866 C42.79894196 92.2581501 42.81255655 93.83329977 42.82641602 95.40844727 C42.82902939 96.12170166 42.83164276 96.83495605 42.83433533 97.56982422 C42.80053874 102.39444425 42.80053874 102.39444425 44 107 C46.91666667 108.25 46.91666667 108.25 50 109 C50.99 109.495 50.99 109.495 52 110 C52 112.31 52 114.62 52 117 C31.87 117 11.74 117 -9 117 C-8 109 -8 109 -6.1875 107.5 C-4 107 -4 107 0 107 C-0.01474869 105.68899323 -0.02949738 104.37798645 -0.04469299 103.0272522 C-0.18275825 90.69579676 -0.31549555 78.36429405 -0.4429636 66.03272438 C-0.50867494 59.69235618 -0.57628915 53.35201998 -0.64819336 47.01171875 C-0.71746486 40.8974751 -0.78181473 34.78319796 -0.84269524 28.6688652 C-0.86684378 26.33156821 -0.89279127 23.99428911 -0.92053413 21.65703201 C-0.95897238 18.39329072 -0.9911186 15.1295454 -1.02172852 11.86572266 C-1.03467453 10.89108566 -1.04762054 9.91644867 -1.06095886 8.91227722 C-1.06799835 8.02604172 -1.07503784 7.13980621 -1.08229065 6.22671509 C-1.09058679 5.45425257 -1.09888292 4.68179005 -1.10743046 3.88591957 C-1 2 -1 2 0 0 Z " fill="#E98289" transform="translate(1342,269)"/>
<path d="M0 0 C2.7431774 -0.27936935 5.25762183 -0.37204948 8 -0.328125 C9.18722656 -0.32531525 9.18722656 -0.32531525 10.3984375 -0.32244873 C12.07295947 -0.31572192 13.74746556 -0.3017949 15.421875 -0.28125 C17.98973131 -0.25012447 20.55697385 -0.24028304 23.125 -0.234375 C24.75000751 -0.2252039 26.37500875 -0.21482778 28 -0.203125 C28.77085937 -0.19887512 29.54171875 -0.19462524 30.3359375 -0.19024658 C35.76560054 -0.11719973 35.76560054 -0.11719973 38 1 C41.79800528 10.20257675 41.42780207 20.22049496 41.41069031 29.98165321 C41.40615868 32.79497539 41.42035817 35.60768621 41.43908691 38.42094421 C41.48179996 45.39809197 41.49312259 52.37522242 41.50531006 59.35247803 C41.51685872 65.27360934 41.54045304 71.19445649 41.58000183 77.11546898 C41.59351621 79.877991 41.58941384 82.64012241 41.58459473 85.40266418 C41.59393713 87.10218803 41.60410641 88.80170761 41.61523438 90.5012207 C41.60908615 91.26136475 41.60293793 92.02150879 41.59660339 92.8046875 C41.65496963 97.89867336 42.61310388 101.47471141 45 106 C47.18539195 107.64665363 47.18539195 107.64665363 49.6875 108.4375 C50.49574219 108.74558594 51.30398438 109.05367188 52.13671875 109.37109375 C52.75160156 109.57863281 53.36648438 109.78617187 54 110 C54 112.31 54 114.62 54 117 C33.54 117 13.08 117 -8 117 C-7.34 114.36 -6.68 111.72 -6 109 C-3 107.3125 -3 107.3125 0 106 C2.57153782 101.56227349 2.29587207 96.95027865 2.29052734 91.97460938 C2.29724457 91.07482864 2.30396179 90.17504791 2.31088257 89.2480011 C2.32984862 86.27986094 2.33378569 83.31194695 2.3359375 80.34375 C2.34236503 78.2777904 2.34909336 76.21183171 2.35610962 74.14587402 C2.36807791 69.81841928 2.37179076 65.49104435 2.37060547 61.16357422 C2.37040199 55.61839842 2.39773574 50.07373349 2.43214989 44.52867889 C2.45438201 40.26330207 2.45844418 35.99804908 2.45738602 31.73262024 C2.45974632 29.68807714 2.46859392 27.64353084 2.48405075 25.5990448 C2.50364138 22.74079487 2.49790052 19.88365839 2.48583984 17.02539062 C2.49707886 16.18160355 2.50831787 15.33781647 2.51989746 14.46846008 C2.4652136 9.36989614 1.80364491 6.73852309 -2 3 C-1.34 2.01 -0.68 1.02 0 0 Z " fill="#F1868D" transform="translate(859,269)"/>
<path d="M0 0 C13.86 0 27.72 0 42 0 C40 8 40 8 36.76171875 9.9609375 C35.41194202 10.45554804 34.05301887 10.92567272 32.6875 11.375 C16.55726203 17.63937957 5.57692791 30.08004421 -6.23510742 42.30102539 C-8 44 -8 44 -10 45 C-8.72994417 55.63083767 -1.65304899 63.67220613 5.125 71.53515625 C8.6493105 75.6978747 11.84506812 80.09864969 15.0625 84.5 C15.66416992 85.32177734 16.26583984 86.14355469 16.88574219 86.99023438 C19.04623529 89.94570389 21.2021294 92.90450645 23.35742188 95.86376953 C31.70300547 107.29054259 40.16769947 117.11179965 52 125 C52.1875 128.125 52.1875 128.125 52 131 C43.01172604 132.38799433 34.08303849 133.50456154 25 134 C23.90558594 134.08894531 22.81117188 134.17789063 21.68359375 134.26953125 C13.36903114 134.6916401 7.61692888 133.14996823 1 128 C-5.03097167 122.20356612 -8.95496061 114.8477326 -13.08496094 107.66064453 C-15.97460871 102.6546196 -19.02596743 97.81724299 -22.3125 93.0625 C-22.75601807 92.41998291 -23.19953613 91.77746582 -23.65649414 91.11547852 C-26.24134505 87.4128295 -28.90438931 83.77886777 -31.62109375 80.171875 C-32.2246167 79.36226318 -32.82813965 78.55265137 -33.44995117 77.71850586 C-34.62794132 76.14396457 -35.81908794 74.57916024 -37.0246582 73.02563477 C-41 67.70616018 -41 67.70616018 -41 64.23046875 C-35.22163957 51.34201639 -23.34530842 41.65912385 -12.50390625 33.05859375 C-8.73536219 29.96027438 -5.37599352 26.51410234 -2 23 C-1.04410827 22.03923127 -0.08612322 21.0805353 0.875 20.125 C1.57625 19.42375 2.2775 18.7225 3 18 C3.66 17.34 4.32 16.68 5 16 C5.45811675 14.02764667 5.45811675 14.02764667 5.625 11.875 C5.810625 9.956875 5.810625 9.956875 6 8 C4.02 7.34 2.04 6.68 0 6 C0 4.02 0 2.04 0 0 Z " fill="#EF7A9A" transform="translate(491,255)"/>
<path d="M0 0 C0.74033981 0.00607269 1.48067963 0.01214539 2.24345398 0.0184021 C3.41953217 0.01051666 3.41953217 0.01051666 4.61936951 0.00247192 C7.21374883 -0.01074247 9.80751556 -0.00198427 12.40190125 0.00814819 C14.20407224 0.00612766 16.00624245 0.0032164 17.80841064 -0.00054932 C21.58713051 -0.00497478 25.36563773 0.00146475 29.14433289 0.01547241 C33.98787869 0.03255221 38.83092536 0.02273224 43.67445278 0.00475502 C47.39679726 -0.00608729 51.11902349 -0.00263421 54.84137154 0.0051384 C56.62715272 0.0071398 58.41294465 0.00468321 60.1987133 -0.00230026 C62.69568671 -0.00992078 65.19185315 0.00169798 67.68876648 0.0184021 C68.42708206 0.01232941 69.16539764 0.00625671 69.92608643 0 C74.55604676 0.05736996 75.60875015 0.46504269 79.5308075 3.40658569 C79.5308075 13.63658569 79.5308075 23.86658569 79.5308075 34.40658569 C50.4908075 34.40658569 21.4508075 34.40658569 -8.4691925 34.40658569 C-8.4691925 24.17658569 -8.4691925 13.94658569 -8.4691925 3.40658569 C-5.21242473 0.14981792 -4.37724416 0.0544635 0 0 Z " fill="#353535" transform="translate(698.4691925048828,614.5934143066406)"/>
<path d="M0 0 C4.90687972 3.84016674 10.29070765 8.93163764 11.16552734 15.3972168 C11.21511878 17.91118278 11.24631576 20.42300866 11.25 22.9375 C11.27449219 23.79794922 11.29898437 24.65839844 11.32421875 25.54492188 C11.35967278 33.38617194 9.03049267 39.04755374 4.6875 45.5 C-2.69466944 52.71812123 -10.18763194 54.5625 -20.26757812 54.5625 C-27.24821821 54.41411924 -32.78807957 53.10377558 -38.1484375 48.51953125 C-40.02968621 46.5311228 -41.58587285 44.51174123 -43.125 42.25 C-43.55941406 41.63898438 -43.99382812 41.02796875 -44.44140625 40.3984375 C-47.46112863 35.11655376 -47.53429825 29.62760918 -47.625 23.6875 C-47.64361084 22.88401123 -47.66222168 22.08052246 -47.68139648 21.25268555 C-47.59924758 13.47246656 -44.65770233 6.78270233 -39.125 1.25 C-26.77422681 -6.80882243 -12.8663838 -7.20517493 0 0 Z " fill="#AB38AA" transform="translate(1312.125,80.75)"/>
<path d="M0 0 C92.07 0 184.14 0 279 0 C279 2.64 279 5.28 279 8 C186.93 8 94.86 8 0 8 C0 5.36 0 2.72 0 0 Z " fill="#8B7377" transform="translate(426,441)"/>
<path d="M0 0 C2.02375564 2.03440698 3.82984176 4.14826541 5.484375 6.4921875 C4.484375 7.4921875 4.484375 7.4921875 1.80053711 7.60571289 C0.63272705 7.60047607 -0.53508301 7.59523926 -1.73828125 7.58984375 C-2.99833984 7.58662109 -4.25839844 7.58339844 -5.55664062 7.58007812 C-6.89713609 7.57172153 -8.23763088 7.56325657 -9.578125 7.5546875 C-10.92252442 7.5496741 -12.2669256 7.54511092 -13.61132812 7.54101562 C-16.91280441 7.52918238 -20.21419303 7.51269721 -23.515625 7.4921875 C-24.175625 8.8121875 -24.835625 10.1321875 -25.515625 11.4921875 C-25.91394531 10.64333984 -25.91394531 10.64333984 -26.3203125 9.77734375 C-26.85011719 8.67712891 -26.85011719 8.67712891 -27.390625 7.5546875 C-27.73867188 6.82378906 -28.08671875 6.09289062 -28.4453125 5.33984375 C-29.3841227 3.32886291 -29.3841227 3.32886291 -31.515625 2.4921875 C-32.9621492 2.34151536 -34.4144184 2.24357714 -35.8671875 2.17578125 C-37.14335938 2.11293945 -37.14335938 2.11293945 -38.4453125 2.04882812 C-39.33476563 2.00951172 -40.22421875 1.97019531 -41.140625 1.9296875 C-42.0378125 1.88650391 -42.935 1.84332031 -43.859375 1.79882812 C-46.07796783 1.69261889 -48.2966738 1.59057556 -50.515625 1.4921875 C-51.98043404 6.26882481 -53.41113169 11.04239654 -54.65234375 15.8828125 C-58.82995898 32.00652973 -58.82995898 32.00652973 -63.515625 37.4921875 C-69.69022434 40.08097136 -75.92336757 40.45850598 -82.515625 39.4921875 C-86.11828279 37.55092066 -88.68243602 35.15856546 -90.515625 31.4921875 C-91.52915154 21.45955772 -91.12494603 12.62852979 -84.515625 4.4921875 C-65.07181416 -13.24119711 -20.67447683 -17.65563729 0 0 Z " fill="#B1AE78" transform="translate(650.515625,261.5078125)"/>
<path d="M0 0 C3.57980124 2.12799296 5.9553316 4.55321072 8.296875 8.00390625 C9.286875 8.33390625 10.276875 8.66390625 11.296875 9.00390625 C11.296875 21.54390625 11.296875 34.08390625 11.296875 47.00390625 C-4.213125 47.00390625 -19.723125 47.00390625 -35.703125 47.00390625 C-35.703125 13.23450492 -35.703125 13.23450492 -25.94140625 3.19140625 C-18.92081956 -2.58553365 -8.40201832 -3.09611947 0 0 Z " fill="#0F0E0D" transform="translate(1073.703125,262.99609375)"/>
<path d="M0 0 C0.9896689 8.7942439 1.21534791 17.53005276 1.25 26.375 C1.27077835 27.72786543 1.29161139 29.08073002 1.3125 30.43359375 C1.32023438 32.36525391 1.32023438 32.36525391 1.328125 34.3359375 C1.34214355 36.07689697 1.34214355 36.07689697 1.35644531 37.85302734 C0.86622138 42.18110025 -0.67361724 44.8228014 -3.91015625 47.6953125 C-10.21561414 51.88369288 -16.52918707 55.08597717 -24.25 54.9375 C-30.36033263 52.85443206 -34.26768397 49.18377226 -38 44 C-40.75841139 37.12353473 -41.09190592 30.29422868 -40 23 C-35.13039047 12.86628093 -26.06867883 5.60707075 -16 1 C-10.78641085 -0.44205657 -5.37525824 -0.08100629 0 0 Z " fill="#151213" transform="translate(628,318)"/>
<path d="M0 0 C0 15.18 0 30.36 0 46 C-11.22 46 -22.44 46 -34 46 C-34 49.96 -34 53.92 -34 58 C-34.66 58 -35.32 58 -36 58 C-36.01981934 57.15816162 -36.03963867 56.31632324 -36.06005859 55.44897461 C-36.13859795 52.29720324 -36.22530495 49.14578745 -36.31738281 45.99438477 C-36.35544079 44.63574737 -36.39033221 43.27701715 -36.421875 41.91821289 C-36.46803214 39.95437081 -36.52688497 37.99084037 -36.5859375 36.02734375 C-36.6173584 34.84906006 -36.6487793 33.67077637 -36.68115234 32.45678711 C-37.02396012 28.74023637 -37.76846673 25.52114443 -39 22 C-41.09230765 20.13388378 -41.09230765 20.13388378 -43.625 19.0625 C-44.44226562 18.66160156 -45.25953125 18.26070312 -46.1015625 17.84765625 C-46.72804688 17.56792969 -47.35453125 17.28820312 -48 17 C-48 14.69 -48 12.38 -48 10 C-31.87086541 4.56489201 -17.1662597 0 0 0 Z " fill="#73C4BA" transform="translate(1299,197)"/>
<path d="M0 0 C0.1828112 15.35614078 -0.4040644 30.65465828 -1 46 C-12.55 46 -24.1 46 -36 46 C-36.4375 37.375 -36.4375 37.375 -36.56811523 34.69287109 C-36.79688305 30.39513158 -37.18432453 26.23602893 -38 22 C-38.86625 21.731875 -39.7325 21.46375 -40.625 21.1875 C-43.91791964 20.02888013 -46.91127875 18.61790161 -50 17 C-50 14.69 -50 12.38 -50 10 C-44.89375589 8.55076405 -39.78150216 7.12607919 -34.66113281 5.72753906 C-32.89915644 5.24582442 -31.1380698 4.76084246 -29.37792969 4.27246094 C-19.52536285 1.55718661 -10.32958891 -0.94477947 0 0 Z " fill="#73C6BD" transform="translate(448,197)"/>
<path d="M0 0 C0 14.85 0 29.7 0 45 C-11.55 45 -23.1 45 -35 45 C-35.66 37.08 -36.32 29.16 -37 21 C-38.98 20.34 -40.96 19.68 -43 19 C-45.41726104 17.77798981 -47.67399634 16.39560219 -50 15 C-50 13.02 -50 11.04 -50 9 C-45.29647715 7.69374466 -40.58683909 6.41346394 -35.87036133 5.15478516 C-34.27348108 4.72499762 -32.67834103 4.2886804 -31.08520508 3.84521484 C-28.76834031 3.20160076 -26.44580959 2.58332453 -24.12109375 1.96875 C-23.43293076 1.77188599 -22.74476776 1.57502197 -22.03575134 1.37219238 C-14.34668354 -0.60819846 -8.56599722 0 0 0 Z " fill="#73C6BD" transform="translate(972,198)"/>
<path d="M0 0 C4.66963713 2.16047633 8.179864 4.04030264 10.10546875 9.046875 C11.27301571 13.13381153 11.32625852 17.13484522 11.35546875 21.359375 C11.37609375 22.09349609 11.39671875 22.82761719 11.41796875 23.58398438 C11.46170441 29.74524569 10.27049428 34.24389531 6.421875 39.2265625 C5.84308594 39.78601563 5.26429688 40.34546875 4.66796875 40.921875 C4.09175781 41.49679687 3.51554688 42.07171875 2.921875 42.6640625 C-1.27895219 45.86211159 -6.83909909 45.54133548 -11.89453125 45.046875 C-15.5974508 43.952346 -18.68095061 42.18926209 -21.89453125 40.046875 C-21.89453125 39.386875 -21.89453125 38.726875 -21.89453125 38.046875 C-22.55453125 38.046875 -23.21453125 38.046875 -23.89453125 38.046875 C-27.91566221 30.25593377 -29.35154052 22.75959489 -27.89453125 14.046875 C-25.57588352 8.60569307 -22.36523509 4.51757884 -18.20703125 0.359375 C-12.17948692 -2.02889728 -6.15944042 -2.0282098 0 0 Z " fill="#E69170" transform="translate(959.89453125,422.953125)"/>
<path d="M0 0 C1.1866626 0.00563965 2.3733252 0.0112793 3.59594727 0.01708984 C17.67147991 0.21227469 26.49387365 2.74693682 39.625 9.3125 C38.965 19.2125 38.305 29.1125 37.625 39.3125 C34.655 39.3125 31.685 39.3125 28.625 39.3125 C28.11710937 38.40628906 27.60921875 37.50007813 27.0859375 36.56640625 C20.19288381 22.84777119 20.19288381 22.84777119 9.625 12.3125 C0.08964039 9.96459738 -8.56063654 11.04103375 -17.375 15.3125 C-18.72860905 16.28487869 -20.06613877 17.28067635 -21.375 18.3125 C-25.28065896 20.26532948 -30.38105112 19.68947322 -34.72265625 19.83007812 C-35.90794922 19.88131836 -35.90794922 19.88131836 -37.1171875 19.93359375 C-37.8376123 19.9586499 -38.55803711 19.98370605 -39.30029297 20.00952148 C-41.64686856 20.35220215 -43.31929182 21.15497015 -45.375 22.3125 C-45.705 21.3225 -46.035 20.3325 -46.375 19.3125 C-32.31929534 4.29480795 -20.80509216 -0.10366264 0 0 Z " fill="#ACAC76" transform="translate(1188.375,251.6875)"/>
<path d="M0 0 C3.96 0 7.92 0 12 0 C12 31.68 12 63.36 12 96 C11.67 96 11.34 96 11 96 C11 88.08 11 80.16 11 72 C8.23302734 72.2165625 8.23302734 72.2165625 5.41015625 72.4375 C2.96095118 72.62517855 0.51173165 72.81266859 -1.9375 73 C-3.14986328 73.09539062 -4.36222656 73.19078125 -5.61132812 73.2890625 C-6.80048828 73.37929688 -7.98964844 73.46953125 -9.21484375 73.5625 C-10.29886475 73.64628906 -11.38288574 73.73007812 -12.49975586 73.81640625 C-16.66123274 74.03468278 -20.83280256 74 -25 74 C-25 60.14 -25 46.28 -25 32 C-24.67 32 -24.34 32 -24 32 C-24 36.62 -24 41.24 -24 46 C-12.45 46 -0.9 46 11 46 C11 31.15 11 16.3 11 1 C7.37 1 3.74 1 0 1 C0 0.67 0 0.34 0 0 Z " fill="#A9B386" transform="translate(961,197)"/>
<path d="M0 0 C1.63001953 -0.0309375 1.63001953 -0.0309375 3.29296875 -0.0625 C12.41239714 -0.1060815 22.09170338 0.42896517 29 7.0625 C29.70125 7.70832031 30.4025 8.35414063 31.125 9.01953125 C33 11.25 33 11.25 36 17.25 C24.45 17.25 12.9 17.25 1 17.25 C0.34 18.57 -0.32 19.89 -1 21.25 C-1.33 20.92 -1.66 20.59 -2 20.25 C-4.21855264 20.16216458 -6.43988496 20.14305391 -8.66015625 20.15234375 C-9.32462265 20.1537587 -9.98908905 20.15517365 -10.6736908 20.15663147 C-12.80333899 20.16224482 -14.93288339 20.17479946 -17.0625 20.1875 C-18.50325369 20.19251329 -19.94400903 20.19707649 -21.38476562 20.20117188 C-24.92321102 20.21221855 -28.46159539 20.22949208 -32 20.25 C-32.33 19.26 -32.66 18.27 -33 17.25 C-34.65 16.92 -36.3 16.59 -38 16.25 C-38 15.59 -38 14.93 -38 14.25 C-35.69347888 12.69429955 -33.40237214 11.26817196 -31 9.875 C-30.31389648 9.47087891 -29.62779297 9.06675781 -28.92089844 8.65039062 C-18.93255701 2.8116349 -11.64876681 0.05374287 0 0 Z " fill="#B3AF77" transform="translate(1341,251.75)"/>
<path d="M0 0 C1.65438014 1.40062064 3.25240989 2.86740218 4.8359375 4.34765625 C4.5059375 5.33765625 4.1759375 6.32765625 3.8359375 7.34765625 C-2.4340625 7.67765625 -8.7040625 8.00765625 -15.1640625 8.34765625 C-15.4940625 9.00765625 -15.8240625 9.66765625 -16.1640625 10.34765625 C-19.1640625 9.34765625 -19.1640625 9.34765625 -20.9765625 6.97265625 C-24.3494752 2.92516101 -27.70976145 1.55758674 -32.8984375 0.80859375 C-34.23617428 0.75405296 -35.57521899 0.72618205 -36.9140625 0.72265625 C-37.61418457 0.71959473 -38.31430664 0.7165332 -39.03564453 0.71337891 C-46.92164299 0.9803008 -51.73830601 4.92189976 -57.1640625 10.34765625 C-59.13183594 10.51123047 -59.13183594 10.51123047 -61.5234375 10.40234375 C-62.39226562 10.37785156 -63.26109375 10.35335938 -64.15625 10.328125 C-65.97950717 10.25839703 -67.80246924 10.18041213 -69.625 10.09375 C-75.40331618 9.94886597 -78.55814333 10.48786728 -83.1640625 14.34765625 C-83.9478125 14.92515625 -84.7315625 15.50265625 -85.5390625 16.09765625 C-86.0753125 16.51015625 -86.6115625 16.92265625 -87.1640625 17.34765625 C-81.353096 5.27872582 -71.58536136 -2.69725264 -59.1640625 -7.65234375 C-39.80740706 -13.33212464 -16.55625372 -12.6413273 0 0 Z " fill="#B1AD76" transform="translate(1100.1640625,261.65234375)"/>
<path d="M0 0 C5.1069802 4.2968077 7.00809503 6.44616008 9.1953125 13.0078125 C-9.1196875 12.5128125 -9.1196875 12.5128125 -27.8046875 12.0078125 C-28.4646875 13.3278125 -29.1246875 14.6478125 -29.8046875 16.0078125 C-30.7946875 15.6778125 -31.7846875 15.3478125 -32.8046875 15.0078125 C-34.7967178 14.92489297 -36.79142463 14.90043073 -38.78515625 14.91015625 C-40.53022461 14.91499023 -40.53022461 14.91499023 -42.31054688 14.91992188 C-44.13295898 14.93249023 -44.13295898 14.93249023 -45.9921875 14.9453125 C-47.83200195 14.95208008 -47.83200195 14.95208008 -49.70898438 14.95898438 C-52.74093418 14.97078185 -55.77278656 14.98724329 -58.8046875 15.0078125 C-58.8046875 13.6878125 -58.8046875 12.3678125 -58.8046875 11.0078125 C-61.7746875 10.5128125 -61.7746875 10.5128125 -64.8046875 10.0078125 C-48.51565726 -3.62738697 -19.24466529 -13.66960905 0 0 Z " fill="#B3B077" transform="translate(886.8046875,256.9921875)"/>
<path d="M0 0 C0.33 0 0.66 0 1 0 C1 17.82 1 35.64 1 54 C-12.5 55.125 -12.5 55.125 -17.421875 55.09765625 C-18.36643555 55.09515869 -19.31099609 55.09266113 -20.28417969 55.09008789 C-21.42790039 55.08098389 -22.57162109 55.07187988 -23.75 55.0625 C-27.4625 55.041875 -31.175 55.02125 -35 55 C-35 46.09 -35 37.18 -35 28 C-23.45 28 -11.9 28 0 28 C0 18.76 0 9.52 0 0 Z " fill="#ACBA89" transform="translate(447,215)"/>
<path d="M0 0 C21 0 21 0 27 3 C30.00473503 6.5055242 30.48341613 9.60129312 30.28125 14.07421875 C29.84842917 17.03783918 28.94527891 18.73050794 27 21 C23.8125 22.8125 23.8125 22.8125 21 24 C21.48210938 24.74765625 21.96421875 25.4953125 22.4609375 26.265625 C23.40839844 27.74289062 23.40839844 27.74289062 24.375 29.25 C25.00148438 30.22453125 25.62796875 31.1990625 26.2734375 32.203125 C28.89221006 36.44529956 30.28046382 38.95165116 30 44 C23.50856276 43.38760026 23.50856276 43.38760026 21.47265625 41.8359375 C18.78642938 38.4870605 17.05065978 34.52808171 15.109375 30.71484375 C12.80650456 27.19928232 12.80650456 27.19928232 6 26 C6 31.94 6 37.88 6 44 C4.02 44 2.04 44 0 44 C0 29.48 0 14.96 0 0 Z " fill="#E58876" transform="translate(897,423)"/>
<path d="M0 0 C1.73540039 0.01450195 1.73540039 0.01450195 3.50585938 0.02929688 C4.70404297 0.05443359 5.90222656 0.07957031 7.13671875 0.10546875 C8.96299805 0.12577148 8.96299805 0.12577148 10.82617188 0.14648438 C13.8259722 0.18177614 16.8248685 0.23108394 19.82421875 0.29296875 C20.24388898 11.08004804 20.31450349 21.73264334 12.82421875 30.29296875 C6.61768897 32.84651243 0.43934423 33.26263932 -6.17578125 32.29296875 C-9.77843904 30.35170191 -12.34259227 27.95934671 -14.17578125 24.29296875 C-14.32589945 21.87952997 -14.39733495 19.46090445 -14.42578125 17.04296875 C-14.4515625 15.7384375 -14.47734375 14.43390625 -14.50390625 13.08984375 C-14.15042621 8.99957473 -13.44077442 6.70030631 -11.17578125 3.29296875 C-7.36946919 0.47089661 -4.6956345 -0.06939361 0 0 Z " fill="#E2AE54" transform="translate(574.17578125,268.70703125)"/>
<path d="M0 0 C0.75 2.375 0.75 2.375 1 5 C1.32297514 6.66870487 1.6549005 8.33572982 2 10 C1.0713916 10.01458252 0.1427832 10.02916504 -0.81396484 10.04418945 C-4.25466496 10.10519172 -7.69455652 10.1793305 -11.13476562 10.26245117 C-12.62456572 10.29573463 -14.11449295 10.32375597 -15.60449219 10.34643555 C-17.74469252 10.37992071 -19.88372419 10.43222789 -22.0234375 10.48828125 C-23.31169434 10.51446533 -24.59995117 10.54064941 -25.92724609 10.56762695 C-26.94125488 10.71031006 -27.95526367 10.85299316 -29 11 C-29.66 11.99 -30.32 12.98 -31 14 C-32.11117187 13.84402344 -33.22234375 13.68804687 -34.3671875 13.52734375 C-42.48107206 12.44573567 -49.8453367 11.705609 -58 13 C-58 11.68 -58 10.36 -58 9 C-60.31 8.67 -62.62 8.34 -65 8 C-58.47868487 1.08345365 -50.22689906 -3.73679834 -41 -6 C-40.2884375 -6.18175781 -39.576875 -6.36351562 -38.84375 -6.55078125 C-25.19611893 -8.70665704 -11.68022509 -7.80698983 0 0 Z " fill="#B6B179" transform="translate(809,259)"/>
<path d="M0 0 C11.22 0 22.44 0 34 0 C34 8.58 34 17.16 34 26 C17.17 26.99 17.17 26.99 0 28 C0 18.76 0 9.52 0 0 Z " fill="#ADBC89" transform="translate(1265,243)"/>
<path d="M0 0 C2.97 0 5.94 0 9 0 C9.59167969 1.134375 10.18335938 2.26875 10.79296875 3.4375 C11.59098197 4.95841932 12.38916835 6.4792478 13.1875 8 C13.57486328 8.74378906 13.96222656 9.48757813 14.36132812 10.25390625 C14.75126953 10.99511719 15.14121094 11.73632812 15.54296875 12.5 C15.89383545 13.1703125 16.24470215 13.840625 16.60620117 14.53125 C18.61646816 18.09191208 20.83286241 21.53257986 23 25 C23.66 16.75 24.32 8.5 25 0 C27.31 0 29.62 0 32 0 C32 14.52 32 29.04 32 44 C21.87518355 40.62506118 21.87518355 40.62506118 18.8125 35 C18.16925781 33.85144531 17.52601563 32.70289063 16.86328125 31.51953125 C16.24839844 30.35808594 15.63351562 29.19664062 15 28 C14.39542969 26.91074219 13.79085937 25.82148438 13.16796875 24.69921875 C11.75343583 22.14510896 10.37029473 19.57795273 9 17 C8.91697632 18.01368652 8.91697632 18.01368652 8.83227539 19.04785156 C8.57909469 22.11552698 8.3208521 25.18275596 8.0625 28.25 C7.97548828 29.31347656 7.88847656 30.37695312 7.79882812 31.47265625 C7.66831055 33.00986328 7.66831055 33.00986328 7.53515625 34.578125 C7.456604 35.52075195 7.37805176 36.46337891 7.29711914 37.43457031 C7.03387689 39.70749522 6.61768892 41.80075595 6 44 C4.02 44 2.04 44 0 44 C0 29.48 0 14.96 0 0 Z " fill="#E57A8E" transform="translate(980,423)"/>
<path d="M0 0 C4.63370967 2.34339818 8.18285162 5.64314891 11 10 C11.53769262 15.91461882 10.50843159 19.62131942 7.375 24.5625 C3.36471729 28.67831646 -1.27812874 31.14203308 -7.0625 31.625 C-12.05030802 30.83328444 -14.8544114 28.91923337 -18 25 C-20.74134762 19.54471825 -20.67126379 13.9750765 -20 8 C-18.3125 4.9375 -18.3125 4.9375 -16 3 C-15.319375 2.401875 -14.63875 1.80375 -13.9375 1.1875 C-9.28158052 -0.69468021 -4.93645146 -0.86301599 0 0 Z " fill="#F64FF4" transform="translate(1299,90)"/>
<path d="M0 0 C0 5.94 0 11.88 0 18 C-9.99862102 20.49965526 -20.79630755 20.1321286 -31.0625 20.25 C-32.54327026 20.28202515 -32.54327026 20.28202515 -34.05395508 20.31469727 C-39.49184059 20.34026216 -43.27497993 20.02783748 -48 17 C-48 14.69 -48 12.38 -48 10 C-16.08645533 -0.75405259 -16.08645533 -0.75405259 0 0 Z " fill="#45C9DF" transform="translate(1299,197)"/>
<path d="M0 0 C0.02683987 2.97922593 0.04676037 5.95821295 0.0625 8.9375 C0.07087891 9.78763672 0.07925781 10.63777344 0.08789062 11.51367188 C0.09111328 12.32255859 0.09433594 13.13144531 0.09765625 13.96484375 C0.10289307 14.7137085 0.10812988 15.46257324 0.11352539 16.23413086 C0 18 0 18 -1 19 C-4.02067848 19.113739 -7.01758548 19.16419749 -10.0390625 19.16796875 C-10.95327972 19.17129715 -11.86749695 19.17462555 -12.80941772 19.17805481 C-14.75135799 19.18313063 -16.69330702 19.18546293 -18.63525391 19.18530273 C-21.59162075 19.18747547 -24.5476062 19.20558588 -27.50390625 19.22460938 C-29.39062373 19.227546 -31.27734297 19.22952899 -33.1640625 19.23046875 C-34.04349518 19.23765427 -34.92292786 19.24483978 -35.82901001 19.25224304 C-40.94258035 19.23344926 -45.15459907 18.65517715 -50 17 C-50 14.69 -50 12.38 -50 10 C-44.89375589 8.55076405 -39.78150216 7.12607919 -34.66113281 5.72753906 C-32.89915644 5.24582442 -31.1380698 4.76084246 -29.37792969 4.27246094 C-19.52536285 1.55718661 -10.32958891 -0.94477947 0 0 Z " fill="#47C7DC" transform="translate(448,197)"/>
<path d="M0 0 C0 5.94 0 11.88 0 18 C-5.69275112 18.04607442 -11.38484727 18.08585118 -17.07763672 18.10986328 C-19.01157837 18.11988036 -20.94550504 18.13349784 -22.87939453 18.15087891 C-25.66963414 18.17531686 -28.45967236 18.18652628 -31.25 18.1953125 C-32.533302 18.21079636 -32.533302 18.21079636 -33.8425293 18.22659302 C-39.22966648 18.22758515 -43.83634619 17.57056269 -49 16 C-50 15 -50 15 -50.0625 11.9375 C-50.041875 10.968125 -50.02125 9.99875 -50 9 C-45.29647715 7.69374466 -40.58683909 6.41346394 -35.87036133 5.15478516 C-34.27348108 4.72499762 -32.67834103 4.2886804 -31.08520508 3.84521484 C-20.38298079 0.8721875 -11.12832273 -0.4930703 0 0 Z " fill="#46C8DD" transform="translate(972,198)"/>
<path d="M0 0 C1.32 0.66 2.64 1.32 4 2 C2.70276853 6.17846305 1.12185882 9.95008446 -0.90625 13.82421875 C-1.77636719 15.49387695 -1.77636719 15.49387695 -2.6640625 17.19726562 C-3.26992187 18.34904297 -3.87578125 19.50082031 -4.5 20.6875 C-5.07492188 21.78900391 -5.64984375 22.89050781 -6.2421875 24.02539062 C-8.88078175 29.07501477 -11.52984106 34.11872397 -14.20483398 39.14916992 C-21.07663648 52.09645201 -27.68106 65.17447759 -34.23510742 78.28491211 C-35.77756846 81.36993771 -37.32561247 84.45212773 -38.87490177 87.5337286 C-40.36939977 90.50897783 -41.85817897 93.4870779 -43.34765625 96.46484375 C-43.90171646 97.56577866 -44.45577667 98.66671356 -45.02662659 99.80101013 C-45.53483444 100.82050247 -46.0430423 101.83999481 -46.56665039 102.89038086 C-47.01391983 103.78349472 -47.46118927 104.67660858 -47.92201233 105.5967865 C-48.88375013 107.74083816 -49.52507699 109.70582671 -50 112 C-49.01 112.33 -48.02 112.66 -47 113 C-47.19140625 115.29296875 -47.19140625 115.29296875 -48 118 C-50.21484375 119.80078125 -50.21484375 119.80078125 -52.9375 121.3125 C-53.83339844 121.82425781 -54.72929687 122.33601563 -55.65234375 122.86328125 C-58 124 -58 124 -60 124 C-58.89520425 116.09890257 -56.26658529 109.69093688 -52.6640625 102.61523438 C-52.12078308 101.52458679 -51.57750366 100.43393921 -51.01776123 99.3102417 C-49.53890024 96.34756637 -48.0496361 93.390605 -46.55504608 90.4358654 C-44.98895182 87.33394775 -43.43598379 84.22546912 -41.88134766 81.11779785 C-39.27332294 75.90910701 -36.65635884 70.70499211 -34.03320312 65.50390625 C-30.66564121 58.82672461 -27.31307929 52.14212792 -23.96511841 45.45510101 C-21.08252077 39.69785907 -18.19311711 33.9440386 -15.30260468 28.19076729 C-14.37483837 26.34342816 -13.4480085 24.49562145 -12.52130127 22.64775085 C-10.79787625 19.21249543 -9.06737336 15.7808347 -7.3359375 12.34960938 C-6.82262878 11.32522766 -6.30932007 10.30084595 -5.78045654 9.24542236 C-5.30940491 8.31473938 -4.83835327 7.3840564 -4.35302734 6.4251709 C-3.94450531 5.61407616 -3.53598328 4.80298141 -3.11508179 3.96730804 C-2 2 -2 2 0 0 Z " fill="#59A09E" transform="translate(247,25)"/>
<path d="M0 0 C1.82917969 -0.01546875 1.82917969 -0.01546875 3.6953125 -0.03125 C6.875 0.5 6.875 0.5 8.76171875 2.1796875 C10.9205488 6.67914381 10.67558017 11.58702049 10.875 16.5 C10.92785156 17.43457031 10.98070312 18.36914062 11.03515625 19.33203125 C11.32252457 27.66571252 11.32252457 27.66571252 7.875 31.5 C4.80368595 31.96267565 2.36502338 32.11146143 -0.6875 32 C-1.46802734 32.00257813 -2.24855469 32.00515625 -3.05273438 32.0078125 C-5.31640625 31.96875 -5.31640625 31.96875 -9.125 31.5 C-12.21398192 26.86652712 -11.79725261 22.02403954 -12.0625 16.5625 C-12.14306641 15.46486328 -12.22363281 14.36722656 -12.30664062 13.23632812 C-12.70062564 5.26421157 -12.70062564 5.26421157 -10.07421875 1.77734375 C-6.51876377 0.23743146 -3.8723135 -0.03288589 0 0 Z " fill="#141314" transform="translate(953.125,428.5)"/>
<path d="M0 0 C4.04286031 2.6325602 4.24525297 6.04868602 5.2421875 10.609375 C5.68101909 13.70429252 5.77160067 16.62893067 5.6875 19.75 C4.6975 19.75 3.7075 19.75 2.6875 19.75 C2.6875 18.43 2.6875 17.11 2.6875 15.75 C1.9354126 15.81711182 1.1833252 15.88422363 0.40844727 15.95336914 C-9.21394397 16.75882543 -18.82999116 17.04662717 -28.48022461 17.22680664 C-30.51966121 17.26647885 -32.55853342 17.31790993 -34.59765625 17.37109375 C-35.79269775 17.3961499 -36.98773926 17.42120605 -38.21899414 17.44702148 C-41.13848454 17.73295689 -42.84515733 18.22568309 -45.3125 19.75 C-45.3125 17.44 -45.3125 15.13 -45.3125 12.75 C-40.62356375 10.88115457 -35.92799285 9.03048833 -31.22558594 7.19580078 C-29.62927017 6.57013027 -28.03482398 5.93966657 -26.44238281 5.30419922 C-24.14351144 4.38781557 -21.83830724 3.48929278 -19.53125 2.59375 C-18.82883179 2.30939087 -18.12641357 2.02503174 -17.40270996 1.73205566 C-11.37924424 -0.57308039 -6.42688689 -0.48504807 0 0 Z " fill="#B1AB73" transform="translate(734.3125,253.25)"/>
<path d="M0 0 C1.24716797 0.02707031 1.24716797 0.02707031 2.51953125 0.0546875 C4.55519074 0.10148427 6.5902509 0.17321702 8.625 0.25 C8.955 2.89 9.285 5.53 9.625 8.25 C8.36042969 8.19199219 7.09585937 8.13398438 5.79296875 8.07421875 C4.13284935 8.02732272 2.47269011 7.98182239 0.8125 7.9375 C-0.02087891 7.89560547 -0.85425781 7.85371094 -1.71289062 7.81054688 C-4.02468614 7.76412528 -6.10581142 7.80407206 -8.375 8.25 C-11.63408868 11.43431035 -11.78981037 14.92775016 -11.89501953 19.38110352 C-12.04694725 27.38590461 -12.04694725 27.38590461 -9.5 34.8125 C-5.06221415 38.27397296 -1.79453969 37.90592008 3.625 37.25 C4.42550781 37.1675 5.22601562 37.085 6.05078125 37 C7.91359982 36.78824087 9.77042554 36.52475177 11.625 36.25 C9.75 42 9.75 42 8.625 44.25 C2.22756784 45.58279837 -4.46717202 46.2924289 -10.6875 44.0625 C-16.05869087 40.44006895 -19.09408429 35.58138336 -20.375 29.25 C-21.24200738 21.23224601 -22.00129243 12.59859187 -17.0546875 5.79296875 C-11.38189453 0.58191474 -7.43167618 -0.30817158 0 0 Z " fill="#B99A66" transform="translate(1059.375,422.75)"/>
<path d="M0 0 C0.95003906 -0.00257813 1.90007813 -0.00515625 2.87890625 -0.0078125 C5.4375 0.125 5.4375 0.125 8.4375 1.125 C11.4375 4.56944444 11.4375 4.56944444 11.4375 7.125 C1.0425 8.61 1.0425 8.61 -9.5625 10.125 C-11.28933082 15.30549245 -11.85886674 18.33329231 -11.875 23.625 C-11.89175781 24.8934375 -11.90851562 26.161875 -11.92578125 27.46875 C-11.53709187 31.38072056 -10.62130858 33.79884697 -8.5625 37.125 C-2.9529532 39.9297734 5.43021777 38.01496774 11.4375 37.125 C9.5625 42.875 9.5625 42.875 8.4375 45.125 C5.56147545 45.23352923 2.68959168 45.3125515 -0.1875 45.375 C-0.99574219 45.40851563 -1.80398438 45.44203125 -2.63671875 45.4765625 C-8.10566562 45.56548847 -11.30369161 44.89615858 -15.5625 41.125 C-16.98828125 38.90625 -16.98828125 38.90625 -17.875 36.625 C-18.18050781 35.8721875 -18.48601563 35.119375 -18.80078125 34.34375 C-21.28055536 27.1206131 -22.57649375 17.65986512 -19.3984375 10.50390625 C-17.9142973 8.49080326 -16.40369937 6.81385427 -14.5625 5.125 C-13.69625 4.320625 -12.83 3.51625 -11.9375 2.6875 C-8.03504496 0.12009537 -4.61327602 -0.01255313 0 0 Z " fill="#E357C5" transform="translate(841.5625,421.875)"/>
<path d="M0 0 C8.58 0 17.16 0 26 0 C25.67 1.65 25.34 3.3 25 5 C18.73 5 12.46 5 6 5 C6 9.29 6 13.58 6 18 C11.28 18 16.56 18 22 18 C22 19.98 22 21.96 22 24 C16.72 24 11.44 24 6 24 C6 29.28 6 34.56 6 40 C12.6 40 19.2 40 26 40 C26 41.32 26 42.64 26 44 C17.42 44 8.84 44 0 44 C0 29.48 0 14.96 0 0 Z " fill="#B58E5E" transform="translate(721,423)"/>
<path d="M0 0 C8.58 0 17.16 0 26 0 C26 1.32 26 2.64 26 4 C19.4 4 12.8 4 6 4 C6 8.62 6 13.24 6 18 C11.94 18 17.88 18 24 18 C24 19.98 24 21.96 24 24 C18.06 24 12.12 24 6 24 C6 29.28 6 34.56 6 40 C12.6 40 19.2 40 26 40 C26 41.32 26 42.64 26 44 C17.42 44 8.84 44 0 44 C0 29.48 0 14.96 0 0 Z " fill="#C08554" transform="translate(788,423)"/>
<path d="M0 0 C0 1.98 0 3.96 0 6 C-7.44994926 8.41101631 -14.90074116 10.81940954 -22.35256386 13.22462845 C-25.81422185 14.34203198 -29.27560383 15.46027412 -32.73632812 16.58056641 C-36.08787287 17.665479 -39.44017753 18.74801432 -42.79298019 19.8290329 C-44.6686213 20.43442363 -46.54350599 21.04215635 -48.41836548 21.64996338 C-73.18185323 29.62545174 -73.18185323 29.62545174 -81 29 C-81.33 27.68 -81.66 26.36 -82 25 C-75.09645489 22.77174501 -68.1922243 20.54562667 -61.28719997 18.3219595 C-58.07811326 17.28845008 -54.86930346 16.2541006 -51.66088867 15.21850586 C-38.74381708 11.04966482 -25.82128127 6.90017536 -12.84765625 2.91015625 C-11.8893541 2.61265976 -10.93105194 2.31516327 -9.94371033 2.00865173 C-9.06775711 1.74161942 -8.19180389 1.4745871 -7.28930664 1.19946289 C-6.52880508 0.96626846 -5.76830353 0.73307404 -4.98475647 0.49281311 C-3 0 -3 0 0 0 Z " fill="#E7798D" transform="translate(287,477)"/>
<path d="M0 0 C13.86 0 27.72 0 42 0 C40 8 40 8 38.38354492 9.50317383 C37.44152222 9.85158325 37.44152222 9.85158325 36.48046875 10.20703125 C35.78759766 10.48353516 35.09472656 10.76003906 34.38085938 11.04492188 C33.65705078 11.29822266 32.93324219 11.55152344 32.1875 11.8125 C30.76319231 12.35773272 29.3399857 12.90585169 27.91796875 13.45703125 C27.24556152 13.71049316 26.5731543 13.96395508 25.88037109 14.22509766 C23.42334075 15.23764171 21.22040691 16.54735658 19 18 C18.67 16.68 18.34 15.36 18 14 C14.7 14.66 11.4 15.32 8 16 C7.79375 14.906875 7.5875 13.81375 7.375 12.6875 C6.34336062 8.7714341 6.34336062 8.7714341 2.875 7.0625 C1.92625 6.711875 0.9775 6.36125 0 6 C0 4.02 0 2.04 0 0 Z " fill="#A4A271" transform="translate(491,255)"/>
<path d="M0 0 C0.66 0 1.32 0 2 0 C2 12.21 2 24.42 2 37 C5.3 36.01 8.6 35.02 12 34 C13.32 34 14.64 34 16 34 C16.33 35.32 16.66 36.64 17 38 C15.21046815 38.83790789 13.41830305 39.67019396 11.625 40.5 C10.62726562 40.9640625 9.62953125 41.428125 8.6015625 41.90625 C6 43 6 43 4 43 C4.00523682 43.56847153 4.01047363 44.13694305 4.01586914 44.72264099 C4.16381921 63.73340588 3.66348714 82.70357282 3.07287598 101.70239258 C2.94945854 105.69929825 2.83041339 109.69633428 2.7109375 113.69335938 C2.47809899 121.46236907 2.24063575 129.23122747 2 137 C1.34 137 0.68 137 0 137 C0 91.79 0 46.58 0 0 Z " fill="#9DA274" transform="translate(24,152)"/>
<path d="M0 0 C2.97 0 5.94 0 9 0 C13.60619872 8.61804923 13.60619872 8.61804923 14 14 C13 15 13 15 10.4375 15.0625 C9.633125 15.041875 8.82875 15.02125 8 15 C7.97494385 15.73637695 7.9498877 16.47275391 7.92407227 17.23144531 C7.80795727 20.57113378 7.68530082 23.91055097 7.5625 27.25 C7.50352539 28.98830078 7.50352539 28.98830078 7.44335938 30.76171875 C7.40146484 31.87675781 7.35957031 32.99179687 7.31640625 34.140625 C7.26141968 35.68024902 7.26141968 35.68024902 7.20532227 37.25097656 C7.02717872 39.63610887 6.67222637 41.71299499 6 44 C4.02 44 2.04 44 0 44 C0 29.48 0 14.96 0 0 Z " fill="#CC7E7A" transform="translate(980,423)"/>
<path d="M0 0 C1.98 0 3.96 0 6 0 C6 12.54 6 25.08 6 38 C11.94 38 17.88 38 24 38 C24 39.98 24 41.96 24 44 C16.08 44 8.16 44 0 44 C0 29.48 0 14.96 0 0 Z " fill="#8E7E6E" transform="translate(756,423)"/>
<path d="M0 0 C10.56 0 21.12 0 32 0 C32 1.32 32 2.64 32 4 C27.38 4 22.76 4 18 4 C18 17.2 18 30.4 18 44 C16.02 44 14.04 44 12 44 C12 30.8 12 17.6 12 4 C8.04 4 4.08 4 0 4 C0 2.68 0 1.36 0 0 Z " fill="#BA7671" transform="translate(857,423)"/>
<path d="M0 0 C0.99 0 1.98 0 3 0 C3.985267 2.22664317 4.96331444 4.45601317 5.9375 6.6875 C6.21529297 7.31333984 6.49308594 7.93917969 6.77929688 8.58398438 C8.2788865 12.03484724 9.43729857 15.27477406 10 19 C11.27875 18.7834375 12.5575 18.566875 13.875 18.34375 C15.58327826 18.06216567 17.29161475 17.78093446 19 17.5 C20.25876953 17.28537109 20.25876953 17.28537109 21.54296875 17.06640625 C26.77182201 16.21519758 31.70275027 15.85285417 37 16 C37 17.32 37 18.64 37 20 C33.54329268 21.17152378 30.08437878 22.33639077 26.625 23.5 C25.64015625 23.83386719 24.6553125 24.16773438 23.640625 24.51171875 C22.69960937 24.82753906 21.75859375 25.14335938 20.7890625 25.46875 C19.48509521 25.90864258 19.48509521 25.90864258 18.15478516 26.35742188 C16 27 16 27 14 27 C14.66 31.29 15.32 35.58 16 40 C14.515 40.495 14.515 40.495 13 41 C11.29274824 36.77467667 9.60290607 32.54292839 7.92797852 28.3046875 C7.35737451 26.86763459 6.78227693 25.43235666 6.20239258 23.99902344 C2.97698031 16.0175891 0.26455482 8.72177495 0 0 Z " fill="#DB708F" transform="translate(168,489)"/>
<path d="M0 0 C2.31 0 4.62 0 7 0 C7 14.52 7 29.04 7 44 C4.69 44 2.38 44 0 44 C0 29.48 0 14.96 0 0 Z " fill="#76847A" transform="translate(1023,423)"/>
<path d="M0 0 C4.95 0 9.9 0 15 0 C15 7.26 15 14.52 15 22 C6 22 6 22 3.58984375 19.65625 C-2.02641097 8.92827407 -2.02641097 8.92827407 -1 2 C-0.67 1.34 -0.34 0.68 0 0 Z " fill="#D6AF5D" transform="translate(1211,269)"/>
<path d="M0 0 C3.37548805 -0.08122832 6.74900518 -0.14061118 10.125 -0.1875 C11.55199219 -0.22520508 11.55199219 -0.22520508 13.0078125 -0.26367188 C18.44210395 -0.32027908 22.3266359 -0.11557607 27 3 C30.57563204 7.17157071 30.26653469 10.75815116 30 16 C27.69 16 25.38 16 23 16 C22.67 13.36 22.34 10.72 22 8 C13.585 6.515 13.585 6.515 5 5 C4.67 7.31 4.34 9.62 4 12 C2.02 12.99 2.02 12.99 0 14 C0 9.38 0 4.76 0 0 Z " fill="#5CC0C6" transform="translate(897,423)"/>
<path d="M0 0 C5.625 5.625 5.625 5.625 6 10 C4.68 10 3.36 10 2 10 C2 43.33 2 76.66 2 111 C1.34 111 0.68 111 0 111 C0 74.37 0 37.74 0 0 Z " fill="#2B1C1C" transform="translate(137,417)"/>
<path d="M0 0 C0.33 0.66 0.66 1.32 1 2 C2.32 2 3.64 2 5 2 C5.66 10.58 6.32 19.16 7 28 C5.68 28 4.36 28 3 28 C2.67 29.32 2.34 30.64 2 32 C2 31.34 2 30.68 2 30 C1.34 30 0.68 30 0 30 C-4.04697456 22.15898679 -5.12625329 14.77178045 -4 6 C-2.93602164 3.38591523 -1.95342179 2.07551065 0 0 Z " fill="#957A55" transform="translate(936,431)"/>
<path d="M0 0 C2.125 0 2.125 0 5 1 C5.94214809 2.32236216 6.83287697 3.68195511 7.6875 5.0625 C9.86194464 8.22097789 9.86194464 8.22097789 13.32421875 9.5625 C15.93794133 9.5625 18.41092986 9.35341602 21 9 C21.79921875 8.91621094 22.5984375 8.83242188 23.421875 8.74609375 C25.28621342 8.53784318 27.14432021 8.27491553 29 8 C27.125 13.75 27.125 13.75 26 16 C19.60256784 17.33279837 12.90782798 18.0424289 6.6875 15.8125 C3.58626534 13.72096965 1.85062872 12.27418927 0 9 C-0.31594936 5.96790535 -0.23808059 3.03552754 0 0 Z " fill="#DA61A9" transform="translate(1042,451)"/>
<path d="M0 0 C5.66531181 0.45934961 10.67192698 0.89681328 16 3 C16.79186307 6.67136513 17.3191491 9.15860693 15.96875 12.71875 C14 15 14 15 10.64453125 15.48828125 C9.37996094 15.43027344 8.11539063 15.37226563 6.8125 15.3125 C3.4403125 15.1578125 3.4403125 15.1578125 0 15 C0 10.05 0 5.1 0 0 Z " fill="#161A19" transform="translate(903,428)"/>
<path d="M0 0 C3 3.44444444 3 3.44444444 3 6 C2.06148193 6.11275269 2.06148193 6.11275269 1.10400391 6.2277832 C-1.72424114 6.57546655 -4.54943329 6.9437085 -7.375 7.3125 C-8.35984375 7.43044922 -9.3446875 7.54839844 -10.359375 7.66992188 C-11.77089844 7.85844727 -11.77089844 7.85844727 -13.2109375 8.05078125 C-14.51490479 8.21574097 -14.51490479 8.21574097 -15.84521484 8.3840332 C-18.37059229 8.85438048 -18.37059229 8.85438048 -20 12 C-20.68177416 13.32567199 -21.35191436 14.65753688 -22 16 C-23.32 16 -24.64 16 -26 16 C-25.60091136 10.21321466 -24.97792955 6.50134133 -21 2 C-14.69994302 -1.85717774 -7.0103654 -2.33678847 0 0 Z " fill="#64ACB2" transform="translate(850,423)"/>
<path d="M0 0 C10.35382724 -1.05548724 10.35382724 -1.05548724 13.9921875 1.27734375 C15.58737867 3.099829 16.80118927 4.89612686 18 7 C18.40992188 7.68320312 18.81984375 8.36640625 19.2421875 9.0703125 C21.28540408 12.77628464 22.5411169 15.67106479 22 20 C15.50411434 19.3871806 15.50411434 19.3871806 13.484375 17.8359375 C10.75053769 14.45461241 8.88168661 10.52660281 6.81640625 6.71484375 C4.96177977 3.94287513 3.99000954 3.22520561 1 2 C0.67 1.34 0.34 0.68 0 0 Z " fill="#D97086" transform="translate(905,447)"/>
<path d="M0 0 C2.31 0 4.62 0 7 0 C7 5.28 7 10.56 7 16 C5.68 16 4.36 16 3 16 C3 22.6 3 29.2 3 36 C-1 33 -1 33 -1.77124023 30.21826172 C-2.00656082 26.90770041 -1.92791389 23.81540684 -1.66015625 20.5078125 C-1.56669922 19.30898438 -1.47324219 18.11015625 -1.37695312 16.875 C-1.27318359 15.6375 -1.16941406 14.4 -1.0625 13.125 C-0.91264648 11.23394531 -0.91264648 11.23394531 -0.75976562 9.3046875 C-0.51300411 6.20254276 -0.25953665 3.10109769 0 0 Z " fill="#808F81" transform="translate(1005,423)"/>
<path d="M0 0 C1.625 0.828125 1.625 0.828125 3.875 2.328125 C3.875 2.988125 3.875 3.648125 3.875 4.328125 C4.865 4.658125 5.855 4.988125 6.875 5.328125 C6.875 5.658125 6.875 5.988125 6.875 6.328125 C5.98977661 6.34999878 5.98977661 6.34999878 5.08666992 6.37231445 C2.41128771 6.44681344 -0.26284892 6.54346495 -2.9375 6.640625 C-3.86626953 6.66318359 -4.79503906 6.68574219 -5.75195312 6.70898438 C-6.64462891 6.74443359 -7.53730469 6.77988281 -8.45703125 6.81640625 C-9.27921143 6.84259033 -10.1013916 6.86877441 -10.94848633 6.89575195 C-13.58501485 7.41950877 -14.3120115 8.42204984 -16.125 10.328125 C-19.3125 10.515625 -19.3125 10.515625 -22.125 10.328125 C-21.71034283 5.49045801 -19.7051385 3.47166124 -16.125 0.328125 C-11.66129461 -1.90372769 -4.69137829 -1.48330343 0 0 Z " fill="#55BAC1" transform="translate(959.125,422.671875)"/>
<path d="M0 0 C8.91 0 17.82 0 27 0 C25.94304025 4.22783899 25.24943852 5.30760808 22 8 C16.47291056 9.76913114 10.44536847 9.85472376 5.0625 7.625 C2 6 2 6 0 4 C0 2.68 0 1.36 0 0 Z " fill="#E760BC" transform="translate(939,459)"/>
<path d="M0 0 C8.58 0 17.16 0 26 0 C26 1.32 26 2.64 26 4 C19.4 4 12.8 4 6 4 C6 7.3 6 10.6 6 14 C4.02 14.66 2.04 15.32 0 16 C0 10.72 0 5.44 0 0 Z " fill="#5EBDC0" transform="translate(788,423)"/>
<path d="M0 0 C10.56 0 21.12 0 32 0 C32 1.32 32 2.64 32 4 C27.38 4 22.76 4 18 4 C18 7.3 18 10.6 18 14 C16.68 14 15.36 14 14 14 C14 10.7 14 7.4 14 4 C9.38 4 4.76 4 0 4 C0 2.68 0 1.36 0 0 Z " fill="#5BC5CF" transform="translate(857,423)"/>
<path d="M0 0 C1.26070312 0.02030273 1.26070312 0.02030273 2.546875 0.04101562 C4.61485938 0.07626536 6.68251271 0.1300698 8.75 0.1875 C9.08 2.8275 9.41 5.4675 9.75 8.1875 C1.5 8.1875 -6.75 8.1875 -15.25 8.1875 C-11.85858432 -0.2910392 -8.38479365 -0.25547418 0 0 Z " fill="#52B4BC" transform="translate(1059.25,422.8125)"/>
<path d="M0 0 C2.97 0 5.94 0 9 0 C11.53634391 4.74541763 13.45734262 8.57342622 14 14 C12.35 14.33 10.7 14.66 9 15 C8.34 13.68 7.68 12.36 7 11 C6.38125 11.495 5.7625 11.99 5.125 12.5 C3 14 3 14 1 14 C-0.38226016 11.23547967 -0.09525387 8.9538637 -0.0625 5.875 C-0.05347656 4.77929688 -0.04445313 3.68359375 -0.03515625 2.5546875 C-0.02355469 1.71164062 -0.01195312 0.86859375 0 0 Z " fill="#77B1A4" transform="translate(980,423)"/>
<path d="M0 0 C1.32 0 2.64 0 4 0 C4 2.64 4 5.28 4 8 C11.26 8 18.52 8 26 8 C26 9.32 26 10.64 26 12 C17.42 12 8.84 12 0 12 C0 8.04 0 4.08 0 0 Z " fill="#F563CC" transform="translate(721,455)"/>
<path d="M0 0 C8.58 0 17.16 0 26 0 C25.67 1.65 25.34 3.3 25 5 C12.625 5.495 12.625 5.495 0 6 C0 4.02 0 2.04 0 0 Z " fill="#4AC1D0" transform="translate(721,423)"/>
<path d="M0 0 C2.87011734 2.58577135 4.78860928 5.53552827 6.8125 8.8125 C7.45832031 9.82957031 8.10414063 10.84664063 8.76953125 11.89453125 C10 15 10 15 9.44921875 18.32421875 C8 21 8 21 5.90942383 21.66723633 C5.27931396 21.77704834 4.6492041 21.88686035 4 22 C2.66161267 19.54429825 1.32913768 17.08570084 0 14.625 C-0.3815625 13.92632812 -0.763125 13.22765625 -1.15625 12.5078125 C-4 7.2265625 -4 7.2265625 -4 5 C-2.68 4.67 -1.36 4.34 0 4 C0 2.68 0 1.36 0 0 Z " fill="#D28964" transform="translate(993,433)"/>
<path d="M0 0 C2.475 0.495 2.475 0.495 5 1 C5 9.25 5 17.5 5 26 C3.35 26 1.7 26 0 26 C0 17.42 0 8.84 0 0 Z " fill="#E78385" transform="translate(1024,440)"/>
<path d="M0 0 C1.32 0 2.64 0 4 0 C4 2.64 4 5.28 4 8 C10.6 8 17.2 8 24 8 C24 9.32 24 10.64 24 12 C16.08 12 8.16 12 0 12 C0 8.04 0 4.08 0 0 Z " fill="#F763CF" transform="translate(790,455)"/>
<path d="M0 0 C1.32 0 2.64 0 4 0 C4 2.64 4 5.28 4 8 C10.6 8 17.2 8 24 8 C24 9.32 24 10.64 24 12 C16.08 12 8.16 12 0 12 C0 8.04 0 4.08 0 0 Z " fill="#F062CB" transform="translate(756,455)"/>
<path d="M0 0 C0 3.92896395 -1.00299863 7.19893228 -2 11 C-0.68 11 0.64 11 2 11 C2 15.62 2 20.24 2 25 C-2 26 -2 26 -4 25 C-5.99952589 19.00142233 -6.47228617 10.35125278 -3.8828125 4.45703125 C-2.5 2.5625 -2.5 2.5625 0 0 Z " fill="#DD9565" transform="translate(826,428)"/>
<path d="M0 0 C1.32 0 2.64 0 4 0 C4 3.3 4 6.6 4 10 C4.99 10 5.98 10 7 10 C7.33 12.64 7.66 15.28 8 18 C6.68 18 5.36 18 4 18 C3.67 19.32 3.34 20.64 3 22 C3 21.34 3 20.68 3 20 C2.34 20 1.68 20 1 20 C-2 13.375 -2 13.375 -2 10 C-1.34 10 -0.68 10 0 10 C0 6.7 0 3.4 0 0 Z " fill="#DF866E" transform="translate(935,441)"/>
<path d="M0 0 C3.85309632 1.46151929 5.24018776 3.31277435 7 7 C7.6875 10.3125 7.6875 10.3125 8 13 C6.35 13.33 4.7 13.66 3 14 C3.02320313 14.84304688 3.04640625 15.68609375 3.0703125 16.5546875 C3.08835937 17.65039062 3.10640625 18.74609375 3.125 19.875 C3.14820313 20.96554687 3.17140625 22.05609375 3.1953125 23.1796875 C3 26 3 26 1 28 C0.9498877 27.41508789 0.89977539 26.83017578 0.84814453 26.22753906 C0.61548765 23.56754819 0.37037564 20.90884651 0.125 18.25 C0.04636719 17.32960938 -0.03226563 16.40921875 -0.11328125 15.4609375 C-0.19707031 14.57148438 -0.28085937 13.68203125 -0.3671875 12.765625 C-0.47716064 11.54020996 -0.47716064 11.54020996 -0.58935547 10.29003906 C-1.02109144 7.88237951 -1.80326384 6.12090608 -3 4 C-1.35 3.67 0.3 3.34 2 3 C1.34 2.67 0.68 2.34 0 2 C0 1.34 0 0.68 0 0 Z " fill="#92966E" transform="translate(963,425)"/>
<path d="M0 0 C1.63149013 4.9446701 0.91690704 10.14490514 0.7421875 15.2734375 C1.01955644 19.28267938 1.8820191 21.61327692 4 25 C4.66 25.33 5.32 25.66 6 26 C6 26.99 6 27.98 6 29 C5.360625 29.12375 4.72125 29.2475 4.0625 29.375 C3.381875 29.58125 2.70125 29.7875 2 30 C1.67 30.66 1.34 31.32 1 32 C-3.55519783 28.06036945 -5.15451681 24.73071096 -7 19 C-5.35 19 -3.7 19 -2 19 C-1.93941406 17.79601562 -1.87882813 16.59203125 -1.81640625 15.3515625 C-1.73200268 13.77602923 -1.64735459 12.20050904 -1.5625 10.625 C-1.50352539 9.43390625 -1.50352539 9.43390625 -1.44335938 8.21875 C-1.11328125 2.2265625 -1.11328125 2.2265625 0 0 Z " fill="#DB61A8" transform="translate(829,434)"/>
<path d="M0 0 C2.51235884 1.32229412 4.55434266 2.42701199 6.3125 4.6875 C7.34720816 8.167882 7.12078138 11.37655866 7 15 C4.69 15 2.38 15 0 15 C-0.19601608 13.25093341 -0.38147403 11.50068154 -0.5625 9.75 C-0.66691406 8.77546875 -0.77132812 7.8009375 -0.87890625 6.796875 C-0.98974468 4.2368648 -0.77738092 2.41851841 0 0 Z " fill="#7DAA94" transform="translate(920,424)"/>
<path d="M0 0 C0.33 0 0.66 0 1 0 C1 4.95 1 9.9 1 15 C4.3 15 7.6 15 11 15 C11 15.66 11 16.32 11 17 C5.72 17 0.44 17 -5 17 C-5 9 -5 9 -3.0625 6.8125 C-2.381875 6.214375 -1.70125 5.61625 -1 5 C-0.20318682 2.35815459 -0.20318682 2.35815459 0 0 Z " fill="#B89853" transform="translate(902,428)"/>
<path d="M0 0 C3.53586014 3.17320782 5.58578031 5.16743695 6 10 C4.68 10 3.36 10 2 10 C2 14.29 2 18.58 2 23 C1.67 23 1.34 23 1 23 C0.32546899 15.31516461 -0.1567564 7.71589817 0 0 Z " fill="#3B2825" transform="translate(137,417)"/>
<path d="M0 0 C2.375 1.625 2.375 1.625 4 4 C4.5 7 4.5 7 4 10 C2.25 12.4375 2.25 12.4375 0 14 C-2.25 13.75 -2.25 13.75 -4 13 C-3.195625 12.79375 -2.39125 12.5875 -1.5625 12.375 C1.29951799 11.21429571 1.29951799 11.21429571 2 8.0625 C2.2730995 5.06130805 2.2730995 5.06130805 0.8125 3.125 C-1.21088411 1.64842476 -1.21088411 1.64842476 -5 2 C-6.62514468 3.45833358 -6.62514468 3.45833358 -8 5 C-8.66 5 -9.32 5 -10 5 C-9.6875 3.0625 -9.6875 3.0625 -9 1 C-5.68377419 -0.1054086 -3.47482175 -0.35457365 0 0 Z " fill="#BCBCBA" transform="translate(715,628)"/>
<path d="M0 0 C0 3.61029169 -0.96092582 6.55806676 -2 10 C-2.33 10 -2.66 10 -3 10 C-3.33 13.96 -3.66 17.92 -4 22 C-4.33 22 -4.66 22 -5 22 C-5.86140345 7.1264337 -5.86140345 7.1264337 -2.5 2.5625 C-1.675 1.716875 -0.85 0.87125 0 0 Z " fill="#C85BA6" transform="translate(826,428)"/>
<path d="M0 0 C0 0.33 0 0.66 0 1 C-0.85722656 1.07476562 -1.71445312 1.14953125 -2.59765625 1.2265625 C-10.36668584 2.11995711 -14.62276669 3.24761088 -20 9 C-19.09447999 5.74012795 -18.06692589 4.06516468 -15.625 1.6875 C-10.42935413 -0.73116273 -5.63922179 -0.32849836 0 0 Z " fill="#76847C" transform="translate(957,422)"/>
<path d="M0 0 C2.97 0.33 5.94 0.66 9 1 C9.33 2.32 9.66 3.64 10 5 C8.0625 4.625 8.0625 4.625 6 4 C5.67 3.34 5.34 2.68 5 2 C2.69 2.33 0.38 2.66 -2 3 C-1.34 2.01 -0.68 1.02 0 0 Z " fill="#C0C0BE" transform="translate(753,628)"/>
<path d="M0 0 C1.9375 0.75 1.9375 0.75 4 2 C4.75 4.125 4.75 4.125 5 6 C3.02 6.33 1.04 6.66 -1 7 C-1.66 6.01 -2.32 5.02 -3 4 C-1.35 3.67 0.3 3.34 2 3 C1.34 2.67 0.68 2.34 0 2 C0 1.34 0 0.68 0 0 Z " fill="#BE9172" transform="translate(963,425)"/>
<path d="M0 0 C0.33 0 0.66 0 1 0 C1 4.62 1 9.24 1 14 C-1.93302884 8.13394232 -1.98763597 6.19674743 0 0 Z " fill="#C6917C" transform="translate(902,428)"/>
</svg>
