<svg width="61" height="60" viewBox="0 0 61 60" fill="none" xmlns="http://www.w3.org/2000/svg">
<rect width="61" height="60" fill="#868686"/>
<g clip-path="url(#clip0_2947_41825)">
<rect width="1440" height="900" transform="translate(-720 -416)" fill="white"/>
<rect x="-660" y="-287" width="1380" height="711" fill="white"/>
<path d="M58.0004 32.5004C58.6256 32.5004 59.2508 31.8752 59.2508 31.25V23.75C59.2508 21.6248 57.626 20 55.5008 20H45.5V55.0004H55.4996C57.6248 55.0004 59.2496 53.3756 59.2496 51.2504V43.7504C59.249 43.419 59.117 43.1013 58.8827 42.8669C58.6483 42.6326 58.3306 42.5006 57.9992 42.5C56.6866 42.4797 55.4346 41.944 54.5136 41.0085C53.5925 40.0731 53.0763 38.813 53.0763 37.5002C53.0763 36.1874 53.5925 34.9273 54.5136 33.9919C55.4346 33.0564 56.6866 32.5207 57.9992 32.5004H58.0004Z" fill="#0097DA"/>
<path d="M57.1256 16.2508C57.7508 16.0012 58.1252 15.2512 57.8756 14.626L55.3748 7.50037C54.7496 5.49997 52.4948 4.50037 50.6252 5.12557L15.1256 17.3752H55.1252C55.7181 16.8818 56.396 16.5008 57.1256 16.2508Z" fill="#0097DA"/>
<path d="M1.75043 23.751V31.251C1.75043 32.001 2.25083 32.5014 3.00083 32.5014C3.66393 32.4911 4.32245 32.6128 4.93806 32.8595C5.55366 33.1061 6.11405 33.4728 6.58661 33.9381C7.05917 34.4034 7.43445 34.958 7.69061 35.5697C7.94677 36.1814 8.07869 36.838 8.07869 37.5012C8.07869 38.1644 7.94677 38.8209 7.69061 39.4326C7.43445 40.0443 7.05917 40.599 6.58661 41.0643C6.11405 41.5296 5.55366 41.8962 4.93806 42.1429C4.32245 42.3895 3.66393 42.5113 3.00083 42.501C2.25083 42.501 1.75043 43.0014 1.75043 43.7514V51.2514C1.75043 53.3766 3.37523 55.0014 5.50043 55.0014H43.0004V20.001H5.50043C3.38003 20.001 1.75043 21.6258 1.75043 23.751ZM16.7504 30.0006H24.2504C25.0004 30.0006 25.5008 30.501 25.5008 31.251C25.5008 32.001 25.0004 32.5014 24.2504 32.5014H16.7504C16.0004 32.5014 15.5 32.001 15.5 31.251C15.5 30.501 16.0004 30.0006 16.7504 30.0006ZM16.7504 36.2502H32.9996C33.7496 36.2502 34.25 36.7506 34.25 37.5006C34.25 38.2506 33.7496 38.751 32.9996 38.751H16.7504C16.0004 38.751 15.5 38.2506 15.5 37.5006C15.5 36.7506 16.0004 36.2502 16.7504 36.2502ZM16.7504 42.4998H32.9996C33.7496 42.4998 34.25 43.0002 34.25 43.7502C34.25 44.5002 33.7496 45.0006 32.9996 45.0006H16.7504C16.0004 45.0006 15.5 44.5002 15.5 43.7502C15.5 43.0002 16.0004 42.501 16.7504 42.501V42.4998Z" fill="#0097DA"/>
</g>
<defs>
<clipPath id="clip0_2947_41825">
<rect width="1440" height="900" fill="white" transform="translate(-720 -416)"/>
</clipPath>
</defs>
</svg>
